G04 EAGLE Gerber RS-274X export*
G75*
%MOMM*%
%FSLAX34Y34*%
%LPD*%
%INBottom Copper*%
%IPPOS*%
%AMOC8*
5,1,8,0,0,1.08239X$1,22.5*%
G01*
G04 Define Apertures*
%ADD10C,0.708000*%
%ADD11C,0.756400*%
%ADD12C,0.152400*%
G36*
X-81944Y-234814D02*
X-82529Y-234932D01*
X-230389Y-234932D01*
X-230930Y-234832D01*
X-231433Y-234510D01*
X-231770Y-234017D01*
X-231889Y-233432D01*
X-231889Y-126264D01*
X-231788Y-125723D01*
X-231467Y-125221D01*
X-230974Y-124883D01*
X-230389Y-124764D01*
X-162047Y-124764D01*
X-155744Y-122716D01*
X-150382Y-118821D01*
X-146487Y-113459D01*
X-144439Y-107156D01*
X-144439Y107161D01*
X-146487Y113464D01*
X-150382Y118826D01*
X-155744Y122721D01*
X-156964Y123117D01*
X-157544Y123467D01*
X-157881Y123959D01*
X-158000Y124544D01*
X-158000Y232918D01*
X-157899Y233458D01*
X-157577Y233961D01*
X-157085Y234299D01*
X-156500Y234418D01*
X-80704Y234418D01*
X-80163Y234317D01*
X-79660Y233995D01*
X-79323Y233503D01*
X-79204Y232918D01*
X-79204Y214447D01*
X-76170Y206921D01*
X-70543Y201073D01*
X-63138Y197754D01*
X-61748Y197700D01*
X-61232Y197587D01*
X-61221Y197583D01*
X-59050Y197583D01*
X-58710Y197583D01*
X-58620Y197583D01*
X-58281Y197583D01*
X-56109Y197583D01*
X-56098Y197587D01*
X-55582Y197700D01*
X-54192Y197754D01*
X-46787Y201073D01*
X-41160Y206921D01*
X-38127Y214447D01*
X-38127Y232961D01*
X-38026Y233502D01*
X-37704Y234005D01*
X-37212Y234343D01*
X-36627Y234461D01*
X36342Y234461D01*
X36883Y234361D01*
X37386Y234039D01*
X37723Y233546D01*
X37842Y232961D01*
X37842Y212993D01*
X39890Y206690D01*
X43786Y201328D01*
X49147Y197432D01*
X55450Y195384D01*
X62810Y195384D01*
X69113Y197432D01*
X74475Y201328D01*
X78371Y206690D01*
X80419Y212993D01*
X80419Y232918D01*
X80519Y233458D01*
X80841Y233961D01*
X81334Y234299D01*
X81919Y234418D01*
X229901Y234418D01*
X230442Y234317D01*
X230945Y233995D01*
X231282Y233503D01*
X231401Y232918D01*
X231401Y126269D01*
X231300Y125728D01*
X230979Y125225D01*
X230486Y124888D01*
X229901Y124769D01*
X163943Y124769D01*
X157640Y122721D01*
X152278Y118826D01*
X148383Y113464D01*
X146335Y107161D01*
X146335Y-107156D01*
X148383Y-113459D01*
X152278Y-118821D01*
X157640Y-122716D01*
X163943Y-124764D01*
X233766Y-124764D01*
X234306Y-124865D01*
X234809Y-125187D01*
X235147Y-125679D01*
X235266Y-126264D01*
X235266Y-233432D01*
X235165Y-233973D01*
X234843Y-234476D01*
X234351Y-234814D01*
X233766Y-234932D01*
X85906Y-234932D01*
X85365Y-234832D01*
X84862Y-234510D01*
X84525Y-234017D01*
X84406Y-233432D01*
X84406Y-213446D01*
X82337Y-207113D01*
X78403Y-201736D01*
X72994Y-197846D01*
X66644Y-195829D01*
X63363Y-195855D01*
X63351Y-195855D01*
X55450Y-195855D01*
X49147Y-197903D01*
X43786Y-201799D01*
X39890Y-207161D01*
X37842Y-213464D01*
X37842Y-233432D01*
X37741Y-233973D01*
X37419Y-234476D01*
X36927Y-234814D01*
X36342Y-234932D01*
X-36627Y-234932D01*
X-37167Y-234832D01*
X-37670Y-234510D01*
X-38008Y-234017D01*
X-38127Y-233432D01*
X-38127Y-215662D01*
X-40175Y-209359D01*
X-44070Y-203997D01*
X-49432Y-200102D01*
X-55735Y-198054D01*
X-64265Y-198054D01*
X-71954Y-201238D01*
X-77839Y-207122D01*
X-81025Y-214810D01*
X-81026Y-218971D01*
X-81026Y-218971D01*
X-81029Y-233433D01*
X-81130Y-233973D01*
X-81452Y-234476D01*
X-81944Y-234814D01*
G37*
%LPC*%
G36*
X5945Y-198306D02*
X8055Y-198306D01*
X10006Y-197498D01*
X11498Y-196006D01*
X12306Y-194055D01*
X12306Y-191945D01*
X11498Y-189994D01*
X10006Y-188502D01*
X8055Y-187694D01*
X5738Y-187694D01*
X5601Y-187723D01*
X5014Y-187613D01*
X4516Y-187283D01*
X-78944Y-103823D01*
X-79074Y-103675D01*
X-81374Y-100677D01*
X-81546Y-100393D01*
X-81684Y-99812D01*
X-81584Y-99223D01*
X-81262Y-98720D01*
X-80769Y-98383D01*
X-80184Y-98264D01*
X-79769Y-98264D01*
X-77818Y-97456D01*
X-76326Y-95963D01*
X-75518Y-94013D01*
X-75518Y-91902D01*
X-76326Y-89952D01*
X-77818Y-88460D01*
X-79769Y-87652D01*
X-81150Y-87652D01*
X-81974Y-87406D01*
X-82397Y-86985D01*
X-84816Y-83365D01*
X-85040Y-82825D01*
X-86685Y-74553D01*
X-86714Y-74261D01*
X-86714Y-10769D01*
X-86462Y-9937D01*
X-86039Y-9516D01*
X-85485Y-9294D01*
X-84888Y-9305D01*
X-84342Y-9549D01*
X-83935Y-9985D01*
X-83731Y-10546D01*
X-82050Y-21708D01*
X-75999Y-38154D01*
X-66756Y-53042D01*
X-54700Y-65760D01*
X-40327Y-75785D01*
X-24228Y-82706D01*
X-7064Y-86238D01*
X10460Y-86236D01*
X27624Y-82700D01*
X43722Y-75776D01*
X58092Y-65747D01*
X70145Y-53026D01*
X79384Y-38136D01*
X85431Y-21688D01*
X88037Y-4359D01*
X87094Y13140D01*
X82642Y30089D01*
X74863Y45792D01*
X69470Y52697D01*
X69180Y53069D01*
X69180Y53069D01*
X67507Y55212D01*
X62259Y58842D01*
X56169Y60743D01*
X55449Y60743D01*
X54259Y60742D01*
X54259Y60742D01*
X52978Y60742D01*
X36032Y60740D01*
X35491Y60841D01*
X34988Y61163D01*
X34650Y61655D01*
X34531Y62240D01*
X34531Y70870D01*
X31139Y81312D01*
X24685Y90194D01*
X15803Y96647D01*
X5361Y100040D01*
X-5618Y100040D01*
X-16060Y96647D01*
X-24943Y90194D01*
X-31396Y81312D01*
X-34789Y70870D01*
X-34789Y62232D01*
X-34890Y61691D01*
X-35211Y61188D01*
X-35704Y60851D01*
X-36289Y60732D01*
X-52087Y60730D01*
X-52087Y60730D01*
X-52806Y60730D01*
X-58897Y58827D01*
X-64143Y55196D01*
X-66106Y52682D01*
X-71498Y45775D01*
X-79273Y30070D01*
X-83760Y12972D01*
X-83763Y12973D01*
X-83798Y12795D01*
X-84104Y12282D01*
X-84585Y11929D01*
X-85166Y11791D01*
X-85755Y11891D01*
X-86258Y12213D01*
X-86595Y12705D01*
X-86714Y13290D01*
X-86714Y32479D01*
X-86685Y32772D01*
X-85040Y41043D01*
X-84816Y41584D01*
X-80131Y48596D01*
X-79944Y48823D01*
X-48714Y80053D01*
X-48714Y80053D01*
X-47246Y81521D01*
X-43601Y87835D01*
X-41714Y94876D01*
X-41714Y96201D01*
X-41609Y96754D01*
X-41283Y97254D01*
X-41159Y97338D01*
X-39502Y98994D01*
X-38694Y100945D01*
X-38694Y103055D01*
X-39502Y105006D01*
X-40994Y106498D01*
X-41943Y106891D01*
X-42395Y107183D01*
X-42741Y107670D01*
X-42869Y108253D01*
X-42759Y108840D01*
X-42430Y109338D01*
X22114Y173881D01*
X22114Y173881D01*
X23541Y175308D01*
X26286Y181935D01*
X26286Y199201D01*
X26391Y199754D01*
X26717Y200254D01*
X26841Y200338D01*
X28498Y201994D01*
X29306Y203945D01*
X29306Y206055D01*
X28498Y208006D01*
X27006Y209498D01*
X25055Y210306D01*
X22945Y210306D01*
X20994Y209498D01*
X19502Y208006D01*
X18694Y206055D01*
X18694Y203945D01*
X19502Y201994D01*
X21140Y200356D01*
X21258Y200279D01*
X21595Y199787D01*
X21714Y199201D01*
X21714Y185521D01*
X21685Y185228D01*
X20775Y180653D01*
X20551Y180112D01*
X17959Y176233D01*
X17773Y176005D01*
X-52488Y105745D01*
X-52963Y105425D01*
X-53548Y105306D01*
X-55661Y105306D01*
X-57611Y104498D01*
X-57935Y104174D01*
X-58389Y103863D01*
X-58972Y103735D01*
X-59559Y103844D01*
X-60057Y104174D01*
X-60688Y104805D01*
X-62638Y105613D01*
X-62804Y105613D01*
X-63322Y105705D01*
X-63830Y106019D01*
X-64176Y106506D01*
X-64304Y107089D01*
X-64194Y107676D01*
X-63865Y108173D01*
X-39078Y132960D01*
X-39078Y133068D01*
X-38968Y133631D01*
X-38639Y134128D01*
X-27512Y145255D01*
X-27037Y145575D01*
X-26452Y145694D01*
X-24945Y145694D01*
X-22994Y146502D01*
X-21502Y147994D01*
X-20694Y149945D01*
X-20694Y152055D01*
X-21502Y154006D01*
X-22994Y155498D01*
X-24945Y156306D01*
X-27055Y156306D01*
X-29006Y155498D01*
X-30498Y154006D01*
X-31306Y152055D01*
X-31306Y149945D01*
X-31099Y149444D01*
X-30985Y148894D01*
X-31094Y148307D01*
X-31424Y147809D01*
X-39696Y139536D01*
X-40140Y139230D01*
X-40722Y139098D01*
X-41310Y139203D01*
X-41810Y139529D01*
X-41830Y139558D01*
X-43746Y141474D01*
X-45190Y142073D01*
X-45190Y134320D01*
X-49190Y134320D01*
X-49190Y142073D01*
X-50634Y141474D01*
X-51879Y140229D01*
X-52333Y139918D01*
X-52916Y139790D01*
X-53503Y139899D01*
X-54001Y140229D01*
X-54781Y141009D01*
X-55092Y141463D01*
X-55220Y142046D01*
X-55111Y142633D01*
X-54781Y143131D01*
X-53536Y144376D01*
X-52938Y145820D01*
X-64443Y145820D01*
X-63844Y144376D01*
X-62599Y143131D01*
X-62288Y142677D01*
X-62160Y142094D01*
X-62269Y141507D01*
X-62599Y141009D01*
X-63379Y140229D01*
X-63833Y139918D01*
X-64416Y139790D01*
X-65003Y139899D01*
X-65501Y140229D01*
X-66746Y141474D01*
X-68190Y142073D01*
X-68190Y130568D01*
X-66746Y131166D01*
X-65501Y132411D01*
X-65047Y132722D01*
X-64464Y132850D01*
X-63877Y132741D01*
X-63379Y132411D01*
X-62599Y131631D01*
X-62288Y131177D01*
X-62160Y130594D01*
X-62269Y130007D01*
X-62599Y129509D01*
X-63844Y128264D01*
X-64443Y126820D01*
X-56690Y126820D01*
X-56690Y122820D01*
X-64443Y122820D01*
X-63844Y121376D01*
X-62134Y119666D01*
X-61877Y119559D01*
X-61425Y119267D01*
X-61080Y118781D01*
X-60952Y118197D01*
X-61061Y117611D01*
X-61391Y117113D01*
X-87758Y90745D01*
X-88234Y90425D01*
X-88819Y90306D01*
X-91055Y90306D01*
X-93006Y89498D01*
X-94498Y88006D01*
X-95306Y86055D01*
X-95306Y83945D01*
X-94498Y81994D01*
X-93006Y80502D01*
X-90976Y79661D01*
X-90642Y79602D01*
X-90134Y79288D01*
X-89789Y78801D01*
X-89660Y78218D01*
X-89770Y77631D01*
X-90100Y77133D01*
X-91003Y76230D01*
X-94484Y70200D01*
X-96286Y63475D01*
X-96286Y-79336D01*
X-93003Y-91587D01*
X-86661Y-102572D01*
X-83286Y-105947D01*
X-83286Y-105947D01*
X1283Y-190516D01*
X1599Y-190981D01*
X1723Y-191565D01*
X1694Y-191712D01*
X1694Y-194055D01*
X2502Y-196006D01*
X3994Y-197498D01*
X5945Y-198306D01*
G37*
G36*
X191320Y194220D02*
X224320Y194220D01*
X224320Y205220D01*
X191320Y205220D01*
X191320Y194220D01*
G37*
G36*
X-2055Y163694D02*
X55Y163694D01*
X2006Y164502D01*
X3498Y165994D01*
X4306Y167945D01*
X4306Y170055D01*
X3498Y172006D01*
X2006Y173498D01*
X55Y174306D01*
X-2055Y174306D01*
X-3353Y173769D01*
X-3915Y173654D01*
X-4501Y173769D01*
X-5751Y174286D01*
X-66850Y174286D01*
X-67413Y174396D01*
X-67911Y174725D01*
X-69540Y176354D01*
X-108194Y176354D01*
X-108735Y176455D01*
X-109238Y176777D01*
X-109575Y177269D01*
X-109694Y177854D01*
X-109694Y180055D01*
X-110502Y182006D01*
X-111994Y183498D01*
X-113945Y184306D01*
X-116055Y184306D01*
X-118006Y183498D01*
X-119498Y182006D01*
X-120306Y180055D01*
X-120306Y177945D01*
X-119498Y175994D01*
X-118006Y174502D01*
X-116055Y173694D01*
X-113738Y173694D01*
X-113601Y173723D01*
X-113014Y173613D01*
X-112516Y173283D01*
X-111015Y171782D01*
X-72055Y171782D01*
X-71492Y171672D01*
X-70994Y171343D01*
X-69365Y169714D01*
X-8243Y169714D01*
X-7950Y169685D01*
X-7513Y169598D01*
X-6762Y169205D01*
X-6425Y168712D01*
X-6306Y168127D01*
X-6306Y167945D01*
X-5498Y165994D01*
X-4006Y164502D01*
X-2055Y163694D01*
G37*
G36*
X-56690Y149820D02*
X-52938Y149820D01*
X-53536Y151264D01*
X-55246Y152974D01*
X-56690Y153573D01*
X-56690Y149820D01*
G37*
G36*
X-64443Y149820D02*
X-60690Y149820D01*
X-60690Y153573D01*
X-62134Y152974D01*
X-63844Y151264D01*
X-64443Y149820D01*
G37*
G36*
X-75943Y138320D02*
X-72190Y138320D01*
X-72190Y142073D01*
X-73634Y141474D01*
X-75344Y139764D01*
X-75943Y138320D01*
G37*
G36*
X-73634Y131166D02*
X-72190Y130568D01*
X-72190Y134320D01*
X-75943Y134320D01*
X-75344Y132876D01*
X-73634Y131166D01*
G37*
%LPD*%
G36*
X-89585Y43392D02*
X-90166Y43255D01*
X-90755Y43355D01*
X-91258Y43677D01*
X-91595Y44169D01*
X-91714Y44754D01*
X-91714Y59994D01*
X-91685Y60286D01*
X-90135Y68082D01*
X-89911Y68623D01*
X-85495Y75232D01*
X-85308Y75459D01*
X-66177Y94590D01*
X-65713Y94906D01*
X-65129Y95029D01*
X-64982Y95001D01*
X-62638Y95001D01*
X-60688Y95808D01*
X-60363Y96133D01*
X-59910Y96444D01*
X-59327Y96572D01*
X-58740Y96463D01*
X-58242Y96133D01*
X-57611Y95502D01*
X-55661Y94694D01*
X-53550Y94694D01*
X-51600Y95502D01*
X-50107Y96994D01*
X-49909Y97472D01*
X-49617Y97925D01*
X-49130Y98270D01*
X-48547Y98398D01*
X-47960Y98289D01*
X-47463Y97959D01*
X-47117Y97613D01*
X-46709Y96857D01*
X-46706Y96260D01*
X-47960Y89957D01*
X-48184Y89416D01*
X-52869Y82404D01*
X-53056Y82177D01*
X-84286Y50947D01*
X-84286Y50947D01*
X-85754Y49479D01*
X-88915Y44004D01*
X-89104Y43745D01*
X-89585Y43392D01*
G37*
D10*
X-58690Y136320D03*
X-58690Y147820D03*
X-70190Y136320D03*
X-58690Y124820D03*
X-47190Y136320D03*
D11*
X-73000Y168000D03*
X180000Y226858D03*
X166000Y202610D03*
X-86000Y202610D03*
X-114000Y202610D03*
X222000Y154114D03*
X194000Y154114D03*
X166000Y154114D03*
X138000Y154114D03*
X208000Y129866D03*
X12000Y129866D03*
X110000Y105618D03*
X82000Y105618D03*
X54000Y154114D03*
X54000Y105618D03*
X26000Y105618D03*
X-100000Y226858D03*
X-114000Y105618D03*
X96000Y81370D03*
X-72000Y81370D03*
X-100000Y81370D03*
X138000Y57122D03*
X82000Y57122D03*
X-114000Y57122D03*
X96000Y32874D03*
X-100000Y129866D03*
X138000Y8626D03*
X110000Y8626D03*
X166000Y-136862D03*
X166000Y-185358D03*
X26000Y-185358D03*
X124000Y-64118D03*
X110000Y-39870D03*
X68000Y-64118D03*
X40000Y-112614D03*
X-44000Y-161110D03*
X110000Y-88366D03*
X-114000Y8626D03*
X-58000Y-185358D03*
X54000Y-88366D03*
X12000Y-161110D03*
X26000Y-88366D03*
X12000Y-112614D03*
X-30000Y-88366D03*
X40000Y81370D03*
X180000Y-209606D03*
X124000Y-112614D03*
X96000Y-112614D03*
X138000Y202610D03*
X68000Y-112614D03*
X124000Y-15622D03*
X-16000Y-112614D03*
X-114000Y-88366D03*
X96000Y-15622D03*
X-100000Y-112614D03*
X208000Y226858D03*
X110000Y57122D03*
X138000Y105618D03*
X222000Y-136862D03*
X68000Y81370D03*
X180000Y178362D03*
X-44000Y-112614D03*
X138000Y-136862D03*
X54000Y-185358D03*
X54000Y-136862D03*
X26000Y-136862D03*
X-2000Y-136862D03*
X-30000Y-136862D03*
X-86000Y-136862D03*
X152000Y-161110D03*
X208000Y-161110D03*
X194000Y-185358D03*
X194000Y-136862D03*
X180000Y-161110D03*
X138000Y-39870D03*
X-128000Y-15622D03*
X68000Y-161110D03*
X110000Y-136862D03*
X-100000Y-161110D03*
X222000Y-185358D03*
X-114000Y-136862D03*
X-114000Y-39870D03*
X40000Y-161110D03*
X124000Y32874D03*
X12000Y-209606D03*
X-128000Y-64118D03*
X-128000Y81370D03*
X-86000Y-185358D03*
X152000Y-209606D03*
X-58000Y-136862D03*
X82000Y-88366D03*
X82000Y-185358D03*
X82000Y-136862D03*
X208000Y-209606D03*
X12000Y226858D03*
X96000Y-64118D03*
X-16000Y-161110D03*
X-30000Y-185358D03*
X-128000Y32874D03*
X138000Y-88366D03*
X-2000Y202610D03*
X124000Y81370D03*
X-30000Y202610D03*
D12*
X-47190Y136320D02*
X-58690Y136320D01*
X-58690Y124820D01*
X-58690Y136320D02*
X-70190Y136320D01*
X-58690Y136320D02*
X-58690Y147820D01*
D11*
X-153000Y230000D03*
X-140000Y230000D03*
X-152000Y219000D03*
X-141000Y219000D03*
X-153000Y207000D03*
X-141000Y207000D03*
X-147000Y213000D03*
X-147000Y225000D03*
X-147000Y200000D03*
X-153000Y193000D03*
X-142000Y193000D03*
X-148000Y186000D03*
X-152000Y178000D03*
X-141000Y181000D03*
X-147000Y170000D03*
X-153000Y163000D03*
X-142000Y163000D03*
X-147000Y157000D03*
X-137000Y136000D03*
X-137000Y128000D03*
X-137000Y119000D03*
X-145000Y119000D03*
X-137000Y110000D03*
X-137000Y101000D03*
X34000Y154000D03*
X25000Y131000D03*
X-83000Y114000D03*
X143000Y229000D03*
X193000Y171000D03*
X180000Y200000D03*
X-33000Y106000D03*
X-90000Y85000D03*
D12*
X-26707Y149293D02*
X-26641Y149361D01*
X-26578Y149432D01*
X-26518Y149506D01*
X-26461Y149581D01*
X-26407Y149659D01*
X-26356Y149739D01*
X-26308Y149820D01*
X-26263Y149904D01*
X-26222Y149989D01*
X-26184Y150076D01*
X-26149Y150164D01*
X-26118Y150254D01*
X-26091Y150345D01*
X-26067Y150436D01*
X-26046Y150529D01*
X-26030Y150622D01*
X-26017Y150716D01*
X-26007Y150811D01*
X-26002Y150905D01*
X-26000Y151000D01*
D11*
X-26000Y151000D03*
D12*
X-41364Y133907D02*
X-90000Y85271D01*
X-90000Y85000D01*
X-41364Y133907D02*
X-41364Y134636D01*
X-26707Y149293D01*
D11*
X-80824Y-92958D03*
X-44000Y102000D03*
D12*
X-44000Y98521D01*
X-44007Y97917D01*
X-44029Y97312D01*
X-44065Y96709D01*
X-44115Y96107D01*
X-44180Y95506D01*
X-44259Y94906D01*
X-44352Y94309D01*
X-44459Y93714D01*
X-44580Y93122D01*
X-44716Y92533D01*
X-44865Y91947D01*
X-45029Y91365D01*
X-45206Y90787D01*
X-45397Y90213D01*
X-45601Y89645D01*
X-45819Y89081D01*
X-46051Y88522D01*
X-46295Y87969D01*
X-46553Y87423D01*
X-46824Y86882D01*
X-47107Y86348D01*
X-47403Y85821D01*
X-47711Y85301D01*
X-48032Y84789D01*
X-48365Y84284D01*
X-48710Y83788D01*
X-49066Y83299D01*
X-49434Y82820D01*
X-49814Y82349D01*
X-50204Y81888D01*
X-50605Y81435D01*
X-51017Y80993D01*
X-51439Y80560D01*
X-51440Y80561D02*
X-81561Y50440D01*
X-81561Y-92221D02*
X-80824Y-92958D01*
X-81561Y-92222D02*
X-81983Y-91789D01*
X-82395Y-91347D01*
X-82796Y-90894D01*
X-83186Y-90433D01*
X-83566Y-89962D01*
X-83934Y-89483D01*
X-84290Y-88994D01*
X-84635Y-88498D01*
X-84968Y-87993D01*
X-85289Y-87481D01*
X-85597Y-86961D01*
X-85893Y-86434D01*
X-86176Y-85900D01*
X-86447Y-85359D01*
X-86705Y-84813D01*
X-86949Y-84260D01*
X-87181Y-83701D01*
X-87399Y-83137D01*
X-87603Y-82569D01*
X-87794Y-81995D01*
X-87971Y-81417D01*
X-88135Y-80835D01*
X-88284Y-80249D01*
X-88420Y-79660D01*
X-88541Y-79068D01*
X-88648Y-78473D01*
X-88741Y-77876D01*
X-88820Y-77276D01*
X-88885Y-76675D01*
X-88935Y-76073D01*
X-88971Y-75470D01*
X-88993Y-74865D01*
X-89000Y-74261D01*
X-89000Y32479D01*
X-88993Y33083D01*
X-88971Y33688D01*
X-88935Y34291D01*
X-88885Y34893D01*
X-88820Y35494D01*
X-88741Y36094D01*
X-88648Y36691D01*
X-88541Y37286D01*
X-88420Y37878D01*
X-88284Y38467D01*
X-88135Y39053D01*
X-87971Y39635D01*
X-87794Y40213D01*
X-87603Y40787D01*
X-87399Y41355D01*
X-87181Y41919D01*
X-86949Y42478D01*
X-86705Y43031D01*
X-86447Y43577D01*
X-86176Y44118D01*
X-85893Y44652D01*
X-85597Y45179D01*
X-85289Y45699D01*
X-84968Y46211D01*
X-84635Y46716D01*
X-84290Y47212D01*
X-83934Y47701D01*
X-83566Y48180D01*
X-83186Y48651D01*
X-82796Y49112D01*
X-82395Y49565D01*
X-81983Y50007D01*
X-81561Y50440D01*
D11*
X-54605Y100000D03*
D12*
X19389Y174389D02*
X19651Y174657D01*
X19906Y174931D01*
X20155Y175212D01*
X20397Y175498D01*
X20632Y175789D01*
X20860Y176087D01*
X21081Y176389D01*
X21295Y176697D01*
X21501Y177010D01*
X21700Y177327D01*
X21891Y177650D01*
X22074Y177976D01*
X22250Y178307D01*
X22418Y178642D01*
X22577Y178981D01*
X22729Y179324D01*
X22872Y179670D01*
X23007Y180019D01*
X23134Y180372D01*
X23252Y180727D01*
X23362Y181086D01*
X23464Y181446D01*
X23556Y181809D01*
X23640Y182175D01*
X23716Y182542D01*
X23782Y182910D01*
X23840Y183281D01*
X23889Y183652D01*
X23929Y184025D01*
X23960Y184398D01*
X23982Y184772D01*
X23996Y185146D01*
X24000Y185521D01*
X24000Y205000D01*
D11*
X24000Y205000D03*
D12*
X19389Y174389D02*
X-54605Y100395D01*
X-54605Y100000D01*
D11*
X-63693Y100307D03*
D12*
X-86924Y77076D01*
X-86925Y77076D02*
X-87326Y76664D01*
X-87718Y76243D01*
X-88100Y75813D01*
X-88471Y75375D01*
X-88832Y74927D01*
X-89182Y74471D01*
X-89521Y74006D01*
X-89849Y73534D01*
X-90165Y73054D01*
X-90470Y72567D01*
X-90764Y72072D01*
X-91045Y71571D01*
X-91315Y71063D01*
X-91572Y70549D01*
X-91817Y70029D01*
X-92050Y69503D01*
X-92270Y68972D01*
X-92477Y68436D01*
X-92671Y67895D01*
X-92853Y67349D01*
X-93021Y66800D01*
X-93177Y66246D01*
X-93319Y65689D01*
X-93448Y65129D01*
X-93563Y64566D01*
X-93666Y64000D01*
X-93754Y63432D01*
X-93829Y62862D01*
X-93891Y62290D01*
X-93938Y61717D01*
X-93973Y61143D01*
X-93993Y60569D01*
X-94000Y59994D01*
X-94000Y-72994D01*
X-93987Y-74086D01*
X-93948Y-75177D01*
X-93883Y-76267D01*
X-93792Y-77356D01*
X-93675Y-78441D01*
X-93533Y-79524D01*
X-93365Y-80603D01*
X-93171Y-81678D01*
X-92951Y-82748D01*
X-92707Y-83812D01*
X-92437Y-84870D01*
X-92141Y-85921D01*
X-91821Y-86965D01*
X-91476Y-88002D01*
X-91107Y-89029D01*
X-90713Y-90048D01*
X-90295Y-91057D01*
X-89853Y-92055D01*
X-89388Y-93043D01*
X-88899Y-94020D01*
X-88387Y-94984D01*
X-87853Y-95937D01*
X-87295Y-96876D01*
X-86716Y-97801D01*
X-86115Y-98713D01*
X-85492Y-99610D01*
X-84848Y-100492D01*
X-84183Y-101358D01*
X-83498Y-102209D01*
X-82793Y-103042D01*
X-82068Y-103859D01*
X-81324Y-104658D01*
X-80561Y-105440D01*
X7000Y-193000D01*
D11*
X7000Y-193000D03*
X-115000Y179000D03*
D12*
X-8243Y172000D02*
X-7999Y171997D01*
X-7756Y171988D01*
X-7512Y171974D01*
X-7269Y171954D01*
X-7027Y171928D01*
X-6785Y171896D01*
X-6544Y171858D01*
X-6305Y171815D01*
X-6066Y171766D01*
X-5828Y171711D01*
X-5592Y171651D01*
X-5357Y171585D01*
X-5124Y171514D01*
X-4893Y171437D01*
X-4663Y171354D01*
X-4436Y171266D01*
X-4211Y171173D01*
X-3988Y171074D01*
X-3767Y170970D01*
X-3549Y170861D01*
X-3334Y170747D01*
X-3122Y170628D01*
X-2912Y170503D01*
X-2705Y170374D01*
X-2502Y170240D01*
X-2301Y170101D01*
X-2105Y169957D01*
X-1911Y169809D01*
X-1721Y169656D01*
X-1535Y169498D01*
X-1353Y169336D01*
X-1175Y169170D01*
X-1000Y169000D01*
X-70487Y174068D02*
X-110068Y174068D01*
X-115000Y179000D01*
X-70487Y174068D02*
X-68419Y172000D01*
X-8243Y172000D01*
D11*
X-1000Y169000D03*
M02*
