M48
;GenerationSoftware,Autodesk,EAGLE,9.7.0*%
;CreationDate,2025-12-28T22:04:38Z*%
FMAT,2
ICI,OFF
METRIC,TZ,000.000
T2C0.200
T1C0.350
%
G90
M71
T1
X-3000Y-8837
X-15300Y23000
X-14000Y23000
X-15200Y21900
X-14100Y21900
X-15300Y20700
X-14100Y20700
X-14700Y21300
X-14700Y22500
X-14700Y20000
X-15300Y19300
X-14200Y19300
X-14800Y18600
X-15200Y17800
X-14100Y18100
X-14700Y17000
X-15300Y16300
X-14200Y16300
X-14700Y15700
X-13700Y13600
X-13700Y12800
X-13700Y11900
X-14500Y11900
X-13700Y11000
X-13700Y10100
X3400Y15400
X2500Y13100
X-8300Y11400
X14300Y22900
X19300Y17100
X18000Y20000
X-3300Y10600
X18000Y22686
X16600Y20261
X-8600Y20261
X-11400Y20261
X22200Y15411
X19400Y15411
X16600Y15411
X13800Y15411
X20800Y12987
X1200Y12987
X11000Y10562
X8200Y10562
X5400Y15411
X5400Y10562
X2600Y10562
X-10000Y22686
X-11400Y10562
X9600Y8137
X-7200Y8137
X-10000Y8137
X13800Y5712
X8200Y5712
X-11400Y5712
X9600Y3287
X-10000Y12987
X13800Y863
X11000Y863
X16600Y-13686
X16600Y-18536
X2600Y-18536
X12400Y-6412
X11000Y-3987
X6800Y-6412
X4000Y-11261
X-4400Y-16111
X11000Y-8837
X-11400Y863
X-5800Y-18536
X5400Y-8837
X1200Y-16111
X2600Y-8837
X1200Y-11261
X-7300Y16800
X4000Y8137
X18000Y-20961
X12400Y-11261
X9600Y-11261
X13800Y20261
X6800Y-11261
X12400Y-1562
X-1600Y-11261
X-11400Y-8837
X9600Y-1562
X-10000Y-11261
X20800Y22686
X11000Y5712
X13800Y10562
X22200Y-13686
X6800Y8137
X18000Y17836
X-4400Y-11261
X13800Y-13686
X5400Y-18536
X5400Y-13686
X2600Y-13686
X-200Y-13686
X-3000Y-13686
X-8600Y-13686
X15200Y-16111
X20800Y-16111
X19400Y-18536
X19400Y-13686
X18000Y-16111
X13800Y-3987
X-12800Y-1562
X6800Y-16111
X11000Y-13686
X-10000Y-16111
X22200Y-18536
X-11400Y-13686
X-11400Y-3987
X4000Y-16111
X12400Y3287
X1200Y-20961
X-12800Y-6412
X-12800Y8137
X-8600Y-18536
X15200Y-20961
X-5800Y-13686
X8200Y-8837
X8200Y-18536
X8200Y-13686
X20800Y-20961
X1200Y22686
X9600Y-6412
X-1600Y-16111
X-3000Y-18536
X-12800Y3287
X13800Y-8837
X-200Y20261
X12400Y8137
X-3000Y20261
X-9000Y8500
X-2600Y15100
X-8082Y-9296
X-4400Y10200
X-5461Y10000
X2400Y20500
X-6369Y10031
X700Y-19300
X-11500Y17900
X-100Y16900
T2
X-5869Y13632
X-5869Y14782
X-7019Y13632
X-5869Y12482
X-4719Y13632
M30