G04 EAGLE Gerber RS-274X export*
G75*
%MOMM*%
%FSLAX34Y34*%
%LPD*%
%IN*%
%IPPOS*%
%AMOC8*
5,1,8,0,0,1.08239X$1,22.5*%
G01*
G04 Define Apertures*
%ADD10C,0.254000*%
D10*
X-245455Y123847D02*
X-245417Y122976D01*
X-245303Y122111D01*
X-245114Y121259D01*
X-244852Y120427D01*
X-244518Y119621D01*
X-244115Y118847D01*
X-243646Y118111D01*
X-243115Y117419D01*
X-242526Y116776D01*
X-241883Y116187D01*
X-241191Y115656D01*
X-240455Y115187D01*
X-239681Y114784D01*
X-238875Y114450D01*
X-238043Y114188D01*
X-237191Y113999D01*
X-236326Y113885D01*
X-235455Y113847D01*
X-165361Y113847D01*
X-164489Y113809D01*
X-163624Y113695D01*
X-162773Y113506D01*
X-161941Y113244D01*
X-161135Y112910D01*
X-160361Y112507D01*
X-159625Y112039D01*
X-158933Y111508D01*
X-158290Y110918D01*
X-157700Y110275D01*
X-157169Y109583D01*
X-156700Y108847D01*
X-156298Y108073D01*
X-155964Y107267D01*
X-155701Y106435D01*
X-155513Y105584D01*
X-155399Y104719D01*
X-155361Y103847D01*
X-155361Y-103842D01*
X-155399Y-104714D01*
X-155513Y-105579D01*
X-155701Y-106430D01*
X-155964Y-107262D01*
X-156298Y-108068D01*
X-156700Y-108842D01*
X-157169Y-109578D01*
X-157700Y-110270D01*
X-158290Y-110913D01*
X-158933Y-111503D01*
X-159625Y-112034D01*
X-160361Y-112502D01*
X-161135Y-112905D01*
X-161941Y-113239D01*
X-162773Y-113501D01*
X-163624Y-113690D01*
X-164489Y-113804D01*
X-165361Y-113842D01*
X-232811Y-113842D01*
X-233683Y-113880D01*
X-234548Y-113994D01*
X-235399Y-114183D01*
X-236231Y-114445D01*
X-237037Y-114779D01*
X-237811Y-115182D01*
X-238547Y-115651D01*
X-239239Y-116182D01*
X-239882Y-116771D01*
X-240472Y-117414D01*
X-241003Y-118106D01*
X-241471Y-118842D01*
X-241874Y-119616D01*
X-242208Y-120422D01*
X-242470Y-121254D01*
X-242659Y-122106D01*
X-242773Y-122971D01*
X-242811Y-123842D01*
X-242811Y-235854D01*
X-242773Y-236726D01*
X-242659Y-237591D01*
X-242470Y-238443D01*
X-242208Y-239275D01*
X-241874Y-240081D01*
X-241471Y-240854D01*
X-241003Y-241590D01*
X-240472Y-242282D01*
X-239882Y-242925D01*
X-239239Y-243515D01*
X-238547Y-244046D01*
X-237811Y-244515D01*
X-237037Y-244917D01*
X-236231Y-245251D01*
X-235399Y-245514D01*
X-234548Y-245702D01*
X-233683Y-245816D01*
X-232811Y-245854D01*
X-80108Y-245854D01*
X-79236Y-245816D01*
X-78371Y-245702D01*
X-77520Y-245514D01*
X-76687Y-245251D01*
X-75882Y-244917D01*
X-75108Y-244515D01*
X-74372Y-244046D01*
X-73680Y-243515D01*
X-73037Y-242925D01*
X-72447Y-242282D01*
X-71916Y-241590D01*
X-71447Y-240854D01*
X-71045Y-240081D01*
X-70711Y-239275D01*
X-70448Y-238443D01*
X-70260Y-237591D01*
X-70146Y-236726D01*
X-70108Y-235857D01*
X-70104Y-218974D01*
X-70066Y-218102D01*
X-69952Y-217237D01*
X-69763Y-216385D01*
X-69500Y-215553D01*
X-69166Y-214748D01*
X-68763Y-213974D01*
X-68294Y-213238D01*
X-67763Y-212546D01*
X-67174Y-211903D01*
X-66530Y-211314D01*
X-65838Y-210783D01*
X-65102Y-210314D01*
X-64328Y-209912D01*
X-63522Y-209578D01*
X-62690Y-209316D01*
X-61839Y-209127D01*
X-60974Y-209013D01*
X-60104Y-208976D01*
X-59049Y-208976D01*
X-58177Y-209014D01*
X-57312Y-209128D01*
X-56460Y-209316D01*
X-55628Y-209579D01*
X-54822Y-209913D01*
X-54049Y-210315D01*
X-53313Y-210784D01*
X-52621Y-211315D01*
X-51977Y-211905D01*
X-51388Y-212548D01*
X-50857Y-213240D01*
X-50388Y-213976D01*
X-49985Y-214749D01*
X-49652Y-215555D01*
X-49389Y-216387D01*
X-49200Y-217239D01*
X-49087Y-218104D01*
X-49049Y-218976D01*
X-49049Y-235854D01*
X-49010Y-236726D01*
X-48897Y-237591D01*
X-48708Y-238443D01*
X-48445Y-239275D01*
X-48112Y-240081D01*
X-47709Y-240854D01*
X-47240Y-241590D01*
X-46709Y-242282D01*
X-46120Y-242925D01*
X-45476Y-243515D01*
X-44784Y-244046D01*
X-44049Y-244515D01*
X-43275Y-244917D01*
X-42469Y-245251D01*
X-41637Y-245514D01*
X-40785Y-245702D01*
X-39920Y-245816D01*
X-39049Y-245854D01*
X38764Y-245854D01*
X39636Y-245816D01*
X40500Y-245702D01*
X41352Y-245514D01*
X42184Y-245251D01*
X42990Y-244917D01*
X43764Y-244515D01*
X44500Y-244046D01*
X45192Y-243515D01*
X45835Y-242925D01*
X46424Y-242282D01*
X46956Y-241590D01*
X47424Y-240854D01*
X47827Y-240081D01*
X48161Y-239275D01*
X48423Y-238443D01*
X48612Y-237591D01*
X48726Y-236726D01*
X48764Y-235854D01*
X48764Y-216777D01*
X48802Y-215906D01*
X48916Y-215041D01*
X49105Y-214189D01*
X49367Y-213357D01*
X49701Y-212551D01*
X50104Y-211777D01*
X50572Y-211042D01*
X51104Y-210350D01*
X51693Y-209706D01*
X52336Y-209117D01*
X53028Y-208586D01*
X53764Y-208117D01*
X54538Y-207714D01*
X55344Y-207380D01*
X56176Y-207118D01*
X57028Y-206929D01*
X57892Y-206815D01*
X58764Y-206777D01*
X63402Y-206777D01*
X64274Y-206808D01*
X65140Y-206915D01*
X65993Y-207097D01*
X66827Y-207353D01*
X67636Y-207680D01*
X68413Y-208076D01*
X69153Y-208539D01*
X69849Y-209064D01*
X70497Y-209648D01*
X71092Y-210287D01*
X71628Y-210975D01*
X72103Y-211706D01*
X72512Y-212477D01*
X72853Y-213280D01*
X73122Y-214110D01*
X73318Y-214960D01*
X73439Y-215824D01*
X73484Y-216695D01*
X73484Y-216777D01*
X73484Y-235854D01*
X73522Y-236726D01*
X73636Y-237591D01*
X73825Y-238443D01*
X74087Y-239275D01*
X74421Y-240081D01*
X74824Y-240854D01*
X75293Y-241590D01*
X75824Y-242282D01*
X76413Y-242925D01*
X77056Y-243515D01*
X77748Y-244046D01*
X78484Y-244515D01*
X79258Y-244917D01*
X80064Y-245251D01*
X80896Y-245514D01*
X81748Y-245702D01*
X82613Y-245816D01*
X83484Y-245854D01*
X236188Y-245854D01*
X237059Y-245816D01*
X237924Y-245702D01*
X238776Y-245514D01*
X239608Y-245251D01*
X240414Y-244917D01*
X241188Y-244515D01*
X241923Y-244046D01*
X242615Y-243515D01*
X243259Y-242925D01*
X243848Y-242282D01*
X244379Y-241590D01*
X244848Y-240854D01*
X245251Y-240081D01*
X245585Y-239275D01*
X245847Y-238443D01*
X246036Y-237591D01*
X246150Y-236726D01*
X246188Y-235854D01*
X246188Y-123842D01*
X246150Y-122971D01*
X246036Y-122106D01*
X245847Y-121254D01*
X245585Y-120422D01*
X245251Y-119616D01*
X244848Y-118842D01*
X244379Y-118106D01*
X243848Y-117414D01*
X243259Y-116771D01*
X242615Y-116182D01*
X241923Y-115651D01*
X241188Y-115182D01*
X240414Y-114779D01*
X239608Y-114445D01*
X238776Y-114183D01*
X237924Y-113994D01*
X237059Y-113880D01*
X236188Y-113842D01*
X167257Y-113842D01*
X166385Y-113804D01*
X165520Y-113690D01*
X164669Y-113501D01*
X163837Y-113239D01*
X163031Y-112905D01*
X162257Y-112502D01*
X161521Y-112034D01*
X160829Y-111503D01*
X160186Y-110913D01*
X159596Y-110270D01*
X159065Y-109578D01*
X158597Y-108842D01*
X158194Y-108068D01*
X157860Y-107262D01*
X157598Y-106430D01*
X157409Y-105579D01*
X157295Y-104714D01*
X157257Y-103842D01*
X157257Y103847D01*
X157295Y104719D01*
X157409Y105584D01*
X157598Y106435D01*
X157860Y107267D01*
X158194Y108073D01*
X158597Y108847D01*
X159065Y109583D01*
X159596Y110275D01*
X160186Y110918D01*
X160829Y111508D01*
X161521Y112039D01*
X162257Y112507D01*
X163031Y112910D01*
X163837Y113244D01*
X164669Y113506D01*
X165520Y113695D01*
X166385Y113809D01*
X167257Y113847D01*
X232323Y113847D01*
X233195Y113885D01*
X234060Y113999D01*
X234911Y114188D01*
X235743Y114450D01*
X236549Y114784D01*
X237323Y115187D01*
X238059Y115656D01*
X238751Y116187D01*
X239394Y116776D01*
X239984Y117419D01*
X240515Y118111D01*
X240983Y118847D01*
X241386Y119621D01*
X241720Y120427D01*
X241982Y121259D01*
X242171Y122111D01*
X242285Y122976D01*
X242323Y123847D01*
X242323Y235340D01*
X242285Y236211D01*
X242171Y237076D01*
X241982Y237928D01*
X241720Y238760D01*
X241386Y239566D01*
X240983Y240340D01*
X240515Y241075D01*
X239984Y241767D01*
X239394Y242411D01*
X238751Y243000D01*
X238059Y243531D01*
X237323Y244000D01*
X236549Y244403D01*
X235743Y244736D01*
X234911Y244999D01*
X234060Y245188D01*
X233195Y245301D01*
X232323Y245340D01*
X79497Y245340D01*
X78625Y245301D01*
X77760Y245188D01*
X76908Y244999D01*
X76076Y244736D01*
X75270Y244403D01*
X74497Y244000D01*
X73761Y243531D01*
X73069Y243000D01*
X72426Y242411D01*
X71836Y241767D01*
X71305Y241075D01*
X70836Y240340D01*
X70434Y239566D01*
X70100Y238760D01*
X69837Y237928D01*
X69649Y237076D01*
X69535Y236211D01*
X69497Y235340D01*
X69497Y216306D01*
X69459Y215435D01*
X69345Y214570D01*
X69156Y213718D01*
X68894Y212886D01*
X68560Y212080D01*
X68157Y211306D01*
X67688Y210571D01*
X67157Y209879D01*
X66568Y209235D01*
X65924Y208646D01*
X65232Y208115D01*
X64497Y207646D01*
X63723Y207243D01*
X62917Y206909D01*
X62085Y206647D01*
X61233Y206458D01*
X60368Y206344D01*
X59497Y206306D01*
X58764Y206306D01*
X57892Y206344D01*
X57028Y206458D01*
X56176Y206647D01*
X55344Y206909D01*
X54538Y207243D01*
X53764Y207646D01*
X53028Y208115D01*
X52336Y208646D01*
X51693Y209235D01*
X51104Y209879D01*
X50572Y210571D01*
X50104Y211306D01*
X49701Y212080D01*
X49367Y212886D01*
X49105Y213718D01*
X48916Y214570D01*
X48802Y215435D01*
X48764Y216306D01*
X48764Y235383D01*
X48726Y236255D01*
X48612Y237120D01*
X48423Y237972D01*
X48161Y238804D01*
X47827Y239610D01*
X47424Y240383D01*
X46956Y241119D01*
X46424Y241811D01*
X45835Y242454D01*
X45192Y243044D01*
X44500Y243575D01*
X43764Y244044D01*
X42990Y244446D01*
X42184Y244780D01*
X41352Y245043D01*
X40500Y245231D01*
X39636Y245345D01*
X38764Y245383D01*
X-39049Y245383D01*
X-39920Y245345D01*
X-40785Y245231D01*
X-41637Y245043D01*
X-42469Y244780D01*
X-43275Y244446D01*
X-44049Y244044D01*
X-44784Y243575D01*
X-45476Y243044D01*
X-46120Y242454D01*
X-46709Y241811D01*
X-47240Y241119D01*
X-47709Y240383D01*
X-48112Y239610D01*
X-48445Y238804D01*
X-48708Y237972D01*
X-48897Y237120D01*
X-49010Y236255D01*
X-49049Y235383D01*
X-49049Y218505D01*
X-49087Y217633D01*
X-49200Y216768D01*
X-49389Y215917D01*
X-49652Y215084D01*
X-49985Y214279D01*
X-50388Y213505D01*
X-50857Y212769D01*
X-51388Y212077D01*
X-51977Y211434D01*
X-52621Y210844D01*
X-53313Y210313D01*
X-54048Y209844D01*
X-54822Y209442D01*
X-55628Y209108D01*
X-56460Y208845D01*
X-57312Y208657D01*
X-58177Y208543D01*
X-58665Y208512D01*
X-59535Y208583D01*
X-60394Y208730D01*
X-61238Y208952D01*
X-62060Y209246D01*
X-62852Y209610D01*
X-63610Y210042D01*
X-64327Y210539D01*
X-64999Y211096D01*
X-65619Y211710D01*
X-66183Y212375D01*
X-66687Y213087D01*
X-67127Y213840D01*
X-67500Y214629D01*
X-67803Y215447D01*
X-68033Y216289D01*
X-68189Y217147D01*
X-68270Y218016D01*
X-68282Y218505D01*
X-68282Y235340D01*
X-68320Y236211D01*
X-68434Y237076D01*
X-68622Y237928D01*
X-68885Y238760D01*
X-69219Y239566D01*
X-69621Y240340D01*
X-70090Y241075D01*
X-70621Y241767D01*
X-71211Y242411D01*
X-71854Y243000D01*
X-72546Y243531D01*
X-73282Y244000D01*
X-74056Y244403D01*
X-74862Y244736D01*
X-75694Y244999D01*
X-76545Y245188D01*
X-77410Y245301D01*
X-78282Y245340D01*
X-235455Y245340D01*
X-236326Y245301D01*
X-237191Y245188D01*
X-238043Y244999D01*
X-238875Y244736D01*
X-239681Y244403D01*
X-240455Y244000D01*
X-241191Y243531D01*
X-241883Y243000D01*
X-242526Y242411D01*
X-243115Y241767D01*
X-243646Y241075D01*
X-244115Y240340D01*
X-244518Y239566D01*
X-244852Y238760D01*
X-245114Y237928D01*
X-245303Y237076D01*
X-245417Y236211D01*
X-245455Y235340D01*
X-245455Y123847D01*
X-57497Y45961D02*
X-61298Y40627D01*
X-64620Y34982D01*
X-67437Y29069D01*
X-69728Y22933D01*
X-71475Y16620D01*
X-72666Y10180D01*
X-73291Y3660D01*
X-73345Y-2890D01*
X-72828Y-9420D01*
X-71744Y-15879D01*
X-70101Y-22220D01*
X-67912Y-28393D01*
X-65193Y-34352D01*
X-61965Y-40051D01*
X-58253Y-45447D01*
X-54084Y-50499D01*
X-49491Y-55169D01*
X-44509Y-59420D01*
X-39174Y-63221D01*
X-33529Y-66543D01*
X-27616Y-69360D01*
X-21480Y-71651D01*
X-15168Y-73399D01*
X-8727Y-74589D01*
X-2207Y-75214D01*
X4343Y-75268D01*
X10872Y-74752D01*
X17332Y-73668D01*
X23672Y-72025D01*
X29845Y-69835D01*
X35804Y-67117D01*
X41504Y-63889D01*
X46900Y-60176D01*
X51952Y-56008D01*
X56621Y-51415D01*
X60873Y-46432D01*
X64674Y-41098D01*
X67996Y-35453D01*
X70813Y-29540D01*
X73104Y-23404D01*
X74851Y-17091D01*
X76042Y-10651D01*
X76667Y-4131D01*
X76721Y2419D01*
X76204Y8949D01*
X75120Y15408D01*
X73477Y21749D01*
X71288Y27922D01*
X68569Y33881D01*
X65341Y39580D01*
X61629Y44976D01*
X60862Y45975D01*
X60296Y46639D01*
X59674Y47250D01*
X59001Y47805D01*
X58282Y48300D01*
X57523Y48729D01*
X56729Y49091D01*
X55907Y49383D01*
X55062Y49601D01*
X54202Y49746D01*
X53332Y49814D01*
X52980Y49820D01*
X28598Y49817D01*
X28162Y49836D01*
X27729Y49893D01*
X27304Y49988D01*
X26888Y50119D01*
X26485Y50286D01*
X26098Y50487D01*
X25730Y50721D01*
X25384Y50987D01*
X25062Y51281D01*
X24767Y51603D01*
X24502Y51949D01*
X24267Y52317D01*
X24066Y52704D01*
X23899Y53107D01*
X23768Y53523D01*
X23673Y53949D01*
X23616Y54381D01*
X23609Y54467D01*
X23609Y65380D01*
X23519Y67449D01*
X23249Y69502D01*
X22801Y71524D01*
X22178Y73499D01*
X21385Y75412D01*
X20429Y77249D01*
X19316Y78996D01*
X18056Y80639D01*
X16657Y82165D01*
X15130Y83564D01*
X13487Y84825D01*
X11740Y85938D01*
X9903Y86894D01*
X7990Y87687D01*
X6015Y88309D01*
X3993Y88758D01*
X1940Y89028D01*
X-129Y89118D01*
X-2198Y89028D01*
X-4251Y88758D01*
X-6273Y88309D01*
X-8248Y87687D01*
X-10161Y86894D01*
X-11998Y85938D01*
X-13744Y84825D01*
X-15387Y83564D01*
X-16914Y82165D01*
X-18313Y80639D01*
X-19574Y78996D01*
X-20687Y77249D01*
X-21643Y75412D01*
X-22435Y73499D01*
X-23058Y71524D01*
X-23506Y69502D01*
X-23777Y67449D01*
X-23867Y65380D01*
X-23867Y54425D01*
X-23919Y53992D01*
X-24010Y53565D01*
X-24137Y53148D01*
X-24299Y52743D01*
X-24497Y52354D01*
X-24728Y51984D01*
X-24990Y51635D01*
X-25281Y51311D01*
X-25600Y51013D01*
X-25943Y50744D01*
X-26309Y50506D01*
X-26693Y50301D01*
X-27095Y50130D01*
X-27509Y49994D01*
X-27934Y49896D01*
X-28366Y49834D01*
X-28802Y49811D01*
X-28851Y49811D01*
X-49615Y49808D01*
X-50486Y49770D01*
X-51351Y49656D01*
X-52203Y49467D01*
X-53035Y49205D01*
X-53841Y48871D01*
X-54615Y48468D01*
X-55351Y47999D01*
X-56043Y47468D01*
X-56686Y46878D01*
X-57275Y46235D01*
X-57497Y45961D01*
M02*
