G04 EAGLE Gerber RS-274X export*
G75*
%MOMM*%
%FSLAX34Y34*%
%LPD*%
%INSilkscreen Top*%
%IPPOS*%
%AMOC8*
5,1,8,0,0,1.08239X$1,22.5*%
G01*
G04 Define Apertures*
%ADD10C,0.127000*%
%ADD11C,0.500000*%
%ADD12C,0.120000*%
%ADD13C,0.203200*%
%ADD14C,0.200000*%
%ADD15C,0.400000*%
G36*
X-165000Y162049D02*
X-182286Y169103D01*
X-182286Y171765D01*
X-165000Y178709D01*
X-165000Y176317D01*
X-170054Y174342D01*
X-170054Y166466D01*
X-165000Y164478D01*
X-165000Y162049D01*
G37*
%LPC*%
G36*
X-171882Y167177D02*
X-171882Y173642D01*
X-177587Y171422D01*
X-178489Y171078D01*
X-179501Y170735D01*
X-180519Y170404D01*
X-180176Y170293D01*
X-179013Y169913D01*
X-177563Y169385D01*
X-171882Y167177D01*
G37*
%LPD*%
G36*
X-165000Y180811D02*
X-182286Y180811D01*
X-182286Y183535D01*
X-167466Y192883D01*
X-169539Y192772D01*
X-170327Y192745D01*
X-170950Y192736D01*
X-182286Y192736D01*
X-182286Y194846D01*
X-165000Y194846D01*
X-165000Y192024D01*
X-179722Y182774D01*
X-178532Y182835D01*
X-176483Y182897D01*
X-165000Y182897D01*
X-165000Y180811D01*
G37*
G36*
X-180372Y197439D02*
X-182286Y197439D01*
X-182286Y211646D01*
X-180372Y211646D01*
X-180372Y205708D01*
X-165000Y205708D01*
X-165000Y203377D01*
X-180372Y203377D01*
X-180372Y197439D01*
G37*
G36*
X-224412Y-203450D02*
X-226755Y-203450D01*
X-226755Y-186164D01*
X-218622Y-186164D01*
X-217913Y-186185D01*
X-217245Y-186246D01*
X-216619Y-186348D01*
X-216035Y-186491D01*
X-215492Y-186675D01*
X-214991Y-186899D01*
X-214531Y-187165D01*
X-214113Y-187471D01*
X-213741Y-187814D01*
X-213418Y-188188D01*
X-213145Y-188595D01*
X-212922Y-189034D01*
X-212748Y-189504D01*
X-212624Y-190007D01*
X-212580Y-190270D01*
X-212549Y-190542D01*
X-212531Y-190821D01*
X-212524Y-191108D01*
X-212542Y-191580D01*
X-212595Y-192033D01*
X-212682Y-192467D01*
X-212805Y-192881D01*
X-212963Y-193276D01*
X-213156Y-193652D01*
X-213384Y-194009D01*
X-213647Y-194347D01*
X-213941Y-194660D01*
X-214262Y-194943D01*
X-214609Y-195195D01*
X-214764Y-195288D01*
X-214983Y-195418D01*
X-215383Y-195609D01*
X-215810Y-195771D01*
X-216264Y-195902D01*
X-216745Y-196003D01*
X-214656Y-199173D01*
X-211837Y-203450D01*
X-214536Y-203450D01*
X-219027Y-196273D01*
X-224412Y-196273D01*
X-224412Y-203450D01*
G37*
%LPC*%
G36*
X-218757Y-194421D02*
X-218307Y-194407D01*
X-217883Y-194367D01*
X-217485Y-194299D01*
X-217114Y-194205D01*
X-216769Y-194083D01*
X-216451Y-193934D01*
X-216158Y-193759D01*
X-215892Y-193556D01*
X-215655Y-193329D01*
X-215449Y-193080D01*
X-215275Y-192810D01*
X-215133Y-192518D01*
X-215022Y-192204D01*
X-214943Y-191869D01*
X-214896Y-191512D01*
X-214880Y-191133D01*
X-214896Y-190767D01*
X-214944Y-190423D01*
X-215024Y-190102D01*
X-215136Y-189803D01*
X-215280Y-189527D01*
X-215456Y-189273D01*
X-215664Y-189042D01*
X-215904Y-188833D01*
X-216174Y-188647D01*
X-216473Y-188486D01*
X-216799Y-188350D01*
X-217154Y-188239D01*
X-217537Y-188153D01*
X-217948Y-188091D01*
X-218387Y-188054D01*
X-218855Y-188041D01*
X-224412Y-188041D01*
X-224412Y-194421D01*
X-218757Y-194421D01*
G37*
%LPD*%
G36*
X-115506Y-176780D02*
X-117849Y-176780D01*
X-117849Y-159494D01*
X-109715Y-159494D01*
X-109006Y-159515D01*
X-108339Y-159576D01*
X-107713Y-159678D01*
X-107128Y-159821D01*
X-106586Y-160005D01*
X-106084Y-160229D01*
X-105625Y-160495D01*
X-105207Y-160801D01*
X-104835Y-161144D01*
X-104512Y-161518D01*
X-104239Y-161925D01*
X-104015Y-162364D01*
X-103842Y-162834D01*
X-103717Y-163337D01*
X-103674Y-163600D01*
X-103643Y-163872D01*
X-103624Y-164151D01*
X-103618Y-164438D01*
X-103636Y-164910D01*
X-103688Y-165363D01*
X-103776Y-165797D01*
X-103899Y-166211D01*
X-104057Y-166606D01*
X-104250Y-166982D01*
X-104478Y-167339D01*
X-104741Y-167677D01*
X-105035Y-167990D01*
X-105355Y-168273D01*
X-105703Y-168525D01*
X-105858Y-168618D01*
X-106076Y-168748D01*
X-106477Y-168939D01*
X-106904Y-169101D01*
X-107358Y-169232D01*
X-107838Y-169333D01*
X-105749Y-172503D01*
X-102931Y-176780D01*
X-105630Y-176780D01*
X-110120Y-169603D01*
X-115506Y-169603D01*
X-115506Y-176780D01*
G37*
%LPC*%
G36*
X-109850Y-167751D02*
X-109400Y-167737D01*
X-108977Y-167697D01*
X-108579Y-167629D01*
X-108208Y-167535D01*
X-107863Y-167413D01*
X-107544Y-167264D01*
X-107252Y-167089D01*
X-106986Y-166886D01*
X-106749Y-166659D01*
X-106543Y-166410D01*
X-106369Y-166140D01*
X-106227Y-165848D01*
X-106116Y-165534D01*
X-106037Y-165199D01*
X-105989Y-164842D01*
X-105974Y-164463D01*
X-105990Y-164097D01*
X-106038Y-163753D01*
X-106118Y-163432D01*
X-106230Y-163133D01*
X-106374Y-162857D01*
X-106550Y-162603D01*
X-106758Y-162372D01*
X-106998Y-162163D01*
X-107268Y-161977D01*
X-107567Y-161816D01*
X-107893Y-161680D01*
X-108248Y-161569D01*
X-108631Y-161483D01*
X-109042Y-161421D01*
X-109481Y-161384D01*
X-109949Y-161371D01*
X-115506Y-161371D01*
X-115506Y-167751D01*
X-109850Y-167751D01*
G37*
%LPD*%
G36*
X-168854Y-203695D02*
X-169212Y-203688D01*
X-169558Y-203668D01*
X-169894Y-203633D01*
X-170219Y-203585D01*
X-170532Y-203522D01*
X-170834Y-203446D01*
X-171125Y-203356D01*
X-171405Y-203252D01*
X-171674Y-203134D01*
X-171932Y-203003D01*
X-172179Y-202857D01*
X-172415Y-202698D01*
X-172639Y-202525D01*
X-172852Y-202338D01*
X-173055Y-202137D01*
X-173246Y-201923D01*
X-173425Y-201695D01*
X-173594Y-201455D01*
X-173750Y-201202D01*
X-173895Y-200938D01*
X-174029Y-200661D01*
X-174150Y-200371D01*
X-174260Y-200070D01*
X-174359Y-199756D01*
X-174446Y-199430D01*
X-174521Y-199091D01*
X-174637Y-198377D01*
X-174707Y-197613D01*
X-174730Y-196801D01*
X-174707Y-195969D01*
X-174678Y-195573D01*
X-174637Y-195191D01*
X-174585Y-194822D01*
X-174521Y-194466D01*
X-174445Y-194124D01*
X-174358Y-193795D01*
X-174259Y-193480D01*
X-174149Y-193178D01*
X-174027Y-192889D01*
X-173893Y-192614D01*
X-173748Y-192353D01*
X-173591Y-192104D01*
X-173423Y-191870D01*
X-173243Y-191648D01*
X-173051Y-191440D01*
X-172848Y-191246D01*
X-172633Y-191064D01*
X-172406Y-190897D01*
X-172168Y-190742D01*
X-171918Y-190602D01*
X-171656Y-190474D01*
X-171383Y-190360D01*
X-171099Y-190259D01*
X-170802Y-190172D01*
X-170494Y-190098D01*
X-170175Y-190038D01*
X-169843Y-189991D01*
X-169501Y-189957D01*
X-169146Y-189937D01*
X-168780Y-189931D01*
X-168406Y-189937D01*
X-168045Y-189957D01*
X-167696Y-189989D01*
X-167359Y-190035D01*
X-167036Y-190094D01*
X-166724Y-190166D01*
X-166426Y-190251D01*
X-166139Y-190349D01*
X-165866Y-190460D01*
X-165605Y-190585D01*
X-165356Y-190722D01*
X-165120Y-190873D01*
X-164897Y-191036D01*
X-164686Y-191213D01*
X-164488Y-191402D01*
X-164302Y-191605D01*
X-164128Y-191822D01*
X-163966Y-192053D01*
X-163814Y-192298D01*
X-163674Y-192558D01*
X-163545Y-192832D01*
X-163428Y-193121D01*
X-163321Y-193424D01*
X-163226Y-193741D01*
X-163142Y-194073D01*
X-163069Y-194420D01*
X-162957Y-195156D01*
X-162889Y-195949D01*
X-162867Y-196801D01*
X-162873Y-197229D01*
X-162891Y-197644D01*
X-162921Y-198045D01*
X-162963Y-198432D01*
X-163017Y-198805D01*
X-163083Y-199164D01*
X-163160Y-199509D01*
X-163250Y-199840D01*
X-163352Y-200158D01*
X-163466Y-200461D01*
X-163592Y-200751D01*
X-163730Y-201026D01*
X-163879Y-201288D01*
X-164041Y-201536D01*
X-164215Y-201770D01*
X-164400Y-201990D01*
X-164598Y-202197D01*
X-164805Y-202390D01*
X-165024Y-202570D01*
X-165254Y-202736D01*
X-165494Y-202889D01*
X-165746Y-203029D01*
X-166008Y-203156D01*
X-166281Y-203269D01*
X-166564Y-203369D01*
X-166859Y-203456D01*
X-167164Y-203529D01*
X-167480Y-203589D01*
X-167808Y-203635D01*
X-168145Y-203669D01*
X-168494Y-203689D01*
X-168854Y-203695D01*
G37*
%LPC*%
G36*
X-168878Y-202064D02*
X-168399Y-202044D01*
X-167955Y-201984D01*
X-167547Y-201884D01*
X-167175Y-201745D01*
X-166837Y-201565D01*
X-166535Y-201346D01*
X-166269Y-201087D01*
X-166038Y-200788D01*
X-165838Y-200446D01*
X-165665Y-200060D01*
X-165519Y-199629D01*
X-165399Y-199153D01*
X-165305Y-198632D01*
X-165239Y-198067D01*
X-165199Y-197456D01*
X-165186Y-196801D01*
X-165198Y-196137D01*
X-165237Y-195521D01*
X-165300Y-194951D01*
X-165390Y-194428D01*
X-165504Y-193953D01*
X-165644Y-193524D01*
X-165810Y-193142D01*
X-166001Y-192807D01*
X-166223Y-192516D01*
X-166479Y-192263D01*
X-166769Y-192049D01*
X-167095Y-191874D01*
X-167455Y-191737D01*
X-167850Y-191640D01*
X-168279Y-191582D01*
X-168743Y-191562D01*
X-169211Y-191582D01*
X-169645Y-191642D01*
X-170046Y-191741D01*
X-170413Y-191880D01*
X-170747Y-192058D01*
X-171047Y-192277D01*
X-171314Y-192534D01*
X-171547Y-192832D01*
X-171749Y-193172D01*
X-171925Y-193556D01*
X-172074Y-193985D01*
X-172195Y-194459D01*
X-172290Y-194977D01*
X-172357Y-195541D01*
X-172398Y-196148D01*
X-172411Y-196801D01*
X-172398Y-197437D01*
X-172358Y-198032D01*
X-172292Y-198586D01*
X-172198Y-199099D01*
X-172078Y-199572D01*
X-171932Y-200004D01*
X-171759Y-200395D01*
X-171559Y-200745D01*
X-171330Y-201054D01*
X-171072Y-201322D01*
X-170782Y-201549D01*
X-170462Y-201734D01*
X-170112Y-201878D01*
X-169731Y-201981D01*
X-169320Y-202043D01*
X-168878Y-202064D01*
G37*
%LPD*%
G36*
X-185870Y-176780D02*
X-188299Y-176780D01*
X-181244Y-159494D01*
X-178582Y-159494D01*
X-171639Y-176780D01*
X-174031Y-176780D01*
X-176006Y-171726D01*
X-183882Y-171726D01*
X-185870Y-176780D01*
G37*
%LPC*%
G36*
X-176705Y-169898D02*
X-178926Y-164193D01*
X-179269Y-163291D01*
X-179613Y-162279D01*
X-179944Y-161261D01*
X-180054Y-161604D01*
X-180435Y-162767D01*
X-180962Y-164218D01*
X-183171Y-169898D01*
X-176705Y-169898D01*
G37*
%LPD*%
G36*
X-99307Y-176780D02*
X-101736Y-176780D01*
X-94682Y-159494D01*
X-92020Y-159494D01*
X-85076Y-176780D01*
X-87468Y-176780D01*
X-89444Y-171726D01*
X-97320Y-171726D01*
X-99307Y-176780D01*
G37*
%LPC*%
G36*
X-90143Y-169898D02*
X-92363Y-164193D01*
X-92707Y-163291D01*
X-93050Y-162279D01*
X-93382Y-161261D01*
X-93492Y-161604D01*
X-93872Y-162767D01*
X-94400Y-164218D01*
X-96608Y-169898D01*
X-90143Y-169898D01*
G37*
%LPD*%
G36*
X-136467Y-177025D02*
X-137134Y-177008D01*
X-137776Y-176958D01*
X-138396Y-176874D01*
X-138992Y-176755D01*
X-139564Y-176604D01*
X-140113Y-176418D01*
X-140639Y-176199D01*
X-141142Y-175946D01*
X-141618Y-175661D01*
X-142065Y-175347D01*
X-142484Y-175002D01*
X-142873Y-174629D01*
X-143233Y-174225D01*
X-143565Y-173792D01*
X-143868Y-173329D01*
X-144141Y-172836D01*
X-144384Y-172317D01*
X-144595Y-171776D01*
X-144773Y-171212D01*
X-144919Y-170626D01*
X-145032Y-170018D01*
X-145113Y-169387D01*
X-145162Y-168733D01*
X-145178Y-168057D01*
X-145169Y-167539D01*
X-145143Y-167035D01*
X-145098Y-166546D01*
X-145037Y-166072D01*
X-144957Y-165613D01*
X-144860Y-165169D01*
X-144746Y-164739D01*
X-144613Y-164325D01*
X-144464Y-163925D01*
X-144296Y-163540D01*
X-144111Y-163170D01*
X-143908Y-162815D01*
X-143688Y-162475D01*
X-143450Y-162149D01*
X-143194Y-161839D01*
X-142921Y-161543D01*
X-142631Y-161264D01*
X-142328Y-161003D01*
X-142010Y-160759D01*
X-141678Y-160534D01*
X-141331Y-160327D01*
X-140970Y-160138D01*
X-140595Y-159966D01*
X-140206Y-159813D01*
X-139803Y-159678D01*
X-139385Y-159561D01*
X-138953Y-159462D01*
X-138506Y-159381D01*
X-138046Y-159318D01*
X-137571Y-159273D01*
X-137081Y-159246D01*
X-136578Y-159237D01*
X-135877Y-159252D01*
X-135210Y-159297D01*
X-134577Y-159373D01*
X-133977Y-159479D01*
X-133411Y-159615D01*
X-132879Y-159782D01*
X-132381Y-159979D01*
X-131916Y-160206D01*
X-131481Y-160466D01*
X-131072Y-160763D01*
X-130688Y-161097D01*
X-130330Y-161466D01*
X-129998Y-161873D01*
X-129692Y-162315D01*
X-129411Y-162794D01*
X-129156Y-163310D01*
X-131389Y-163972D01*
X-131581Y-163617D01*
X-131791Y-163286D01*
X-132019Y-162980D01*
X-132264Y-162699D01*
X-132527Y-162443D01*
X-132807Y-162212D01*
X-133104Y-162006D01*
X-133419Y-161825D01*
X-133752Y-161667D01*
X-134106Y-161530D01*
X-134478Y-161414D01*
X-134871Y-161319D01*
X-135284Y-161245D01*
X-135716Y-161193D01*
X-136168Y-161161D01*
X-136639Y-161151D01*
X-137008Y-161158D01*
X-137366Y-161179D01*
X-137712Y-161214D01*
X-138048Y-161264D01*
X-138372Y-161327D01*
X-138686Y-161405D01*
X-138988Y-161497D01*
X-139280Y-161603D01*
X-139560Y-161723D01*
X-139830Y-161857D01*
X-140088Y-162006D01*
X-140336Y-162168D01*
X-140572Y-162345D01*
X-140798Y-162536D01*
X-141012Y-162741D01*
X-141215Y-162960D01*
X-141407Y-163192D01*
X-141586Y-163436D01*
X-141753Y-163691D01*
X-141908Y-163957D01*
X-142050Y-164235D01*
X-142180Y-164525D01*
X-142297Y-164826D01*
X-142402Y-165139D01*
X-142495Y-165464D01*
X-142575Y-165799D01*
X-142643Y-166147D01*
X-142699Y-166506D01*
X-142742Y-166876D01*
X-142773Y-167259D01*
X-142792Y-167652D01*
X-142798Y-168057D01*
X-142791Y-168461D01*
X-142772Y-168855D01*
X-142739Y-169237D01*
X-142693Y-169609D01*
X-142634Y-169970D01*
X-142561Y-170320D01*
X-142476Y-170659D01*
X-142378Y-170988D01*
X-142266Y-171306D01*
X-142141Y-171613D01*
X-142003Y-171909D01*
X-141852Y-172194D01*
X-141688Y-172469D01*
X-141511Y-172733D01*
X-141321Y-172986D01*
X-141117Y-173228D01*
X-140902Y-173458D01*
X-140677Y-173673D01*
X-140442Y-173873D01*
X-140196Y-174058D01*
X-139941Y-174228D01*
X-139675Y-174383D01*
X-139400Y-174524D01*
X-139114Y-174650D01*
X-138819Y-174761D01*
X-138513Y-174857D01*
X-138197Y-174939D01*
X-137871Y-175005D01*
X-137536Y-175057D01*
X-137190Y-175094D01*
X-136834Y-175116D01*
X-136467Y-175124D01*
X-136048Y-175116D01*
X-135635Y-175092D01*
X-135230Y-175051D01*
X-134831Y-174995D01*
X-134440Y-174923D01*
X-134056Y-174834D01*
X-133679Y-174729D01*
X-133308Y-174609D01*
X-132951Y-174474D01*
X-132610Y-174328D01*
X-132287Y-174170D01*
X-131982Y-174001D01*
X-131694Y-173821D01*
X-131423Y-173629D01*
X-131170Y-173425D01*
X-130935Y-173210D01*
X-130935Y-170094D01*
X-136099Y-170094D01*
X-136099Y-168131D01*
X-128775Y-168131D01*
X-128775Y-174093D01*
X-129129Y-174433D01*
X-129501Y-174753D01*
X-129893Y-175053D01*
X-130304Y-175334D01*
X-130735Y-175595D01*
X-131185Y-175836D01*
X-131654Y-176057D01*
X-132143Y-176259D01*
X-132647Y-176438D01*
X-133161Y-176594D01*
X-133686Y-176726D01*
X-134221Y-176834D01*
X-134767Y-176918D01*
X-135323Y-176977D01*
X-135890Y-177013D01*
X-136467Y-177025D01*
G37*
G36*
X-192785Y-203450D02*
X-194981Y-203450D01*
X-194981Y-193010D01*
X-194999Y-191142D01*
X-195022Y-190546D01*
X-195054Y-190176D01*
X-192969Y-190176D01*
X-192944Y-190507D01*
X-192913Y-191127D01*
X-192871Y-192446D01*
X-192834Y-192446D01*
X-192653Y-192106D01*
X-192465Y-191794D01*
X-192271Y-191508D01*
X-192070Y-191249D01*
X-191863Y-191017D01*
X-191649Y-190812D01*
X-191429Y-190634D01*
X-191202Y-190483D01*
X-190966Y-190353D01*
X-190717Y-190241D01*
X-190455Y-190146D01*
X-190181Y-190069D01*
X-189894Y-190008D01*
X-189594Y-189965D01*
X-189282Y-189939D01*
X-188957Y-189931D01*
X-188590Y-189940D01*
X-188242Y-189968D01*
X-187914Y-190015D01*
X-187606Y-190081D01*
X-187318Y-190165D01*
X-187049Y-190269D01*
X-186800Y-190391D01*
X-186571Y-190532D01*
X-186360Y-190693D01*
X-186166Y-190877D01*
X-185988Y-191083D01*
X-185827Y-191311D01*
X-185683Y-191561D01*
X-185555Y-191834D01*
X-185444Y-192129D01*
X-185350Y-192446D01*
X-185313Y-192446D01*
X-185137Y-192123D01*
X-184952Y-191824D01*
X-184758Y-191548D01*
X-184554Y-191295D01*
X-184342Y-191066D01*
X-184121Y-190861D01*
X-183890Y-190678D01*
X-183651Y-190519D01*
X-183401Y-190381D01*
X-183138Y-190262D01*
X-182862Y-190161D01*
X-182573Y-190078D01*
X-182271Y-190013D01*
X-181957Y-189967D01*
X-181630Y-189940D01*
X-181289Y-189931D01*
X-180804Y-189948D01*
X-180352Y-189999D01*
X-179935Y-190084D01*
X-179552Y-190204D01*
X-179203Y-190357D01*
X-178889Y-190545D01*
X-178609Y-190767D01*
X-178364Y-191022D01*
X-178149Y-191317D01*
X-177964Y-191656D01*
X-177807Y-192038D01*
X-177678Y-192464D01*
X-177578Y-192934D01*
X-177507Y-193447D01*
X-177464Y-194004D01*
X-177450Y-194605D01*
X-177450Y-203450D01*
X-179633Y-203450D01*
X-179633Y-195034D01*
X-179642Y-194571D01*
X-179666Y-194145D01*
X-179707Y-193757D01*
X-179765Y-193406D01*
X-179839Y-193091D01*
X-179930Y-192814D01*
X-180037Y-192575D01*
X-180161Y-192372D01*
X-180306Y-192199D01*
X-180477Y-192050D01*
X-180675Y-191923D01*
X-180900Y-191820D01*
X-181151Y-191739D01*
X-181428Y-191682D01*
X-181732Y-191647D01*
X-182062Y-191636D01*
X-182414Y-191653D01*
X-182746Y-191703D01*
X-183057Y-191787D01*
X-183349Y-191904D01*
X-183620Y-192055D01*
X-183872Y-192240D01*
X-184103Y-192458D01*
X-184314Y-192709D01*
X-184502Y-192992D01*
X-184665Y-193302D01*
X-184803Y-193641D01*
X-184916Y-194008D01*
X-185004Y-194403D01*
X-185067Y-194827D01*
X-185105Y-195278D01*
X-185117Y-195758D01*
X-185117Y-203450D01*
X-187301Y-203450D01*
X-187301Y-195034D01*
X-187309Y-194571D01*
X-187334Y-194145D01*
X-187375Y-193757D01*
X-187433Y-193406D01*
X-187507Y-193091D01*
X-187598Y-192814D01*
X-187705Y-192575D01*
X-187828Y-192372D01*
X-187973Y-192199D01*
X-188145Y-192050D01*
X-188343Y-191923D01*
X-188567Y-191820D01*
X-188818Y-191739D01*
X-189096Y-191682D01*
X-189400Y-191647D01*
X-189730Y-191636D01*
X-190073Y-191653D01*
X-190398Y-191703D01*
X-190705Y-191788D01*
X-190994Y-191906D01*
X-191263Y-192058D01*
X-191515Y-192243D01*
X-191748Y-192462D01*
X-191963Y-192715D01*
X-192155Y-192999D01*
X-192322Y-193310D01*
X-192464Y-193649D01*
X-192579Y-194016D01*
X-192669Y-194410D01*
X-192733Y-194832D01*
X-192772Y-195281D01*
X-192785Y-195758D01*
X-192785Y-203450D01*
G37*
G36*
X-189419Y-176780D02*
X-203037Y-176780D01*
X-203037Y-159494D01*
X-189922Y-159494D01*
X-189922Y-161408D01*
X-200693Y-161408D01*
X-200693Y-166953D01*
X-190658Y-166953D01*
X-190658Y-168843D01*
X-200693Y-168843D01*
X-200693Y-174866D01*
X-189419Y-174866D01*
X-189419Y-176780D01*
G37*
G36*
X-203600Y-203695D02*
X-203963Y-203689D01*
X-204315Y-203668D01*
X-204655Y-203634D01*
X-204985Y-203586D01*
X-205304Y-203524D01*
X-205611Y-203449D01*
X-205908Y-203360D01*
X-206194Y-203257D01*
X-206468Y-203140D01*
X-206732Y-203010D01*
X-206985Y-202866D01*
X-207227Y-202709D01*
X-207458Y-202537D01*
X-207678Y-202352D01*
X-207887Y-202153D01*
X-208084Y-201941D01*
X-208271Y-201715D01*
X-208445Y-201476D01*
X-208608Y-201223D01*
X-208758Y-200957D01*
X-208896Y-200678D01*
X-209023Y-200386D01*
X-209137Y-200080D01*
X-209239Y-199760D01*
X-209329Y-199428D01*
X-209408Y-199082D01*
X-209474Y-198723D01*
X-209528Y-198350D01*
X-209570Y-197965D01*
X-209600Y-197565D01*
X-209618Y-197153D01*
X-209624Y-196727D01*
X-209618Y-196322D01*
X-209600Y-195929D01*
X-209570Y-195548D01*
X-209528Y-195179D01*
X-209474Y-194822D01*
X-209408Y-194477D01*
X-209329Y-194144D01*
X-209239Y-193823D01*
X-209137Y-193514D01*
X-209023Y-193216D01*
X-208896Y-192931D01*
X-208758Y-192658D01*
X-208608Y-192397D01*
X-208445Y-192148D01*
X-208271Y-191910D01*
X-208084Y-191685D01*
X-207887Y-191473D01*
X-207679Y-191274D01*
X-207461Y-191089D01*
X-207232Y-190917D01*
X-206993Y-190760D01*
X-206744Y-190616D01*
X-206485Y-190486D01*
X-206215Y-190369D01*
X-205935Y-190266D01*
X-205645Y-190177D01*
X-205344Y-190102D01*
X-205033Y-190040D01*
X-204712Y-189992D01*
X-204380Y-189958D01*
X-204039Y-189937D01*
X-203686Y-189931D01*
X-203326Y-189938D01*
X-202978Y-189958D01*
X-202641Y-189993D01*
X-202315Y-190041D01*
X-202001Y-190103D01*
X-201698Y-190179D01*
X-201406Y-190268D01*
X-201126Y-190372D01*
X-200858Y-190489D01*
X-200600Y-190620D01*
X-200355Y-190764D01*
X-200120Y-190923D01*
X-199898Y-191095D01*
X-199686Y-191281D01*
X-199486Y-191481D01*
X-199297Y-191694D01*
X-199120Y-191921D01*
X-198955Y-192163D01*
X-198800Y-192417D01*
X-198657Y-192686D01*
X-198526Y-192969D01*
X-198406Y-193265D01*
X-198297Y-193575D01*
X-198200Y-193899D01*
X-198115Y-194236D01*
X-198040Y-194587D01*
X-197977Y-194953D01*
X-197926Y-195331D01*
X-197857Y-196131D01*
X-197835Y-196985D01*
X-197835Y-197279D01*
X-207305Y-197279D01*
X-207291Y-197833D01*
X-207246Y-198355D01*
X-207173Y-198844D01*
X-207069Y-199300D01*
X-206936Y-199724D01*
X-206774Y-200115D01*
X-206582Y-200474D01*
X-206361Y-200800D01*
X-206111Y-201091D01*
X-205834Y-201342D01*
X-205530Y-201555D01*
X-205198Y-201729D01*
X-204840Y-201865D01*
X-204454Y-201962D01*
X-204041Y-202020D01*
X-203600Y-202039D01*
X-203251Y-202030D01*
X-202918Y-202003D01*
X-202604Y-201958D01*
X-202308Y-201895D01*
X-202029Y-201814D01*
X-201768Y-201715D01*
X-201525Y-201598D01*
X-201300Y-201463D01*
X-201093Y-201314D01*
X-200903Y-201155D01*
X-200730Y-200987D01*
X-200575Y-200809D01*
X-200437Y-200622D01*
X-200317Y-200425D01*
X-200214Y-200219D01*
X-200129Y-200003D01*
X-198190Y-200555D01*
X-198351Y-200935D01*
X-198535Y-201291D01*
X-198743Y-201622D01*
X-198975Y-201929D01*
X-199230Y-202211D01*
X-199509Y-202469D01*
X-199812Y-202702D01*
X-200138Y-202910D01*
X-200488Y-203094D01*
X-200861Y-203254D01*
X-201259Y-203389D01*
X-201680Y-203499D01*
X-202124Y-203585D01*
X-202593Y-203646D01*
X-203085Y-203683D01*
X-203600Y-203695D01*
G37*
%LPC*%
G36*
X-200116Y-195586D02*
X-200173Y-195079D01*
X-200252Y-194608D01*
X-200353Y-194172D01*
X-200475Y-193772D01*
X-200620Y-193407D01*
X-200786Y-193078D01*
X-200974Y-192784D01*
X-201184Y-192525D01*
X-201417Y-192300D01*
X-201674Y-192104D01*
X-201955Y-191938D01*
X-202260Y-191803D01*
X-202590Y-191698D01*
X-202943Y-191622D01*
X-203321Y-191577D01*
X-203723Y-191562D01*
X-204115Y-191579D01*
X-204485Y-191629D01*
X-204834Y-191713D01*
X-205163Y-191831D01*
X-205471Y-191982D01*
X-205758Y-192166D01*
X-206024Y-192384D01*
X-206269Y-192636D01*
X-206490Y-192917D01*
X-206684Y-193223D01*
X-206851Y-193554D01*
X-206991Y-193910D01*
X-207104Y-194291D01*
X-207190Y-194698D01*
X-207249Y-195130D01*
X-207281Y-195586D01*
X-200116Y-195586D01*
G37*
%LPD*%
G36*
X-147725Y-203695D02*
X-148088Y-203689D01*
X-148440Y-203668D01*
X-148780Y-203634D01*
X-149110Y-203586D01*
X-149429Y-203524D01*
X-149736Y-203449D01*
X-150033Y-203360D01*
X-150319Y-203257D01*
X-150593Y-203140D01*
X-150857Y-203010D01*
X-151110Y-202866D01*
X-151352Y-202709D01*
X-151583Y-202537D01*
X-151803Y-202352D01*
X-152012Y-202153D01*
X-152209Y-201941D01*
X-152396Y-201715D01*
X-152570Y-201476D01*
X-152733Y-201223D01*
X-152883Y-200957D01*
X-153021Y-200678D01*
X-153148Y-200386D01*
X-153262Y-200080D01*
X-153364Y-199760D01*
X-153454Y-199428D01*
X-153533Y-199082D01*
X-153599Y-198723D01*
X-153653Y-198350D01*
X-153695Y-197965D01*
X-153725Y-197565D01*
X-153743Y-197153D01*
X-153749Y-196727D01*
X-153743Y-196322D01*
X-153725Y-195929D01*
X-153695Y-195548D01*
X-153653Y-195179D01*
X-153599Y-194822D01*
X-153533Y-194477D01*
X-153454Y-194144D01*
X-153364Y-193823D01*
X-153262Y-193514D01*
X-153148Y-193216D01*
X-153021Y-192931D01*
X-152883Y-192658D01*
X-152733Y-192397D01*
X-152570Y-192148D01*
X-152396Y-191910D01*
X-152209Y-191685D01*
X-152012Y-191473D01*
X-151804Y-191274D01*
X-151586Y-191089D01*
X-151357Y-190917D01*
X-151118Y-190760D01*
X-150869Y-190616D01*
X-150610Y-190486D01*
X-150340Y-190369D01*
X-150060Y-190266D01*
X-149770Y-190177D01*
X-149469Y-190102D01*
X-149158Y-190040D01*
X-148837Y-189992D01*
X-148505Y-189958D01*
X-148164Y-189937D01*
X-147811Y-189931D01*
X-147451Y-189938D01*
X-147103Y-189958D01*
X-146766Y-189993D01*
X-146440Y-190041D01*
X-146126Y-190103D01*
X-145823Y-190179D01*
X-145531Y-190268D01*
X-145251Y-190372D01*
X-144983Y-190489D01*
X-144725Y-190620D01*
X-144480Y-190764D01*
X-144245Y-190923D01*
X-144023Y-191095D01*
X-143811Y-191281D01*
X-143611Y-191481D01*
X-143422Y-191694D01*
X-143245Y-191921D01*
X-143080Y-192163D01*
X-142925Y-192417D01*
X-142782Y-192686D01*
X-142651Y-192969D01*
X-142531Y-193265D01*
X-142422Y-193575D01*
X-142325Y-193899D01*
X-142240Y-194236D01*
X-142165Y-194587D01*
X-142102Y-194953D01*
X-142051Y-195331D01*
X-141982Y-196131D01*
X-141960Y-196985D01*
X-141960Y-197279D01*
X-151430Y-197279D01*
X-151416Y-197833D01*
X-151371Y-198355D01*
X-151298Y-198844D01*
X-151194Y-199300D01*
X-151061Y-199724D01*
X-150899Y-200115D01*
X-150707Y-200474D01*
X-150486Y-200800D01*
X-150236Y-201091D01*
X-149959Y-201342D01*
X-149655Y-201555D01*
X-149323Y-201729D01*
X-148965Y-201865D01*
X-148579Y-201962D01*
X-148166Y-202020D01*
X-147725Y-202039D01*
X-147376Y-202030D01*
X-147043Y-202003D01*
X-146729Y-201958D01*
X-146433Y-201895D01*
X-146154Y-201814D01*
X-145893Y-201715D01*
X-145650Y-201598D01*
X-145425Y-201463D01*
X-145218Y-201314D01*
X-145028Y-201155D01*
X-144855Y-200987D01*
X-144700Y-200809D01*
X-144562Y-200622D01*
X-144442Y-200425D01*
X-144339Y-200219D01*
X-144254Y-200003D01*
X-142315Y-200555D01*
X-142476Y-200935D01*
X-142660Y-201291D01*
X-142868Y-201622D01*
X-143100Y-201929D01*
X-143355Y-202211D01*
X-143634Y-202469D01*
X-143937Y-202702D01*
X-144263Y-202910D01*
X-144613Y-203094D01*
X-144986Y-203254D01*
X-145384Y-203389D01*
X-145805Y-203499D01*
X-146249Y-203585D01*
X-146718Y-203646D01*
X-147210Y-203683D01*
X-147725Y-203695D01*
G37*
%LPC*%
G36*
X-144241Y-195586D02*
X-144298Y-195079D01*
X-144377Y-194608D01*
X-144478Y-194172D01*
X-144600Y-193772D01*
X-144745Y-193407D01*
X-144911Y-193078D01*
X-145099Y-192784D01*
X-145309Y-192525D01*
X-145542Y-192300D01*
X-145799Y-192104D01*
X-146080Y-191938D01*
X-146385Y-191803D01*
X-146715Y-191698D01*
X-147068Y-191622D01*
X-147446Y-191577D01*
X-147848Y-191562D01*
X-148240Y-191579D01*
X-148610Y-191629D01*
X-148959Y-191713D01*
X-149288Y-191831D01*
X-149596Y-191982D01*
X-149883Y-192166D01*
X-150149Y-192384D01*
X-150394Y-192636D01*
X-150615Y-192917D01*
X-150809Y-193223D01*
X-150976Y-193554D01*
X-151116Y-193910D01*
X-151229Y-194291D01*
X-151315Y-194698D01*
X-151374Y-195130D01*
X-151406Y-195586D01*
X-144241Y-195586D01*
G37*
%LPD*%
G36*
X-217443Y-176780D02*
X-219787Y-176780D01*
X-219787Y-159494D01*
X-217443Y-159494D01*
X-217443Y-168156D01*
X-209113Y-159494D01*
X-206353Y-159494D01*
X-213714Y-167002D01*
X-205372Y-176780D01*
X-208279Y-176780D01*
X-215186Y-168438D01*
X-217443Y-170155D01*
X-217443Y-176780D01*
G37*
G36*
X-108607Y-203450D02*
X-120053Y-203450D01*
X-120053Y-201892D01*
X-119723Y-201195D01*
X-119358Y-200541D01*
X-118959Y-199929D01*
X-118525Y-199359D01*
X-118069Y-198823D01*
X-117601Y-198313D01*
X-117121Y-197829D01*
X-116630Y-197371D01*
X-115641Y-196514D01*
X-114661Y-195721D01*
X-113733Y-194961D01*
X-112901Y-194200D01*
X-112527Y-193815D01*
X-112191Y-193421D01*
X-111892Y-193018D01*
X-111631Y-192605D01*
X-111517Y-192393D01*
X-111419Y-192174D01*
X-111336Y-191948D01*
X-111267Y-191716D01*
X-111214Y-191476D01*
X-111176Y-191230D01*
X-111154Y-190976D01*
X-111146Y-190716D01*
X-111159Y-190370D01*
X-111198Y-190044D01*
X-111264Y-189738D01*
X-111355Y-189452D01*
X-111472Y-189186D01*
X-111615Y-188940D01*
X-111785Y-188714D01*
X-111980Y-188508D01*
X-112199Y-188324D01*
X-112438Y-188164D01*
X-112698Y-188029D01*
X-112977Y-187919D01*
X-113277Y-187833D01*
X-113598Y-187771D01*
X-113938Y-187735D01*
X-114299Y-187722D01*
X-114644Y-187734D01*
X-114973Y-187770D01*
X-115287Y-187830D01*
X-115586Y-187914D01*
X-115869Y-188022D01*
X-116136Y-188154D01*
X-116388Y-188309D01*
X-116624Y-188489D01*
X-116841Y-188690D01*
X-117034Y-188911D01*
X-117203Y-189151D01*
X-117349Y-189411D01*
X-117472Y-189690D01*
X-117570Y-189988D01*
X-117646Y-190305D01*
X-117697Y-190642D01*
X-119955Y-190434D01*
X-119874Y-189929D01*
X-119753Y-189450D01*
X-119592Y-188998D01*
X-119392Y-188572D01*
X-119152Y-188173D01*
X-118872Y-187800D01*
X-118553Y-187453D01*
X-118194Y-187134D01*
X-117802Y-186846D01*
X-117383Y-186597D01*
X-116936Y-186386D01*
X-116463Y-186213D01*
X-115962Y-186079D01*
X-115435Y-185983D01*
X-114881Y-185926D01*
X-114299Y-185907D01*
X-113665Y-185926D01*
X-113068Y-185984D01*
X-112509Y-186080D01*
X-111988Y-186215D01*
X-111505Y-186388D01*
X-111059Y-186600D01*
X-110651Y-186851D01*
X-110281Y-187140D01*
X-109952Y-187464D01*
X-109667Y-187821D01*
X-109425Y-188210D01*
X-109228Y-188632D01*
X-109074Y-189086D01*
X-108964Y-189572D01*
X-108899Y-190091D01*
X-108877Y-190642D01*
X-108884Y-190893D01*
X-108905Y-191144D01*
X-108941Y-191395D01*
X-108992Y-191645D01*
X-109135Y-192144D01*
X-109337Y-192642D01*
X-109595Y-193139D01*
X-109909Y-193636D01*
X-110279Y-194132D01*
X-110705Y-194629D01*
X-111262Y-195194D01*
X-112026Y-195896D01*
X-112998Y-196734D01*
X-114176Y-197709D01*
X-114846Y-198271D01*
X-115443Y-198805D01*
X-115968Y-199311D01*
X-116421Y-199788D01*
X-116809Y-200247D01*
X-117139Y-200697D01*
X-117411Y-201139D01*
X-117624Y-201573D01*
X-108607Y-201573D01*
X-108607Y-203450D01*
G37*
G36*
X-163311Y-176780D02*
X-165691Y-176780D01*
X-160967Y-169959D01*
X-165470Y-163506D01*
X-163028Y-163506D01*
X-159716Y-168671D01*
X-156428Y-163506D01*
X-153962Y-163506D01*
X-158465Y-169934D01*
X-153680Y-176780D01*
X-156146Y-176780D01*
X-159716Y-171333D01*
X-163311Y-176780D01*
G37*
G36*
X-126359Y-203450D02*
X-128972Y-203450D01*
X-133793Y-190176D01*
X-131438Y-190176D01*
X-128518Y-198813D01*
X-128226Y-199785D01*
X-127671Y-201720D01*
X-127242Y-200285D01*
X-126763Y-198837D01*
X-123746Y-190176D01*
X-121402Y-190176D01*
X-126359Y-203450D01*
G37*
G36*
X-157253Y-203646D02*
X-157574Y-203635D01*
X-157874Y-203599D01*
X-158153Y-203541D01*
X-158412Y-203458D01*
X-158650Y-203353D01*
X-158868Y-203224D01*
X-159064Y-203071D01*
X-159240Y-202895D01*
X-159395Y-202695D01*
X-159530Y-202472D01*
X-159644Y-202226D01*
X-159737Y-201956D01*
X-159809Y-201662D01*
X-159861Y-201345D01*
X-159892Y-201005D01*
X-159903Y-200641D01*
X-159903Y-191783D01*
X-161436Y-191783D01*
X-161436Y-190176D01*
X-159817Y-190176D01*
X-159167Y-187207D01*
X-157694Y-187207D01*
X-157694Y-190176D01*
X-155241Y-190176D01*
X-155241Y-191783D01*
X-157694Y-191783D01*
X-157694Y-200162D01*
X-157675Y-200605D01*
X-157616Y-200976D01*
X-157572Y-201135D01*
X-157518Y-201277D01*
X-157455Y-201400D01*
X-157382Y-201506D01*
X-157296Y-201596D01*
X-157196Y-201675D01*
X-157082Y-201741D01*
X-156954Y-201795D01*
X-156811Y-201838D01*
X-156653Y-201868D01*
X-156482Y-201886D01*
X-156296Y-201892D01*
X-156050Y-201881D01*
X-155756Y-201849D01*
X-155020Y-201720D01*
X-155020Y-203352D01*
X-155569Y-203481D01*
X-156124Y-203573D01*
X-156685Y-203628D01*
X-157253Y-203646D01*
G37*
G36*
X-224155Y-176780D02*
X-226498Y-176780D01*
X-226498Y-159494D01*
X-224155Y-159494D01*
X-224155Y-176780D01*
G37*
G36*
X-122248Y-176780D02*
X-124592Y-176780D01*
X-124592Y-159494D01*
X-122248Y-159494D01*
X-122248Y-176780D01*
G37*
G36*
X-219418Y-230300D02*
X-219831Y-230281D01*
X-220207Y-230222D01*
X-220547Y-230125D01*
X-220851Y-229988D01*
X-221123Y-229809D01*
X-221368Y-229581D01*
X-221587Y-229306D01*
X-221779Y-228983D01*
X-221793Y-228983D01*
X-221821Y-229645D01*
X-221863Y-230160D01*
X-223081Y-230160D01*
X-223050Y-229580D01*
X-223039Y-228598D01*
X-223039Y-219766D01*
X-221779Y-219766D01*
X-221779Y-222729D01*
X-221807Y-223801D01*
X-221779Y-223801D01*
X-221589Y-223462D01*
X-221372Y-223176D01*
X-221125Y-222940D01*
X-220851Y-222757D01*
X-220544Y-222619D01*
X-220204Y-222521D01*
X-219828Y-222462D01*
X-219418Y-222442D01*
X-219071Y-222457D01*
X-218748Y-222502D01*
X-218448Y-222578D01*
X-218173Y-222683D01*
X-217921Y-222819D01*
X-217692Y-222986D01*
X-217488Y-223182D01*
X-217307Y-223408D01*
X-217148Y-223666D01*
X-217011Y-223954D01*
X-216895Y-224273D01*
X-216800Y-224624D01*
X-216726Y-225005D01*
X-216673Y-225418D01*
X-216641Y-225861D01*
X-216631Y-226336D01*
X-216642Y-226816D01*
X-216674Y-227265D01*
X-216729Y-227683D01*
X-216805Y-228070D01*
X-216903Y-228426D01*
X-217023Y-228752D01*
X-217164Y-229046D01*
X-217328Y-229309D01*
X-217513Y-229541D01*
X-217720Y-229743D01*
X-217948Y-229913D01*
X-218199Y-230052D01*
X-218471Y-230161D01*
X-218765Y-230238D01*
X-219081Y-230285D01*
X-219418Y-230300D01*
G37*
%LPC*%
G36*
X-219755Y-229369D02*
X-219525Y-229358D01*
X-219311Y-229325D01*
X-219115Y-229270D01*
X-218934Y-229193D01*
X-218770Y-229094D01*
X-218623Y-228973D01*
X-218493Y-228830D01*
X-218378Y-228665D01*
X-218279Y-228475D01*
X-218193Y-228258D01*
X-218120Y-228013D01*
X-218061Y-227741D01*
X-218014Y-227442D01*
X-217981Y-227114D01*
X-217961Y-226760D01*
X-217955Y-226378D01*
X-217961Y-225995D01*
X-217981Y-225640D01*
X-218014Y-225313D01*
X-218060Y-225014D01*
X-218119Y-224744D01*
X-218191Y-224501D01*
X-218276Y-224287D01*
X-218375Y-224102D01*
X-218488Y-223941D01*
X-218618Y-223801D01*
X-218764Y-223684D01*
X-218926Y-223587D01*
X-219105Y-223512D01*
X-219301Y-223458D01*
X-219512Y-223426D01*
X-219741Y-223415D01*
X-219998Y-223427D01*
X-220237Y-223461D01*
X-220458Y-223518D01*
X-220661Y-223597D01*
X-220846Y-223700D01*
X-221012Y-223825D01*
X-221161Y-223973D01*
X-221292Y-224144D01*
X-221406Y-224339D01*
X-221505Y-224561D01*
X-221589Y-224810D01*
X-221657Y-225086D01*
X-221710Y-225388D01*
X-221748Y-225717D01*
X-221771Y-226073D01*
X-221779Y-226455D01*
X-221771Y-226816D01*
X-221749Y-227152D01*
X-221712Y-227464D01*
X-221660Y-227752D01*
X-221593Y-228015D01*
X-221511Y-228253D01*
X-221414Y-228468D01*
X-221302Y-228658D01*
X-221174Y-228824D01*
X-221027Y-228969D01*
X-220862Y-229091D01*
X-220677Y-229191D01*
X-220475Y-229269D01*
X-220253Y-229324D01*
X-220013Y-229357D01*
X-219755Y-229369D01*
G37*
%LPD*%
G36*
X-199187Y-230300D02*
X-199567Y-230290D01*
X-199934Y-230262D01*
X-200288Y-230213D01*
X-200628Y-230146D01*
X-200955Y-230059D01*
X-201268Y-229953D01*
X-201568Y-229828D01*
X-201855Y-229684D01*
X-202127Y-229521D01*
X-202382Y-229342D01*
X-202621Y-229145D01*
X-202844Y-228932D01*
X-203049Y-228701D01*
X-203239Y-228454D01*
X-203411Y-228190D01*
X-203568Y-227908D01*
X-203706Y-227612D01*
X-203827Y-227303D01*
X-203928Y-226981D01*
X-204012Y-226647D01*
X-204076Y-226299D01*
X-204122Y-225939D01*
X-204150Y-225566D01*
X-204159Y-225180D01*
X-204139Y-224597D01*
X-204079Y-224047D01*
X-203978Y-223531D01*
X-203837Y-223049D01*
X-203656Y-222602D01*
X-203435Y-222188D01*
X-203173Y-221807D01*
X-202871Y-221461D01*
X-202532Y-221153D01*
X-202161Y-220885D01*
X-201758Y-220659D01*
X-201321Y-220474D01*
X-200852Y-220330D01*
X-200351Y-220227D01*
X-199817Y-220165D01*
X-199250Y-220145D01*
X-198850Y-220153D01*
X-198469Y-220179D01*
X-198107Y-220222D01*
X-197765Y-220283D01*
X-197442Y-220361D01*
X-197138Y-220456D01*
X-196854Y-220568D01*
X-196588Y-220698D01*
X-196340Y-220847D01*
X-196106Y-221016D01*
X-195887Y-221206D01*
X-195683Y-221418D01*
X-195494Y-221649D01*
X-195319Y-221902D01*
X-195158Y-222176D01*
X-195013Y-222470D01*
X-196287Y-222848D01*
X-196517Y-222456D01*
X-196647Y-222282D01*
X-196787Y-222121D01*
X-196937Y-221975D01*
X-197097Y-221843D01*
X-197267Y-221726D01*
X-197446Y-221622D01*
X-197637Y-221532D01*
X-197838Y-221454D01*
X-198051Y-221388D01*
X-198275Y-221334D01*
X-198511Y-221291D01*
X-198758Y-221261D01*
X-199016Y-221243D01*
X-199285Y-221237D01*
X-199699Y-221253D01*
X-200089Y-221302D01*
X-200453Y-221382D01*
X-200792Y-221495D01*
X-201106Y-221641D01*
X-201395Y-221818D01*
X-201659Y-222028D01*
X-201897Y-222270D01*
X-202109Y-222542D01*
X-202293Y-222840D01*
X-202448Y-223164D01*
X-202575Y-223514D01*
X-202674Y-223891D01*
X-202744Y-224295D01*
X-202787Y-224724D01*
X-202801Y-225180D01*
X-202786Y-225636D01*
X-202741Y-226066D01*
X-202666Y-226472D01*
X-202561Y-226853D01*
X-202426Y-227210D01*
X-202261Y-227542D01*
X-202066Y-227850D01*
X-201841Y-228132D01*
X-201590Y-228386D01*
X-201316Y-228606D01*
X-201018Y-228792D01*
X-200698Y-228944D01*
X-200355Y-229062D01*
X-199988Y-229147D01*
X-199599Y-229198D01*
X-199187Y-229215D01*
X-198712Y-229196D01*
X-198253Y-229141D01*
X-197810Y-229049D01*
X-197383Y-228920D01*
X-196985Y-228760D01*
X-196626Y-228574D01*
X-196307Y-228361D01*
X-196028Y-228122D01*
X-196028Y-226343D01*
X-198977Y-226343D01*
X-198977Y-225222D01*
X-194795Y-225222D01*
X-194795Y-228626D01*
X-195210Y-229003D01*
X-195668Y-229334D01*
X-196171Y-229621D01*
X-196718Y-229862D01*
X-197006Y-229965D01*
X-197299Y-230054D01*
X-197599Y-230129D01*
X-197904Y-230191D01*
X-198216Y-230239D01*
X-198533Y-230273D01*
X-198857Y-230293D01*
X-199187Y-230300D01*
G37*
G36*
X-189676Y-230300D02*
X-190084Y-230284D01*
X-190467Y-230237D01*
X-190824Y-230159D01*
X-191157Y-230050D01*
X-191464Y-229909D01*
X-191747Y-229737D01*
X-192004Y-229533D01*
X-192236Y-229299D01*
X-192442Y-229033D01*
X-192621Y-228737D01*
X-192772Y-228411D01*
X-192896Y-228054D01*
X-192992Y-227666D01*
X-193060Y-227249D01*
X-193102Y-226801D01*
X-193115Y-226322D01*
X-193102Y-225866D01*
X-193060Y-225438D01*
X-192992Y-225037D01*
X-192896Y-224664D01*
X-192772Y-224318D01*
X-192621Y-223999D01*
X-192442Y-223707D01*
X-192236Y-223443D01*
X-192005Y-223209D01*
X-191750Y-223005D01*
X-191471Y-222833D01*
X-191169Y-222692D01*
X-190843Y-222583D01*
X-190494Y-222504D01*
X-190122Y-222458D01*
X-189725Y-222442D01*
X-189321Y-222458D01*
X-188942Y-222505D01*
X-188590Y-222583D01*
X-188264Y-222694D01*
X-187964Y-222835D01*
X-187690Y-223008D01*
X-187442Y-223213D01*
X-187220Y-223449D01*
X-187024Y-223716D01*
X-186854Y-224015D01*
X-186711Y-224345D01*
X-186593Y-224707D01*
X-186502Y-225100D01*
X-186437Y-225525D01*
X-186398Y-225981D01*
X-186385Y-226469D01*
X-186385Y-226637D01*
X-191792Y-226637D01*
X-191783Y-226954D01*
X-191758Y-227251D01*
X-191716Y-227530D01*
X-191657Y-227791D01*
X-191581Y-228033D01*
X-191488Y-228256D01*
X-191379Y-228461D01*
X-191252Y-228647D01*
X-191110Y-228813D01*
X-190952Y-228957D01*
X-190778Y-229078D01*
X-190589Y-229178D01*
X-190384Y-229255D01*
X-190164Y-229310D01*
X-189928Y-229344D01*
X-189676Y-229355D01*
X-189287Y-229334D01*
X-188938Y-229272D01*
X-188630Y-229169D01*
X-188363Y-229025D01*
X-188136Y-228850D01*
X-187949Y-228652D01*
X-187802Y-228433D01*
X-187694Y-228192D01*
X-186588Y-228507D01*
X-186679Y-228724D01*
X-186785Y-228927D01*
X-186903Y-229116D01*
X-187036Y-229292D01*
X-187181Y-229453D01*
X-187341Y-229600D01*
X-187513Y-229733D01*
X-187700Y-229852D01*
X-187899Y-229957D01*
X-188113Y-230048D01*
X-188340Y-230125D01*
X-188580Y-230188D01*
X-188834Y-230237D01*
X-189101Y-230272D01*
X-189382Y-230293D01*
X-189676Y-230300D01*
G37*
%LPC*%
G36*
X-187687Y-225671D02*
X-187720Y-225381D01*
X-187765Y-225112D01*
X-187822Y-224863D01*
X-187892Y-224635D01*
X-187975Y-224427D01*
X-188070Y-224239D01*
X-188177Y-224071D01*
X-188297Y-223923D01*
X-188430Y-223794D01*
X-188576Y-223683D01*
X-188737Y-223588D01*
X-188911Y-223511D01*
X-189099Y-223451D01*
X-189301Y-223408D01*
X-189517Y-223382D01*
X-189746Y-223373D01*
X-189970Y-223383D01*
X-190181Y-223412D01*
X-190381Y-223460D01*
X-190569Y-223527D01*
X-190744Y-223613D01*
X-190908Y-223718D01*
X-191060Y-223843D01*
X-191200Y-223986D01*
X-191326Y-224147D01*
X-191437Y-224321D01*
X-191532Y-224510D01*
X-191612Y-224714D01*
X-191677Y-224931D01*
X-191726Y-225163D01*
X-191759Y-225410D01*
X-191778Y-225671D01*
X-187687Y-225671D01*
G37*
%LPD*%
G36*
X-181708Y-230300D02*
X-182115Y-230284D01*
X-182498Y-230237D01*
X-182856Y-230159D01*
X-183188Y-230050D01*
X-183496Y-229909D01*
X-183778Y-229737D01*
X-184035Y-229533D01*
X-184268Y-229299D01*
X-184474Y-229033D01*
X-184652Y-228737D01*
X-184803Y-228411D01*
X-184927Y-228054D01*
X-185023Y-227666D01*
X-185092Y-227249D01*
X-185133Y-226801D01*
X-185147Y-226322D01*
X-185133Y-225866D01*
X-185092Y-225438D01*
X-185023Y-225037D01*
X-184927Y-224664D01*
X-184803Y-224318D01*
X-184652Y-223999D01*
X-184474Y-223707D01*
X-184268Y-223443D01*
X-184036Y-223209D01*
X-183781Y-223005D01*
X-183502Y-222833D01*
X-183200Y-222692D01*
X-182875Y-222583D01*
X-182526Y-222504D01*
X-182153Y-222458D01*
X-181757Y-222442D01*
X-181352Y-222458D01*
X-180974Y-222505D01*
X-180621Y-222583D01*
X-180295Y-222694D01*
X-179995Y-222835D01*
X-179721Y-223008D01*
X-179473Y-223213D01*
X-179251Y-223449D01*
X-179055Y-223716D01*
X-178886Y-224015D01*
X-178742Y-224345D01*
X-178625Y-224707D01*
X-178533Y-225100D01*
X-178468Y-225525D01*
X-178429Y-225981D01*
X-178416Y-226469D01*
X-178416Y-226637D01*
X-183823Y-226637D01*
X-183814Y-226954D01*
X-183789Y-227251D01*
X-183747Y-227530D01*
X-183688Y-227791D01*
X-183612Y-228033D01*
X-183519Y-228256D01*
X-183410Y-228461D01*
X-183284Y-228647D01*
X-183141Y-228813D01*
X-182983Y-228957D01*
X-182809Y-229078D01*
X-182620Y-229178D01*
X-182415Y-229255D01*
X-182195Y-229310D01*
X-181959Y-229344D01*
X-181708Y-229355D01*
X-181318Y-229334D01*
X-180970Y-229272D01*
X-180662Y-229169D01*
X-180394Y-229025D01*
X-180168Y-228850D01*
X-179980Y-228652D01*
X-179833Y-228433D01*
X-179726Y-228192D01*
X-178619Y-228507D01*
X-178711Y-228724D01*
X-178816Y-228927D01*
X-178935Y-229116D01*
X-179067Y-229292D01*
X-179213Y-229453D01*
X-179372Y-229600D01*
X-179545Y-229733D01*
X-179731Y-229852D01*
X-179931Y-229957D01*
X-180144Y-230048D01*
X-180371Y-230125D01*
X-180611Y-230188D01*
X-180865Y-230237D01*
X-181132Y-230272D01*
X-181413Y-230293D01*
X-181708Y-230300D01*
G37*
%LPC*%
G36*
X-179719Y-225671D02*
X-179751Y-225381D01*
X-179796Y-225112D01*
X-179854Y-224863D01*
X-179923Y-224635D01*
X-180006Y-224427D01*
X-180101Y-224239D01*
X-180208Y-224071D01*
X-180328Y-223923D01*
X-180461Y-223794D01*
X-180608Y-223683D01*
X-180768Y-223588D01*
X-180943Y-223511D01*
X-181131Y-223451D01*
X-181333Y-223408D01*
X-181548Y-223382D01*
X-181778Y-223373D01*
X-182001Y-223383D01*
X-182213Y-223412D01*
X-182412Y-223460D01*
X-182600Y-223527D01*
X-182775Y-223613D01*
X-182939Y-223718D01*
X-183091Y-223843D01*
X-183231Y-223986D01*
X-183357Y-224147D01*
X-183468Y-224321D01*
X-183563Y-224510D01*
X-183643Y-224714D01*
X-183708Y-224931D01*
X-183757Y-225163D01*
X-183791Y-225410D01*
X-183809Y-225671D01*
X-179719Y-225671D01*
G37*
%LPD*%
G36*
X-214699Y-233137D02*
X-215176Y-233117D01*
X-215568Y-233060D01*
X-215568Y-232114D01*
X-215288Y-232146D01*
X-214980Y-232156D01*
X-214834Y-232149D01*
X-214693Y-232129D01*
X-214422Y-232048D01*
X-214166Y-231913D01*
X-213925Y-231724D01*
X-213700Y-231480D01*
X-213490Y-231183D01*
X-213296Y-230832D01*
X-213117Y-230426D01*
X-212997Y-230125D01*
X-216002Y-222582D01*
X-214657Y-222582D01*
X-213061Y-226770D01*
X-212976Y-227005D01*
X-212661Y-227919D01*
X-212374Y-228787D01*
X-211884Y-227408D01*
X-210224Y-222582D01*
X-208893Y-222582D01*
X-211807Y-230160D01*
X-212038Y-230727D01*
X-212260Y-231217D01*
X-212475Y-231629D01*
X-212682Y-231963D01*
X-212891Y-232241D01*
X-213110Y-232480D01*
X-213341Y-232682D01*
X-213582Y-232846D01*
X-213837Y-232973D01*
X-214108Y-233064D01*
X-214396Y-233118D01*
X-214699Y-233137D01*
G37*
G36*
X-170400Y-230272D02*
X-170584Y-230265D01*
X-170755Y-230245D01*
X-170915Y-230212D01*
X-171062Y-230165D01*
X-171198Y-230105D01*
X-171322Y-230031D01*
X-171435Y-229944D01*
X-171535Y-229843D01*
X-171624Y-229729D01*
X-171701Y-229602D01*
X-171766Y-229461D01*
X-171819Y-229307D01*
X-171860Y-229139D01*
X-171890Y-228958D01*
X-171907Y-228764D01*
X-171913Y-228556D01*
X-171913Y-223499D01*
X-172789Y-223499D01*
X-172789Y-222582D01*
X-171864Y-222582D01*
X-171493Y-220887D01*
X-170653Y-220887D01*
X-170653Y-222582D01*
X-169252Y-222582D01*
X-169252Y-223499D01*
X-170653Y-223499D01*
X-170653Y-228283D01*
X-170641Y-228536D01*
X-170608Y-228748D01*
X-170552Y-228919D01*
X-170474Y-229050D01*
X-170368Y-229146D01*
X-170230Y-229215D01*
X-170058Y-229257D01*
X-169854Y-229271D01*
X-169546Y-229246D01*
X-169126Y-229172D01*
X-169126Y-230104D01*
X-169439Y-230178D01*
X-169756Y-230230D01*
X-170077Y-230262D01*
X-170400Y-230272D01*
G37*
G36*
X-175532Y-230160D02*
X-176793Y-230160D01*
X-176793Y-224347D01*
X-176803Y-223506D01*
X-176835Y-222582D01*
X-175644Y-222582D01*
X-175588Y-224130D01*
X-175560Y-224130D01*
X-175404Y-223682D01*
X-175236Y-223310D01*
X-175057Y-223016D01*
X-174867Y-222799D01*
X-174650Y-222643D01*
X-174394Y-222531D01*
X-174097Y-222464D01*
X-173760Y-222442D01*
X-173506Y-222459D01*
X-173249Y-222512D01*
X-173249Y-223668D01*
X-173543Y-223615D01*
X-173921Y-223597D01*
X-174111Y-223608D01*
X-174290Y-223640D01*
X-174457Y-223693D01*
X-174613Y-223766D01*
X-174757Y-223861D01*
X-174889Y-223978D01*
X-175010Y-224115D01*
X-175119Y-224273D01*
X-175216Y-224451D01*
X-175299Y-224648D01*
X-175370Y-224862D01*
X-175429Y-225095D01*
X-175474Y-225347D01*
X-175506Y-225616D01*
X-175525Y-225904D01*
X-175532Y-226210D01*
X-175532Y-230160D01*
G37*
G36*
X-114070Y156763D02*
X-114314Y156775D01*
X-114541Y156811D01*
X-114753Y156871D01*
X-114950Y156955D01*
X-115131Y157062D01*
X-115296Y157194D01*
X-115446Y157349D01*
X-115580Y157528D01*
X-115698Y157731D01*
X-115800Y157955D01*
X-115887Y158201D01*
X-115958Y158469D01*
X-116013Y158759D01*
X-116053Y159071D01*
X-116076Y159405D01*
X-116084Y159761D01*
X-116076Y160125D01*
X-116053Y160465D01*
X-116015Y160781D01*
X-115962Y161074D01*
X-115893Y161344D01*
X-115808Y161590D01*
X-115709Y161812D01*
X-115594Y162011D01*
X-115463Y162186D01*
X-115313Y162338D01*
X-115147Y162467D01*
X-114962Y162572D01*
X-114759Y162654D01*
X-114539Y162712D01*
X-114301Y162748D01*
X-114045Y162759D01*
X-113796Y162747D01*
X-113564Y162712D01*
X-113349Y162653D01*
X-113151Y162570D01*
X-112969Y162464D01*
X-112804Y162334D01*
X-112657Y162180D01*
X-112526Y162003D01*
X-112411Y161802D01*
X-112311Y161579D01*
X-112227Y161333D01*
X-112158Y161064D01*
X-112105Y160772D01*
X-112066Y160458D01*
X-112043Y160121D01*
X-112036Y159761D01*
X-112044Y159407D01*
X-112068Y159075D01*
X-112108Y158764D01*
X-112164Y158474D01*
X-112237Y158206D01*
X-112325Y157960D01*
X-112430Y157736D01*
X-112551Y157532D01*
X-112687Y157352D01*
X-112839Y157196D01*
X-113006Y157064D01*
X-113188Y156956D01*
X-113386Y156871D01*
X-113598Y156811D01*
X-113827Y156775D01*
X-114070Y156763D01*
G37*
%LPC*%
G36*
X-114062Y157371D02*
X-113903Y157380D01*
X-113755Y157408D01*
X-113618Y157454D01*
X-113492Y157518D01*
X-113377Y157601D01*
X-113273Y157701D01*
X-113180Y157821D01*
X-113098Y157958D01*
X-113027Y158115D01*
X-112965Y158291D01*
X-112869Y158703D01*
X-112812Y159193D01*
X-112792Y159761D01*
X-112811Y160348D01*
X-112865Y160849D01*
X-112956Y161262D01*
X-113016Y161437D01*
X-113084Y161589D01*
X-113163Y161722D01*
X-113253Y161837D01*
X-113356Y161934D01*
X-113470Y162014D01*
X-113596Y162076D01*
X-113734Y162120D01*
X-113884Y162147D01*
X-114045Y162156D01*
X-114211Y162147D01*
X-114364Y162121D01*
X-114506Y162077D01*
X-114635Y162016D01*
X-114752Y161937D01*
X-114858Y161841D01*
X-114951Y161728D01*
X-115032Y161597D01*
X-115102Y161446D01*
X-115163Y161273D01*
X-115214Y161077D01*
X-115256Y160859D01*
X-115313Y160355D01*
X-115331Y159761D01*
X-115312Y159183D01*
X-115255Y158687D01*
X-115160Y158275D01*
X-115099Y158100D01*
X-115028Y157946D01*
X-114946Y157811D01*
X-114853Y157694D01*
X-114749Y157596D01*
X-114634Y157515D01*
X-114508Y157452D01*
X-114370Y157407D01*
X-114222Y157380D01*
X-114062Y157371D01*
G37*
%LPD*%
G36*
X-123956Y156763D02*
X-124382Y156786D01*
X-124778Y156855D01*
X-125144Y156969D01*
X-125480Y157129D01*
X-125783Y157332D01*
X-126047Y157574D01*
X-126273Y157855D01*
X-126460Y158175D01*
X-126608Y158531D01*
X-126713Y158918D01*
X-126776Y159337D01*
X-126797Y159786D01*
X-126786Y160125D01*
X-126750Y160445D01*
X-126691Y160746D01*
X-126609Y161029D01*
X-126503Y161292D01*
X-126374Y161537D01*
X-126221Y161763D01*
X-126045Y161969D01*
X-125848Y162155D01*
X-125632Y162315D01*
X-125399Y162451D01*
X-125147Y162562D01*
X-124878Y162648D01*
X-124590Y162710D01*
X-124284Y162747D01*
X-123961Y162759D01*
X-123515Y162736D01*
X-123107Y162668D01*
X-122737Y162555D01*
X-122406Y162395D01*
X-122114Y162191D01*
X-121864Y161944D01*
X-121655Y161652D01*
X-121488Y161316D01*
X-122236Y161068D01*
X-122353Y161307D01*
X-122500Y161517D01*
X-122679Y161696D01*
X-122888Y161845D01*
X-123122Y161963D01*
X-123378Y162047D01*
X-123655Y162097D01*
X-123952Y162114D01*
X-124188Y162104D01*
X-124409Y162075D01*
X-124618Y162027D01*
X-124812Y161959D01*
X-124994Y161871D01*
X-125162Y161764D01*
X-125316Y161638D01*
X-125458Y161492D01*
X-125583Y161329D01*
X-125693Y161152D01*
X-125785Y160960D01*
X-125861Y160754D01*
X-125919Y160534D01*
X-125961Y160299D01*
X-125987Y160050D01*
X-125995Y159786D01*
X-125986Y159525D01*
X-125960Y159277D01*
X-125916Y159042D01*
X-125855Y158820D01*
X-125776Y158611D01*
X-125680Y158416D01*
X-125566Y158233D01*
X-125435Y158064D01*
X-125289Y157911D01*
X-125130Y157779D01*
X-124959Y157667D01*
X-124776Y157575D01*
X-124580Y157504D01*
X-124372Y157453D01*
X-124152Y157423D01*
X-123919Y157413D01*
X-123623Y157431D01*
X-123345Y157488D01*
X-123087Y157583D01*
X-122847Y157715D01*
X-122627Y157886D01*
X-122425Y158094D01*
X-122243Y158340D01*
X-122079Y158624D01*
X-121434Y158302D01*
X-121632Y157948D01*
X-121867Y157639D01*
X-122138Y157375D01*
X-122445Y157156D01*
X-122784Y156984D01*
X-123149Y156862D01*
X-123539Y156788D01*
X-123745Y156769D01*
X-123956Y156763D01*
G37*
G36*
X-116837Y156846D02*
X-120489Y156846D01*
X-120489Y157479D01*
X-119004Y157479D01*
X-119004Y161961D01*
X-120319Y161022D01*
X-120319Y161725D01*
X-118942Y162672D01*
X-118256Y162672D01*
X-118256Y157479D01*
X-116837Y157479D01*
X-116837Y156846D01*
G37*
G36*
X-123939Y167823D02*
X-124365Y167846D01*
X-124761Y167915D01*
X-125127Y168029D01*
X-125463Y168189D01*
X-125765Y168392D01*
X-126030Y168634D01*
X-126255Y168915D01*
X-126443Y169235D01*
X-126591Y169591D01*
X-126696Y169978D01*
X-126759Y170397D01*
X-126780Y170846D01*
X-126768Y171185D01*
X-126733Y171505D01*
X-126674Y171806D01*
X-126592Y172089D01*
X-126486Y172352D01*
X-126357Y172597D01*
X-126204Y172823D01*
X-126028Y173029D01*
X-125830Y173215D01*
X-125615Y173375D01*
X-125382Y173511D01*
X-125130Y173622D01*
X-124861Y173708D01*
X-124573Y173770D01*
X-124267Y173807D01*
X-123943Y173819D01*
X-123497Y173796D01*
X-123089Y173728D01*
X-122720Y173615D01*
X-122389Y173455D01*
X-122097Y173251D01*
X-121847Y173004D01*
X-121638Y172712D01*
X-121471Y172376D01*
X-122219Y172128D01*
X-122336Y172367D01*
X-122483Y172577D01*
X-122661Y172756D01*
X-122870Y172905D01*
X-123105Y173023D01*
X-123361Y173107D01*
X-123638Y173157D01*
X-123935Y173174D01*
X-124170Y173164D01*
X-124392Y173135D01*
X-124600Y173087D01*
X-124795Y173019D01*
X-124977Y172931D01*
X-125145Y172824D01*
X-125299Y172698D01*
X-125440Y172552D01*
X-125566Y172389D01*
X-125676Y172212D01*
X-125768Y172020D01*
X-125843Y171814D01*
X-125902Y171594D01*
X-125944Y171359D01*
X-125969Y171110D01*
X-125978Y170846D01*
X-125969Y170585D01*
X-125943Y170337D01*
X-125899Y170102D01*
X-125838Y169880D01*
X-125759Y169671D01*
X-125663Y169476D01*
X-125549Y169293D01*
X-125418Y169124D01*
X-125271Y168971D01*
X-125113Y168839D01*
X-124942Y168727D01*
X-124759Y168635D01*
X-124563Y168564D01*
X-124355Y168513D01*
X-124135Y168483D01*
X-123902Y168473D01*
X-123606Y168491D01*
X-123328Y168548D01*
X-123070Y168643D01*
X-122830Y168775D01*
X-122609Y168946D01*
X-122408Y169154D01*
X-122225Y169400D01*
X-122062Y169684D01*
X-121417Y169362D01*
X-121615Y169008D01*
X-121849Y168699D01*
X-122120Y168435D01*
X-122428Y168216D01*
X-122767Y168044D01*
X-123131Y167922D01*
X-123522Y167848D01*
X-123728Y167829D01*
X-123939Y167823D01*
G37*
G36*
X-116820Y167906D02*
X-120471Y167906D01*
X-120471Y168539D01*
X-118987Y168539D01*
X-118987Y173021D01*
X-120302Y172082D01*
X-120302Y172785D01*
X-118925Y173732D01*
X-118238Y173732D01*
X-118238Y168539D01*
X-116820Y168539D01*
X-116820Y167906D01*
G37*
G36*
X-112726Y167906D02*
X-116378Y167906D01*
X-116378Y168539D01*
X-114893Y168539D01*
X-114893Y173021D01*
X-116208Y172082D01*
X-116208Y172785D01*
X-114831Y173732D01*
X-114145Y173732D01*
X-114145Y168539D01*
X-112726Y168539D01*
X-112726Y167906D01*
G37*
G36*
X3044Y109883D02*
X2618Y109906D01*
X2222Y109975D01*
X1856Y110089D01*
X1520Y110249D01*
X1217Y110452D01*
X953Y110694D01*
X727Y110975D01*
X540Y111295D01*
X392Y111651D01*
X287Y112038D01*
X224Y112457D01*
X203Y112906D01*
X215Y113245D01*
X250Y113565D01*
X309Y113866D01*
X391Y114149D01*
X497Y114412D01*
X626Y114657D01*
X779Y114883D01*
X955Y115089D01*
X1153Y115275D01*
X1368Y115435D01*
X1601Y115571D01*
X1853Y115682D01*
X2122Y115768D01*
X2410Y115830D01*
X2716Y115867D01*
X3039Y115879D01*
X3486Y115856D01*
X3893Y115788D01*
X4263Y115675D01*
X4594Y115515D01*
X4886Y115311D01*
X5136Y115064D01*
X5345Y114772D01*
X5512Y114436D01*
X4764Y114188D01*
X4647Y114427D01*
X4500Y114637D01*
X4321Y114816D01*
X4113Y114965D01*
X3878Y115083D01*
X3622Y115167D01*
X3345Y115217D01*
X3048Y115234D01*
X2813Y115224D01*
X2591Y115195D01*
X2382Y115147D01*
X2188Y115079D01*
X2006Y114991D01*
X1838Y114884D01*
X1684Y114758D01*
X1543Y114612D01*
X1417Y114449D01*
X1307Y114272D01*
X1215Y114080D01*
X1139Y113874D01*
X1081Y113654D01*
X1039Y113419D01*
X1013Y113170D01*
X1005Y112906D01*
X1014Y112645D01*
X1040Y112397D01*
X1084Y112162D01*
X1145Y111940D01*
X1224Y111731D01*
X1320Y111536D01*
X1434Y111353D01*
X1565Y111184D01*
X1712Y111031D01*
X1870Y110899D01*
X2041Y110787D01*
X2224Y110695D01*
X2420Y110624D01*
X2628Y110573D01*
X2848Y110543D01*
X3081Y110533D01*
X3377Y110551D01*
X3655Y110608D01*
X3913Y110703D01*
X4153Y110835D01*
X4373Y111006D01*
X4575Y111214D01*
X4757Y111460D01*
X4921Y111744D01*
X5566Y111422D01*
X5368Y111068D01*
X5133Y110759D01*
X4862Y110495D01*
X4555Y110276D01*
X4216Y110104D01*
X3851Y109982D01*
X3461Y109908D01*
X3255Y109889D01*
X3044Y109883D01*
G37*
G36*
X14869Y109966D02*
X11011Y109966D01*
X11011Y110491D01*
X11122Y110726D01*
X11245Y110947D01*
X11380Y111153D01*
X11526Y111345D01*
X11838Y111698D01*
X12165Y112015D01*
X12828Y112571D01*
X13141Y112828D01*
X13422Y113084D01*
X13661Y113346D01*
X13850Y113621D01*
X13921Y113767D01*
X13972Y113921D01*
X14003Y114085D01*
X14013Y114258D01*
X13996Y114485D01*
X13943Y114684D01*
X13855Y114857D01*
X13732Y115003D01*
X13578Y115118D01*
X13396Y115201D01*
X13187Y115251D01*
X12950Y115267D01*
X12723Y115251D01*
X12517Y115203D01*
X12331Y115122D01*
X12167Y115009D01*
X12029Y114867D01*
X11922Y114698D01*
X11848Y114504D01*
X11805Y114283D01*
X11044Y114353D01*
X11072Y114524D01*
X11112Y114685D01*
X11166Y114837D01*
X11234Y114981D01*
X11409Y115241D01*
X11638Y115466D01*
X11911Y115647D01*
X12062Y115718D01*
X12221Y115776D01*
X12390Y115821D01*
X12568Y115853D01*
X12754Y115873D01*
X12950Y115879D01*
X13164Y115873D01*
X13365Y115853D01*
X13554Y115821D01*
X13729Y115775D01*
X13892Y115717D01*
X14043Y115645D01*
X14180Y115561D01*
X14305Y115464D01*
X14416Y115354D01*
X14512Y115234D01*
X14593Y115103D01*
X14660Y114961D01*
X14712Y114808D01*
X14749Y114644D01*
X14771Y114469D01*
X14778Y114283D01*
X14769Y114114D01*
X14739Y113945D01*
X14691Y113777D01*
X14623Y113609D01*
X14536Y113442D01*
X14430Y113274D01*
X14162Y112939D01*
X13717Y112512D01*
X12992Y111901D01*
X12565Y111532D01*
X12235Y111200D01*
X11993Y110894D01*
X11830Y110599D01*
X14869Y110599D01*
X14869Y109966D01*
G37*
G36*
X10163Y109966D02*
X6512Y109966D01*
X6512Y110599D01*
X7996Y110599D01*
X7996Y115081D01*
X6681Y114142D01*
X6681Y114845D01*
X8058Y115792D01*
X8744Y115792D01*
X8744Y110599D01*
X10163Y110599D01*
X10163Y109966D01*
G37*
G36*
X3044Y118043D02*
X2618Y118066D01*
X2222Y118135D01*
X1856Y118249D01*
X1520Y118409D01*
X1217Y118612D01*
X953Y118854D01*
X727Y119135D01*
X540Y119455D01*
X392Y119811D01*
X287Y120198D01*
X224Y120617D01*
X203Y121066D01*
X215Y121405D01*
X250Y121725D01*
X309Y122026D01*
X391Y122309D01*
X497Y122572D01*
X626Y122817D01*
X779Y123043D01*
X955Y123249D01*
X1153Y123435D01*
X1368Y123595D01*
X1601Y123731D01*
X1853Y123842D01*
X2122Y123928D01*
X2410Y123990D01*
X2716Y124027D01*
X3039Y124039D01*
X3486Y124016D01*
X3893Y123948D01*
X4263Y123835D01*
X4594Y123675D01*
X4886Y123471D01*
X5136Y123224D01*
X5345Y122932D01*
X5512Y122596D01*
X4764Y122348D01*
X4647Y122587D01*
X4500Y122797D01*
X4321Y122976D01*
X4113Y123125D01*
X3878Y123243D01*
X3622Y123327D01*
X3345Y123377D01*
X3048Y123394D01*
X2813Y123384D01*
X2591Y123355D01*
X2382Y123307D01*
X2188Y123239D01*
X2006Y123151D01*
X1838Y123044D01*
X1684Y122918D01*
X1543Y122772D01*
X1417Y122609D01*
X1307Y122432D01*
X1215Y122240D01*
X1139Y122034D01*
X1081Y121814D01*
X1039Y121579D01*
X1013Y121330D01*
X1005Y121066D01*
X1014Y120805D01*
X1040Y120557D01*
X1084Y120322D01*
X1145Y120100D01*
X1224Y119891D01*
X1320Y119696D01*
X1434Y119513D01*
X1565Y119344D01*
X1712Y119191D01*
X1870Y119059D01*
X2041Y118947D01*
X2224Y118855D01*
X2420Y118784D01*
X2628Y118733D01*
X2848Y118703D01*
X3081Y118693D01*
X3377Y118711D01*
X3655Y118768D01*
X3913Y118863D01*
X4153Y118995D01*
X4373Y119166D01*
X4575Y119374D01*
X4757Y119620D01*
X4921Y119904D01*
X5566Y119582D01*
X5368Y119228D01*
X5133Y118919D01*
X4862Y118655D01*
X4555Y118436D01*
X4216Y118264D01*
X3851Y118142D01*
X3461Y118068D01*
X3255Y118049D01*
X3044Y118043D01*
G37*
G36*
X12946Y118043D02*
X12731Y118050D01*
X12526Y118068D01*
X12333Y118099D01*
X12151Y118143D01*
X11980Y118199D01*
X11820Y118268D01*
X11672Y118349D01*
X11534Y118442D01*
X11409Y118548D01*
X11297Y118666D01*
X11199Y118795D01*
X11114Y118937D01*
X11042Y119091D01*
X10984Y119256D01*
X10939Y119434D01*
X10908Y119623D01*
X11677Y119693D01*
X11729Y119451D01*
X11812Y119241D01*
X11925Y119063D01*
X12069Y118918D01*
X12243Y118805D01*
X12447Y118724D01*
X12681Y118676D01*
X12946Y118659D01*
X13212Y118677D01*
X13448Y118729D01*
X13654Y118815D01*
X13829Y118936D01*
X13969Y119092D01*
X14070Y119281D01*
X14130Y119503D01*
X14150Y119759D01*
X14127Y119984D01*
X14058Y120183D01*
X13944Y120355D01*
X13784Y120502D01*
X13580Y120618D01*
X13337Y120702D01*
X13052Y120752D01*
X12727Y120768D01*
X12305Y120768D01*
X12305Y121413D01*
X12711Y121413D01*
X12999Y121430D01*
X13254Y121480D01*
X13474Y121563D01*
X13660Y121680D01*
X13807Y121826D01*
X13912Y121998D01*
X13976Y122195D01*
X13997Y122418D01*
X13979Y122640D01*
X13928Y122836D01*
X13842Y123009D01*
X13722Y123156D01*
X13568Y123275D01*
X13380Y123360D01*
X13159Y123410D01*
X12905Y123427D01*
X12671Y123411D01*
X12460Y123364D01*
X12273Y123285D01*
X12109Y123175D01*
X11973Y123036D01*
X11869Y122871D01*
X11796Y122680D01*
X11755Y122464D01*
X11007Y122522D01*
X11034Y122696D01*
X11075Y122860D01*
X11129Y123014D01*
X11197Y123158D01*
X11278Y123293D01*
X11372Y123418D01*
X11600Y123638D01*
X11874Y123814D01*
X12184Y123939D01*
X12353Y123983D01*
X12530Y124014D01*
X12717Y124033D01*
X12913Y124039D01*
X13126Y124033D01*
X13327Y124014D01*
X13516Y123982D01*
X13692Y123937D01*
X13856Y123880D01*
X14008Y123810D01*
X14148Y123727D01*
X14276Y123632D01*
X14390Y123525D01*
X14488Y123408D01*
X14572Y123281D01*
X14640Y123144D01*
X14693Y122998D01*
X14731Y122841D01*
X14754Y122674D01*
X14762Y122497D01*
X14742Y122231D01*
X14684Y121991D01*
X14586Y121777D01*
X14449Y121589D01*
X14276Y121429D01*
X14066Y121296D01*
X13822Y121192D01*
X13542Y121116D01*
X13542Y121099D01*
X13850Y121045D01*
X14123Y120954D01*
X14359Y120826D01*
X14559Y120661D01*
X14718Y120465D01*
X14832Y120245D01*
X14900Y120002D01*
X14923Y119735D01*
X14915Y119539D01*
X14891Y119354D01*
X14851Y119181D01*
X14795Y119019D01*
X14723Y118869D01*
X14635Y118730D01*
X14530Y118602D01*
X14410Y118486D01*
X14275Y118382D01*
X14126Y118292D01*
X13964Y118216D01*
X13788Y118154D01*
X13598Y118106D01*
X13394Y118071D01*
X13177Y118050D01*
X12946Y118043D01*
G37*
G36*
X10163Y118126D02*
X6512Y118126D01*
X6512Y118759D01*
X7996Y118759D01*
X7996Y123241D01*
X6681Y122302D01*
X6681Y123005D01*
X8058Y123952D01*
X8744Y123952D01*
X8744Y118759D01*
X10163Y118759D01*
X10163Y118126D01*
G37*
G36*
X14228Y133826D02*
X13525Y133826D01*
X13525Y135145D01*
X10780Y135145D01*
X10780Y135724D01*
X13447Y139652D01*
X14228Y139652D01*
X14228Y135732D01*
X15047Y135732D01*
X15047Y135145D01*
X14228Y135145D01*
X14228Y133826D01*
G37*
%LPC*%
G36*
X13525Y135732D02*
X13525Y138813D01*
X13409Y138594D01*
X13248Y138321D01*
X11755Y136121D01*
X11532Y135815D01*
X11466Y135732D01*
X13525Y135732D01*
G37*
%LPD*%
G36*
X3044Y133743D02*
X2618Y133766D01*
X2222Y133835D01*
X1856Y133949D01*
X1520Y134109D01*
X1217Y134312D01*
X953Y134554D01*
X727Y134835D01*
X540Y135155D01*
X392Y135511D01*
X287Y135898D01*
X224Y136317D01*
X203Y136766D01*
X215Y137105D01*
X250Y137425D01*
X309Y137726D01*
X391Y138009D01*
X497Y138272D01*
X626Y138517D01*
X779Y138743D01*
X955Y138949D01*
X1153Y139135D01*
X1368Y139295D01*
X1601Y139431D01*
X1853Y139542D01*
X2122Y139628D01*
X2410Y139690D01*
X2716Y139727D01*
X3039Y139739D01*
X3486Y139716D01*
X3893Y139648D01*
X4263Y139535D01*
X4594Y139375D01*
X4886Y139171D01*
X5136Y138924D01*
X5345Y138632D01*
X5512Y138296D01*
X4764Y138048D01*
X4647Y138287D01*
X4500Y138497D01*
X4321Y138676D01*
X4113Y138825D01*
X3878Y138943D01*
X3622Y139027D01*
X3345Y139077D01*
X3048Y139094D01*
X2813Y139084D01*
X2591Y139055D01*
X2382Y139007D01*
X2188Y138939D01*
X2006Y138851D01*
X1838Y138744D01*
X1684Y138618D01*
X1543Y138472D01*
X1417Y138309D01*
X1307Y138132D01*
X1215Y137940D01*
X1139Y137734D01*
X1081Y137514D01*
X1039Y137279D01*
X1013Y137030D01*
X1005Y136766D01*
X1014Y136505D01*
X1040Y136257D01*
X1084Y136022D01*
X1145Y135800D01*
X1224Y135591D01*
X1320Y135396D01*
X1434Y135213D01*
X1565Y135044D01*
X1712Y134891D01*
X1870Y134759D01*
X2041Y134647D01*
X2224Y134555D01*
X2420Y134484D01*
X2628Y134433D01*
X2848Y134403D01*
X3081Y134393D01*
X3377Y134411D01*
X3655Y134468D01*
X3913Y134563D01*
X4153Y134695D01*
X4373Y134866D01*
X4575Y135074D01*
X4757Y135320D01*
X4921Y135604D01*
X5566Y135282D01*
X5368Y134928D01*
X5133Y134619D01*
X4862Y134355D01*
X4555Y134136D01*
X4216Y133964D01*
X3851Y133842D01*
X3461Y133768D01*
X3255Y133749D01*
X3044Y133743D01*
G37*
G36*
X10163Y133826D02*
X6512Y133826D01*
X6512Y134459D01*
X7996Y134459D01*
X7996Y138941D01*
X6681Y138002D01*
X6681Y138705D01*
X8058Y139652D01*
X8744Y139652D01*
X8744Y134459D01*
X10163Y134459D01*
X10163Y133826D01*
G37*
G36*
X3044Y155223D02*
X2618Y155246D01*
X2222Y155315D01*
X1856Y155429D01*
X1520Y155589D01*
X1217Y155792D01*
X953Y156034D01*
X727Y156315D01*
X540Y156635D01*
X392Y156991D01*
X287Y157378D01*
X224Y157797D01*
X203Y158246D01*
X215Y158585D01*
X250Y158905D01*
X309Y159206D01*
X391Y159489D01*
X497Y159752D01*
X626Y159997D01*
X779Y160223D01*
X955Y160429D01*
X1153Y160615D01*
X1368Y160775D01*
X1601Y160911D01*
X1853Y161022D01*
X2122Y161108D01*
X2410Y161170D01*
X2716Y161207D01*
X3039Y161219D01*
X3486Y161196D01*
X3893Y161128D01*
X4263Y161015D01*
X4594Y160855D01*
X4886Y160651D01*
X5136Y160404D01*
X5345Y160112D01*
X5512Y159776D01*
X4764Y159528D01*
X4647Y159767D01*
X4500Y159977D01*
X4321Y160156D01*
X4113Y160305D01*
X3878Y160423D01*
X3622Y160507D01*
X3345Y160557D01*
X3048Y160574D01*
X2813Y160564D01*
X2591Y160535D01*
X2382Y160487D01*
X2188Y160419D01*
X2006Y160331D01*
X1838Y160224D01*
X1684Y160098D01*
X1543Y159952D01*
X1417Y159789D01*
X1307Y159612D01*
X1215Y159420D01*
X1139Y159214D01*
X1081Y158994D01*
X1039Y158759D01*
X1013Y158510D01*
X1005Y158246D01*
X1014Y157985D01*
X1040Y157737D01*
X1084Y157502D01*
X1145Y157280D01*
X1224Y157071D01*
X1320Y156876D01*
X1434Y156693D01*
X1565Y156524D01*
X1712Y156371D01*
X1870Y156239D01*
X2041Y156127D01*
X2224Y156035D01*
X2420Y155964D01*
X2628Y155913D01*
X2848Y155883D01*
X3081Y155873D01*
X3377Y155891D01*
X3655Y155948D01*
X3913Y156043D01*
X4153Y156175D01*
X4373Y156346D01*
X4575Y156554D01*
X4757Y156800D01*
X4921Y157084D01*
X5566Y156762D01*
X5368Y156408D01*
X5133Y156099D01*
X4862Y155835D01*
X4555Y155616D01*
X4216Y155444D01*
X3851Y155322D01*
X3461Y155248D01*
X3255Y155229D01*
X3044Y155223D01*
G37*
G36*
X12872Y155223D02*
X12484Y155246D01*
X12136Y155312D01*
X11827Y155423D01*
X11557Y155579D01*
X11330Y155777D01*
X11149Y156014D01*
X11013Y156291D01*
X10924Y156609D01*
X11677Y156695D01*
X11747Y156493D01*
X11841Y156317D01*
X11958Y156169D01*
X12098Y156047D01*
X12261Y155953D01*
X12447Y155885D01*
X12656Y155845D01*
X12888Y155831D01*
X13172Y155854D01*
X13423Y155922D01*
X13641Y156035D01*
X13827Y156193D01*
X13975Y156391D01*
X14081Y156623D01*
X14145Y156888D01*
X14166Y157187D01*
X14145Y157449D01*
X14081Y157685D01*
X13974Y157894D01*
X13825Y158077D01*
X13640Y158225D01*
X13424Y158331D01*
X13180Y158394D01*
X12905Y158416D01*
X12613Y158392D01*
X12343Y158321D01*
X12082Y158192D01*
X11822Y157998D01*
X11094Y157998D01*
X11288Y161132D01*
X14600Y161132D01*
X14600Y160500D01*
X11966Y160500D01*
X11855Y158651D01*
X12111Y158814D01*
X12397Y158930D01*
X12713Y159000D01*
X13058Y159023D01*
X13268Y159016D01*
X13466Y158992D01*
X13654Y158953D01*
X13831Y158897D01*
X13997Y158826D01*
X14152Y158740D01*
X14296Y158637D01*
X14429Y158519D01*
X14548Y158388D01*
X14652Y158248D01*
X14740Y158098D01*
X14812Y157938D01*
X14868Y157769D01*
X14908Y157590D01*
X14932Y157402D01*
X14939Y157204D01*
X14931Y156980D01*
X14905Y156768D01*
X14862Y156568D01*
X14803Y156380D01*
X14725Y156205D01*
X14631Y156042D01*
X14520Y155891D01*
X14392Y155753D01*
X14248Y155629D01*
X14091Y155521D01*
X13921Y155430D01*
X13738Y155356D01*
X13541Y155298D01*
X13331Y155256D01*
X13108Y155232D01*
X12872Y155223D01*
G37*
G36*
X10163Y155306D02*
X6512Y155306D01*
X6512Y155939D01*
X7996Y155939D01*
X7996Y160421D01*
X6681Y159482D01*
X6681Y160185D01*
X8058Y161132D01*
X8744Y161132D01*
X8744Y155939D01*
X10163Y155939D01*
X10163Y155306D01*
G37*
G36*
X13041Y141443D02*
X12803Y141455D01*
X12578Y141489D01*
X12368Y141546D01*
X12173Y141626D01*
X11992Y141729D01*
X11826Y141855D01*
X11674Y142004D01*
X11536Y142175D01*
X11414Y142369D01*
X11308Y142583D01*
X11219Y142818D01*
X11145Y143074D01*
X11089Y143350D01*
X11048Y143648D01*
X11023Y143966D01*
X11015Y144305D01*
X11024Y144672D01*
X11049Y145018D01*
X11091Y145341D01*
X11151Y145643D01*
X11227Y145922D01*
X11320Y146180D01*
X11430Y146415D01*
X11557Y146629D01*
X11700Y146819D01*
X11856Y146983D01*
X12028Y147123D01*
X12213Y147237D01*
X12413Y147325D01*
X12628Y147389D01*
X12856Y147427D01*
X13099Y147439D01*
X13414Y147421D01*
X13698Y147365D01*
X13951Y147272D01*
X14174Y147143D01*
X14367Y146976D01*
X14529Y146772D01*
X14661Y146531D01*
X14762Y146252D01*
X14050Y146124D01*
X13987Y146291D01*
X13908Y146435D01*
X13813Y146558D01*
X13701Y146658D01*
X13573Y146735D01*
X13429Y146791D01*
X13268Y146824D01*
X13091Y146836D01*
X12936Y146826D01*
X12791Y146798D01*
X12654Y146752D01*
X12526Y146687D01*
X12407Y146604D01*
X12298Y146502D01*
X12197Y146381D01*
X12105Y146242D01*
X12023Y146085D01*
X11952Y145912D01*
X11892Y145722D01*
X11843Y145516D01*
X11777Y145053D01*
X11755Y144524D01*
X11867Y144701D01*
X11999Y144855D01*
X12152Y144987D01*
X12326Y145097D01*
X12517Y145183D01*
X12721Y145244D01*
X12939Y145281D01*
X13170Y145293D01*
X13366Y145285D01*
X13552Y145262D01*
X13728Y145222D01*
X13893Y145167D01*
X14048Y145096D01*
X14192Y145009D01*
X14326Y144907D01*
X14449Y144789D01*
X14560Y144657D01*
X14657Y144515D01*
X14738Y144361D01*
X14805Y144197D01*
X14856Y144022D01*
X14893Y143837D01*
X14916Y143640D01*
X14923Y143432D01*
X14915Y143208D01*
X14892Y142996D01*
X14853Y142795D01*
X14798Y142607D01*
X14727Y142431D01*
X14641Y142268D01*
X14540Y142116D01*
X14423Y141977D01*
X14292Y141852D01*
X14149Y141743D01*
X13994Y141652D01*
X13827Y141577D01*
X13649Y141518D01*
X13458Y141477D01*
X13256Y141452D01*
X13041Y141443D01*
G37*
%LPC*%
G36*
X13017Y142043D02*
X13271Y142066D01*
X13496Y142133D01*
X13693Y142246D01*
X13860Y142405D01*
X13994Y142603D01*
X14090Y142834D01*
X14147Y143100D01*
X14166Y143399D01*
X14147Y143697D01*
X14089Y143960D01*
X13992Y144185D01*
X13856Y144375D01*
X13686Y144525D01*
X13485Y144633D01*
X13254Y144697D01*
X12992Y144718D01*
X12744Y144699D01*
X12521Y144642D01*
X12323Y144547D01*
X12150Y144414D01*
X12010Y144248D01*
X11910Y144053D01*
X11850Y143829D01*
X11830Y143577D01*
X11851Y143255D01*
X11913Y142964D01*
X12017Y142703D01*
X12163Y142473D01*
X12341Y142285D01*
X12543Y142150D01*
X12768Y142070D01*
X12889Y142050D01*
X13017Y142043D01*
G37*
%LPD*%
G36*
X3044Y141443D02*
X2618Y141466D01*
X2222Y141535D01*
X1856Y141649D01*
X1520Y141809D01*
X1217Y142012D01*
X953Y142254D01*
X727Y142535D01*
X540Y142855D01*
X392Y143211D01*
X287Y143598D01*
X224Y144017D01*
X203Y144466D01*
X215Y144805D01*
X250Y145125D01*
X309Y145426D01*
X391Y145709D01*
X497Y145972D01*
X626Y146217D01*
X779Y146443D01*
X955Y146649D01*
X1153Y146835D01*
X1368Y146995D01*
X1601Y147131D01*
X1853Y147242D01*
X2122Y147328D01*
X2410Y147390D01*
X2716Y147427D01*
X3039Y147439D01*
X3486Y147416D01*
X3893Y147348D01*
X4263Y147235D01*
X4594Y147075D01*
X4886Y146871D01*
X5136Y146624D01*
X5345Y146332D01*
X5512Y145996D01*
X4764Y145748D01*
X4647Y145987D01*
X4500Y146197D01*
X4321Y146376D01*
X4113Y146525D01*
X3878Y146643D01*
X3622Y146727D01*
X3345Y146777D01*
X3048Y146794D01*
X2813Y146784D01*
X2591Y146755D01*
X2382Y146707D01*
X2188Y146639D01*
X2006Y146551D01*
X1838Y146444D01*
X1684Y146318D01*
X1543Y146172D01*
X1417Y146009D01*
X1307Y145832D01*
X1215Y145640D01*
X1139Y145434D01*
X1081Y145214D01*
X1039Y144979D01*
X1013Y144730D01*
X1005Y144466D01*
X1014Y144205D01*
X1040Y143957D01*
X1084Y143722D01*
X1145Y143500D01*
X1224Y143291D01*
X1320Y143096D01*
X1434Y142913D01*
X1565Y142744D01*
X1712Y142591D01*
X1870Y142459D01*
X2041Y142347D01*
X2224Y142255D01*
X2420Y142184D01*
X2628Y142133D01*
X2848Y142103D01*
X3081Y142093D01*
X3377Y142111D01*
X3655Y142168D01*
X3913Y142263D01*
X4153Y142395D01*
X4373Y142566D01*
X4575Y142774D01*
X4757Y143020D01*
X4921Y143304D01*
X5566Y142982D01*
X5368Y142628D01*
X5133Y142319D01*
X4862Y142055D01*
X4555Y141836D01*
X4216Y141664D01*
X3851Y141542D01*
X3461Y141468D01*
X3255Y141449D01*
X3044Y141443D01*
G37*
G36*
X10163Y141526D02*
X6512Y141526D01*
X6512Y142159D01*
X7996Y142159D01*
X7996Y146641D01*
X6681Y145702D01*
X6681Y146405D01*
X8058Y147352D01*
X8744Y147352D01*
X8744Y142159D01*
X10163Y142159D01*
X10163Y141526D01*
G37*
G36*
X-99620Y126807D02*
X-100046Y126830D01*
X-100442Y126899D01*
X-100808Y127013D01*
X-101144Y127173D01*
X-101447Y127376D01*
X-101711Y127618D01*
X-101937Y127899D01*
X-102124Y128219D01*
X-102272Y128575D01*
X-102377Y128962D01*
X-102440Y129381D01*
X-102461Y129830D01*
X-102450Y130169D01*
X-102414Y130489D01*
X-102355Y130790D01*
X-102273Y131073D01*
X-102167Y131336D01*
X-102038Y131581D01*
X-101885Y131807D01*
X-101709Y132013D01*
X-101512Y132199D01*
X-101296Y132359D01*
X-101063Y132495D01*
X-100811Y132606D01*
X-100542Y132692D01*
X-100254Y132754D01*
X-99948Y132791D01*
X-99625Y132803D01*
X-99179Y132780D01*
X-98771Y132712D01*
X-98401Y132599D01*
X-98070Y132439D01*
X-97778Y132235D01*
X-97528Y131988D01*
X-97319Y131696D01*
X-97152Y131360D01*
X-97900Y131112D01*
X-98017Y131351D01*
X-98164Y131561D01*
X-98343Y131740D01*
X-98552Y131889D01*
X-98786Y132007D01*
X-99042Y132091D01*
X-99319Y132141D01*
X-99616Y132158D01*
X-99852Y132148D01*
X-100073Y132119D01*
X-100282Y132071D01*
X-100476Y132003D01*
X-100658Y131915D01*
X-100826Y131808D01*
X-100980Y131682D01*
X-101122Y131536D01*
X-101247Y131373D01*
X-101357Y131196D01*
X-101449Y131004D01*
X-101525Y130798D01*
X-101583Y130578D01*
X-101625Y130343D01*
X-101651Y130094D01*
X-101659Y129830D01*
X-101650Y129569D01*
X-101624Y129321D01*
X-101580Y129086D01*
X-101519Y128864D01*
X-101440Y128655D01*
X-101344Y128460D01*
X-101230Y128277D01*
X-101099Y128108D01*
X-100953Y127955D01*
X-100794Y127823D01*
X-100623Y127711D01*
X-100440Y127619D01*
X-100244Y127548D01*
X-100036Y127497D01*
X-99816Y127467D01*
X-99583Y127457D01*
X-99287Y127475D01*
X-99009Y127532D01*
X-98751Y127627D01*
X-98511Y127759D01*
X-98291Y127930D01*
X-98089Y128138D01*
X-97907Y128384D01*
X-97743Y128668D01*
X-97098Y128346D01*
X-97296Y127992D01*
X-97531Y127683D01*
X-97802Y127419D01*
X-98109Y127200D01*
X-98448Y127028D01*
X-98813Y126906D01*
X-99203Y126832D01*
X-99409Y126813D01*
X-99620Y126807D01*
G37*
G36*
X-92501Y126890D02*
X-96153Y126890D01*
X-96153Y127523D01*
X-94668Y127523D01*
X-94668Y132005D01*
X-95983Y131066D01*
X-95983Y131769D01*
X-94606Y132716D01*
X-93920Y132716D01*
X-93920Y127523D01*
X-92501Y127523D01*
X-92501Y126890D01*
G37*
G36*
X-89792Y126890D02*
X-90570Y126890D01*
X-90562Y127171D01*
X-90540Y127456D01*
X-90503Y127744D01*
X-90451Y128036D01*
X-90303Y128631D01*
X-90096Y129241D01*
X-89820Y129881D01*
X-89464Y130569D01*
X-89029Y131303D01*
X-88514Y132084D01*
X-91645Y132084D01*
X-91645Y132716D01*
X-87795Y132716D01*
X-87795Y132113D01*
X-88209Y131467D01*
X-88557Y130896D01*
X-88839Y130398D01*
X-89056Y129975D01*
X-89229Y129589D01*
X-89378Y129207D01*
X-89505Y128827D01*
X-89608Y128449D01*
X-89689Y128069D01*
X-89746Y127683D01*
X-89781Y127290D01*
X-89792Y126890D01*
G37*
G36*
X-126013Y132763D02*
X-126287Y132784D01*
X-126538Y132845D01*
X-126766Y132947D01*
X-126972Y133090D01*
X-127147Y133265D01*
X-127284Y133462D01*
X-127383Y133682D01*
X-127444Y133925D01*
X-127460Y133925D01*
X-127532Y133700D01*
X-127637Y133500D01*
X-127774Y133325D01*
X-127944Y133175D01*
X-128138Y133054D01*
X-128348Y132968D01*
X-128574Y132917D01*
X-128816Y132900D01*
X-128979Y132907D01*
X-129134Y132931D01*
X-129280Y132970D01*
X-129419Y133024D01*
X-129550Y133094D01*
X-129673Y133180D01*
X-129788Y133281D01*
X-129896Y133398D01*
X-129993Y133528D01*
X-130077Y133668D01*
X-130148Y133820D01*
X-130206Y133982D01*
X-130251Y134154D01*
X-130283Y134337D01*
X-130303Y134531D01*
X-130309Y134736D01*
X-130303Y134945D01*
X-130284Y135143D01*
X-130252Y135330D01*
X-130208Y135505D01*
X-130151Y135669D01*
X-130081Y135822D01*
X-129999Y135964D01*
X-129904Y136094D01*
X-129798Y136211D01*
X-129684Y136312D01*
X-129560Y136398D01*
X-129427Y136468D01*
X-129286Y136522D01*
X-129136Y136561D01*
X-128976Y136585D01*
X-128808Y136592D01*
X-128566Y136575D01*
X-128340Y136523D01*
X-128130Y136437D01*
X-127936Y136315D01*
X-127767Y136164D01*
X-127760Y136156D01*
X-127633Y135988D01*
X-127533Y135786D01*
X-127468Y135559D01*
X-127452Y135559D01*
X-127388Y135822D01*
X-127288Y136055D01*
X-127151Y136256D01*
X-126994Y136412D01*
X-126978Y136427D01*
X-126775Y136563D01*
X-126548Y136660D01*
X-126296Y136718D01*
X-126021Y136737D01*
X-125825Y136729D01*
X-125640Y136705D01*
X-125466Y136665D01*
X-125304Y136609D01*
X-125152Y136537D01*
X-125012Y136449D01*
X-124882Y136344D01*
X-124764Y136224D01*
X-124658Y136089D01*
X-124567Y135940D01*
X-124489Y135777D01*
X-124426Y135600D01*
X-124377Y135409D01*
X-124341Y135204D01*
X-124320Y134985D01*
X-124313Y134752D01*
X-124320Y134525D01*
X-124341Y134310D01*
X-124376Y134109D01*
X-124424Y133920D01*
X-124486Y133743D01*
X-124562Y133580D01*
X-124652Y133429D01*
X-124756Y133290D01*
X-124872Y133167D01*
X-125000Y133060D01*
X-125140Y132969D01*
X-125291Y132895D01*
X-125454Y132837D01*
X-125629Y132796D01*
X-125815Y132771D01*
X-126013Y132763D01*
G37*
%LPC*%
G36*
X-126075Y133532D02*
X-125793Y133552D01*
X-125548Y133609D01*
X-125342Y133705D01*
X-125172Y133839D01*
X-125041Y134012D01*
X-124947Y134223D01*
X-124890Y134473D01*
X-124872Y134760D01*
X-124890Y135045D01*
X-124944Y135291D01*
X-125036Y135498D01*
X-125163Y135666D01*
X-125330Y135796D01*
X-125541Y135889D01*
X-125795Y135945D01*
X-126091Y135964D01*
X-126346Y135944D01*
X-126566Y135883D01*
X-126754Y135782D01*
X-126908Y135641D01*
X-127028Y135464D01*
X-127114Y135254D01*
X-127166Y135011D01*
X-127183Y134736D01*
X-127165Y134468D01*
X-127109Y134231D01*
X-127017Y134025D01*
X-126887Y133851D01*
X-126726Y133711D01*
X-126536Y133612D01*
X-126319Y133552D01*
X-126075Y133532D01*
G37*
G36*
X-128767Y133661D02*
X-128532Y133678D01*
X-128326Y133731D01*
X-128150Y133820D01*
X-128004Y133944D01*
X-127889Y134100D01*
X-127807Y134285D01*
X-127758Y134500D01*
X-127741Y134744D01*
X-127756Y134991D01*
X-127802Y135207D01*
X-127877Y135391D01*
X-127983Y135544D01*
X-128123Y135664D01*
X-128300Y135750D01*
X-128515Y135802D01*
X-128767Y135819D01*
X-128998Y135802D01*
X-129199Y135751D01*
X-129369Y135667D01*
X-129508Y135548D01*
X-129616Y135396D01*
X-129693Y135210D01*
X-129740Y134990D01*
X-129755Y134736D01*
X-129740Y134489D01*
X-129693Y134273D01*
X-129616Y134089D01*
X-129507Y133936D01*
X-129368Y133815D01*
X-129198Y133729D01*
X-128998Y133678D01*
X-128767Y133661D01*
G37*
%LPD*%
G36*
X-127336Y122013D02*
X-127675Y122025D01*
X-127995Y122060D01*
X-128296Y122119D01*
X-128579Y122201D01*
X-128842Y122307D01*
X-129087Y122436D01*
X-129313Y122589D01*
X-129519Y122765D01*
X-129705Y122963D01*
X-129865Y123178D01*
X-130001Y123411D01*
X-130112Y123663D01*
X-130198Y123932D01*
X-130260Y124220D01*
X-130297Y124526D01*
X-130309Y124849D01*
X-130286Y125296D01*
X-130218Y125703D01*
X-130105Y126073D01*
X-129945Y126404D01*
X-129741Y126696D01*
X-129494Y126946D01*
X-129202Y127155D01*
X-128866Y127322D01*
X-128618Y126574D01*
X-128857Y126457D01*
X-129067Y126310D01*
X-129246Y126131D01*
X-129395Y125923D01*
X-129513Y125688D01*
X-129597Y125432D01*
X-129647Y125155D01*
X-129664Y124858D01*
X-129654Y124623D01*
X-129625Y124401D01*
X-129577Y124192D01*
X-129509Y123998D01*
X-129421Y123816D01*
X-129314Y123648D01*
X-129188Y123494D01*
X-129042Y123353D01*
X-128879Y123227D01*
X-128702Y123117D01*
X-128510Y123025D01*
X-128304Y122949D01*
X-128084Y122891D01*
X-127849Y122849D01*
X-127600Y122823D01*
X-127336Y122815D01*
X-127075Y122824D01*
X-126827Y122850D01*
X-126592Y122894D01*
X-126370Y122955D01*
X-126161Y123034D01*
X-125966Y123130D01*
X-125783Y123244D01*
X-125614Y123375D01*
X-125461Y123522D01*
X-125329Y123680D01*
X-125217Y123851D01*
X-125125Y124034D01*
X-125054Y124230D01*
X-125003Y124438D01*
X-124973Y124658D01*
X-124963Y124891D01*
X-124981Y125187D01*
X-125038Y125465D01*
X-125133Y125723D01*
X-125265Y125963D01*
X-125436Y126183D01*
X-125644Y126385D01*
X-125890Y126567D01*
X-126174Y126731D01*
X-125852Y127376D01*
X-125498Y127178D01*
X-125189Y126943D01*
X-124925Y126672D01*
X-124706Y126365D01*
X-124534Y126026D01*
X-124412Y125661D01*
X-124338Y125271D01*
X-124319Y125065D01*
X-124313Y124854D01*
X-124336Y124428D01*
X-124405Y124032D01*
X-124519Y123666D01*
X-124679Y123330D01*
X-124882Y123027D01*
X-125124Y122763D01*
X-125405Y122537D01*
X-125725Y122350D01*
X-126081Y122202D01*
X-126468Y122097D01*
X-126887Y122034D01*
X-127336Y122013D01*
G37*
G36*
X-124396Y128322D02*
X-125029Y128322D01*
X-125029Y129806D01*
X-129511Y129806D01*
X-128572Y128491D01*
X-129275Y128491D01*
X-130222Y129868D01*
X-130222Y130554D01*
X-125029Y130554D01*
X-125029Y131973D01*
X-124396Y131973D01*
X-124396Y128322D01*
G37*
G36*
X192528Y141712D02*
X192231Y141722D01*
X191951Y141754D01*
X191686Y141808D01*
X191438Y141883D01*
X191206Y141979D01*
X190991Y142097D01*
X190792Y142236D01*
X190609Y142397D01*
X190445Y142576D01*
X190303Y142773D01*
X190183Y142986D01*
X190085Y143216D01*
X190008Y143462D01*
X189954Y143725D01*
X189921Y144005D01*
X189910Y144302D01*
X189925Y144617D01*
X189970Y144912D01*
X190045Y145187D01*
X190150Y145443D01*
X190286Y145679D01*
X190451Y145895D01*
X190646Y146092D01*
X190871Y146269D01*
X191127Y146425D01*
X191412Y146561D01*
X191728Y146676D01*
X192074Y146770D01*
X192450Y146843D01*
X192857Y146895D01*
X193293Y146927D01*
X193760Y146937D01*
X194247Y146926D01*
X194705Y146891D01*
X195133Y146834D01*
X195533Y146754D01*
X195904Y146651D01*
X196246Y146525D01*
X196559Y146377D01*
X196842Y146205D01*
X197095Y146013D01*
X197314Y145800D01*
X197499Y145569D01*
X197650Y145318D01*
X197768Y145048D01*
X197852Y144758D01*
X197903Y144449D01*
X197919Y144120D01*
X197913Y143898D01*
X197895Y143687D01*
X197865Y143487D01*
X197823Y143299D01*
X197770Y143122D01*
X197704Y142956D01*
X197626Y142802D01*
X197536Y142659D01*
X197432Y142526D01*
X197314Y142404D01*
X197181Y142291D01*
X197034Y142187D01*
X196694Y142010D01*
X196296Y141872D01*
X196146Y142822D01*
X196374Y142908D01*
X196572Y143016D01*
X196739Y143147D01*
X196876Y143300D01*
X196982Y143475D01*
X197058Y143673D01*
X197103Y143894D01*
X197119Y144137D01*
X197106Y144345D01*
X197069Y144540D01*
X197007Y144724D01*
X196920Y144896D01*
X196808Y145056D01*
X196671Y145203D01*
X196510Y145339D01*
X196323Y145462D01*
X196114Y145573D01*
X195883Y145669D01*
X195631Y145751D01*
X195358Y145820D01*
X195064Y145874D01*
X194748Y145915D01*
X194411Y145941D01*
X194053Y145954D01*
X194289Y145824D01*
X194501Y145654D01*
X194688Y145445D01*
X194851Y145197D01*
X194983Y144923D01*
X195077Y144635D01*
X195133Y144334D01*
X195152Y144021D01*
X195141Y143765D01*
X195107Y143522D01*
X195051Y143292D01*
X194973Y143076D01*
X194872Y142873D01*
X194748Y142682D01*
X194602Y142505D01*
X194434Y142341D01*
X194247Y142194D01*
X194046Y142066D01*
X193829Y141958D01*
X193599Y141869D01*
X193353Y141800D01*
X193093Y141751D01*
X192818Y141722D01*
X192528Y141712D01*
G37*
%LPC*%
G36*
X192528Y142723D02*
X192735Y142729D01*
X192931Y142748D01*
X193116Y142781D01*
X193290Y142826D01*
X193453Y142884D01*
X193604Y142956D01*
X193744Y143040D01*
X193873Y143137D01*
X193989Y143245D01*
X194090Y143362D01*
X194175Y143489D01*
X194244Y143624D01*
X194298Y143769D01*
X194337Y143923D01*
X194360Y144086D01*
X194368Y144258D01*
X194356Y144470D01*
X194319Y144674D01*
X194257Y144870D01*
X194172Y145059D01*
X194063Y145234D01*
X193935Y145390D01*
X193786Y145526D01*
X193617Y145642D01*
X193431Y145735D01*
X193233Y145801D01*
X193022Y145841D01*
X192799Y145854D01*
X192570Y145848D01*
X192352Y145828D01*
X192146Y145794D01*
X191952Y145747D01*
X191769Y145686D01*
X191597Y145612D01*
X191437Y145525D01*
X191288Y145424D01*
X191154Y145311D01*
X191038Y145190D01*
X190940Y145059D01*
X190860Y144920D01*
X190797Y144771D01*
X190752Y144613D01*
X190726Y144445D01*
X190717Y144269D01*
X190724Y144094D01*
X190747Y143929D01*
X190785Y143773D01*
X190839Y143627D01*
X190908Y143490D01*
X190992Y143363D01*
X191091Y143245D01*
X191205Y143137D01*
X191333Y143040D01*
X191471Y142956D01*
X191621Y142884D01*
X191781Y142826D01*
X191951Y142781D01*
X192133Y142748D01*
X192325Y142729D01*
X192528Y142723D01*
G37*
%LPD*%
G36*
X193882Y127318D02*
X193429Y127334D01*
X193001Y127381D01*
X192599Y127460D01*
X192222Y127570D01*
X191870Y127711D01*
X191543Y127884D01*
X191242Y128088D01*
X190965Y128324D01*
X190718Y128587D01*
X190504Y128875D01*
X190322Y129186D01*
X190174Y129522D01*
X190059Y129882D01*
X189976Y130267D01*
X189927Y130675D01*
X189910Y131108D01*
X189918Y131412D01*
X189941Y131703D01*
X189979Y131982D01*
X190032Y132248D01*
X190100Y132501D01*
X190184Y132742D01*
X190282Y132970D01*
X190396Y133185D01*
X190525Y133386D01*
X190669Y133574D01*
X190827Y133748D01*
X191000Y133908D01*
X191187Y134054D01*
X191389Y134187D01*
X191606Y134306D01*
X191838Y134411D01*
X192169Y133411D01*
X191850Y133255D01*
X191570Y133058D01*
X191330Y132820D01*
X191131Y132541D01*
X190974Y132227D01*
X190862Y131886D01*
X190794Y131516D01*
X190772Y131119D01*
X190785Y130805D01*
X190824Y130508D01*
X190889Y130230D01*
X190980Y129970D01*
X191097Y129727D01*
X191239Y129503D01*
X191408Y129297D01*
X191603Y129108D01*
X191821Y128940D01*
X192057Y128794D01*
X192313Y128670D01*
X192588Y128569D01*
X192883Y128491D01*
X193197Y128435D01*
X193530Y128401D01*
X193882Y128390D01*
X194231Y128402D01*
X194562Y128437D01*
X194876Y128495D01*
X195172Y128577D01*
X195451Y128682D01*
X195712Y128811D01*
X195956Y128963D01*
X196182Y129138D01*
X196386Y129334D01*
X196563Y129546D01*
X196712Y129774D01*
X196835Y130019D01*
X196930Y130280D01*
X196998Y130558D01*
X197039Y130852D01*
X197052Y131163D01*
X197046Y131364D01*
X197027Y131559D01*
X196951Y131930D01*
X196825Y132275D01*
X196648Y132595D01*
X196420Y132889D01*
X196142Y133159D01*
X195813Y133402D01*
X195434Y133621D01*
X195865Y134483D01*
X196109Y134356D01*
X196337Y134218D01*
X196551Y134067D01*
X196750Y133905D01*
X196934Y133730D01*
X197102Y133543D01*
X197256Y133343D01*
X197395Y133132D01*
X197518Y132910D01*
X197624Y132680D01*
X197715Y132440D01*
X197788Y132192D01*
X197846Y131936D01*
X197887Y131670D01*
X197911Y131396D01*
X197919Y131113D01*
X197912Y130824D01*
X197889Y130545D01*
X197851Y130275D01*
X197797Y130016D01*
X197729Y129767D01*
X197645Y129527D01*
X197545Y129297D01*
X197431Y129078D01*
X197302Y128869D01*
X197160Y128674D01*
X197005Y128491D01*
X196837Y128321D01*
X196656Y128164D01*
X196461Y128019D01*
X196254Y127887D01*
X196033Y127769D01*
X195801Y127663D01*
X195558Y127572D01*
X195305Y127494D01*
X195041Y127431D01*
X194767Y127382D01*
X194482Y127347D01*
X194187Y127325D01*
X193882Y127318D01*
G37*
G36*
X197809Y135762D02*
X196964Y135762D01*
X196964Y137745D01*
X190976Y137745D01*
X192230Y135988D01*
X191291Y135988D01*
X190026Y137828D01*
X190026Y138745D01*
X196964Y138745D01*
X196964Y140639D01*
X197809Y140639D01*
X197809Y135762D01*
G37*
G36*
X-135736Y196243D02*
X-136162Y196266D01*
X-136558Y196335D01*
X-136924Y196449D01*
X-137260Y196609D01*
X-137563Y196812D01*
X-137827Y197054D01*
X-138053Y197335D01*
X-138240Y197655D01*
X-138388Y198011D01*
X-138493Y198398D01*
X-138556Y198817D01*
X-138577Y199266D01*
X-138566Y199605D01*
X-138530Y199925D01*
X-138471Y200226D01*
X-138389Y200509D01*
X-138283Y200772D01*
X-138154Y201017D01*
X-138001Y201243D01*
X-137825Y201449D01*
X-137628Y201635D01*
X-137412Y201795D01*
X-137179Y201931D01*
X-136927Y202042D01*
X-136658Y202128D01*
X-136370Y202190D01*
X-136064Y202227D01*
X-135741Y202239D01*
X-135295Y202216D01*
X-134887Y202148D01*
X-134517Y202035D01*
X-134186Y201875D01*
X-133894Y201671D01*
X-133644Y201424D01*
X-133435Y201132D01*
X-133268Y200796D01*
X-134016Y200548D01*
X-134133Y200787D01*
X-134280Y200997D01*
X-134459Y201176D01*
X-134668Y201325D01*
X-134902Y201443D01*
X-135158Y201527D01*
X-135435Y201577D01*
X-135732Y201594D01*
X-135968Y201584D01*
X-136189Y201555D01*
X-136398Y201507D01*
X-136592Y201439D01*
X-136774Y201351D01*
X-136942Y201244D01*
X-137096Y201118D01*
X-137238Y200972D01*
X-137363Y200809D01*
X-137473Y200632D01*
X-137565Y200440D01*
X-137641Y200234D01*
X-137699Y200014D01*
X-137741Y199779D01*
X-137767Y199530D01*
X-137775Y199266D01*
X-137766Y199005D01*
X-137740Y198757D01*
X-137696Y198522D01*
X-137635Y198300D01*
X-137556Y198091D01*
X-137460Y197896D01*
X-137346Y197713D01*
X-137215Y197544D01*
X-137069Y197391D01*
X-136910Y197259D01*
X-136739Y197147D01*
X-136556Y197055D01*
X-136360Y196984D01*
X-136152Y196933D01*
X-135932Y196903D01*
X-135699Y196893D01*
X-135403Y196911D01*
X-135125Y196968D01*
X-134867Y197063D01*
X-134627Y197195D01*
X-134407Y197366D01*
X-134205Y197574D01*
X-134023Y197820D01*
X-133859Y198104D01*
X-133214Y197782D01*
X-133412Y197428D01*
X-133647Y197119D01*
X-133918Y196855D01*
X-134225Y196636D01*
X-134564Y196464D01*
X-134929Y196342D01*
X-135319Y196268D01*
X-135525Y196249D01*
X-135736Y196243D01*
G37*
G36*
X-128630Y196326D02*
X-132488Y196326D01*
X-132488Y196851D01*
X-132376Y197086D01*
X-132254Y197307D01*
X-132119Y197513D01*
X-131973Y197705D01*
X-131661Y198058D01*
X-131334Y198375D01*
X-130670Y198931D01*
X-130358Y199188D01*
X-130077Y199444D01*
X-129838Y199706D01*
X-129649Y199981D01*
X-129577Y200127D01*
X-129526Y200281D01*
X-129496Y200445D01*
X-129486Y200618D01*
X-129503Y200845D01*
X-129556Y201044D01*
X-129644Y201217D01*
X-129767Y201363D01*
X-129921Y201478D01*
X-130103Y201561D01*
X-130312Y201611D01*
X-130548Y201627D01*
X-130776Y201611D01*
X-130982Y201563D01*
X-131167Y201482D01*
X-131332Y201369D01*
X-131470Y201227D01*
X-131576Y201058D01*
X-131651Y200864D01*
X-131694Y200643D01*
X-132455Y200713D01*
X-132427Y200884D01*
X-132386Y201045D01*
X-132332Y201197D01*
X-132265Y201341D01*
X-132090Y201601D01*
X-131861Y201826D01*
X-131588Y202007D01*
X-131437Y202078D01*
X-131278Y202136D01*
X-131109Y202181D01*
X-130931Y202213D01*
X-130744Y202233D01*
X-130548Y202239D01*
X-130334Y202233D01*
X-130133Y202213D01*
X-129945Y202181D01*
X-129769Y202135D01*
X-129606Y202077D01*
X-129456Y202005D01*
X-129319Y201921D01*
X-129194Y201824D01*
X-129083Y201714D01*
X-128987Y201594D01*
X-128906Y201463D01*
X-128839Y201321D01*
X-128787Y201168D01*
X-128750Y201004D01*
X-128728Y200829D01*
X-128721Y200643D01*
X-128730Y200474D01*
X-128759Y200305D01*
X-128808Y200137D01*
X-128876Y199969D01*
X-128963Y199802D01*
X-129068Y199634D01*
X-129337Y199299D01*
X-129782Y198872D01*
X-130507Y198261D01*
X-130934Y197892D01*
X-131264Y197560D01*
X-131506Y197254D01*
X-131669Y196959D01*
X-128630Y196959D01*
X-128630Y196326D01*
G37*
G36*
X-123911Y196326D02*
X-127769Y196326D01*
X-127769Y196851D01*
X-127658Y197086D01*
X-127535Y197307D01*
X-127400Y197513D01*
X-127254Y197705D01*
X-126942Y198058D01*
X-126615Y198375D01*
X-125952Y198931D01*
X-125639Y199188D01*
X-125358Y199444D01*
X-125119Y199706D01*
X-124930Y199981D01*
X-124859Y200127D01*
X-124808Y200281D01*
X-124777Y200445D01*
X-124767Y200618D01*
X-124784Y200845D01*
X-124837Y201044D01*
X-124925Y201217D01*
X-125048Y201363D01*
X-125202Y201478D01*
X-125384Y201561D01*
X-125593Y201611D01*
X-125830Y201627D01*
X-126057Y201611D01*
X-126263Y201563D01*
X-126449Y201482D01*
X-126613Y201369D01*
X-126751Y201227D01*
X-126858Y201058D01*
X-126932Y200864D01*
X-126975Y200643D01*
X-127736Y200713D01*
X-127708Y200884D01*
X-127668Y201045D01*
X-127614Y201197D01*
X-127546Y201341D01*
X-127371Y201601D01*
X-127142Y201826D01*
X-126869Y202007D01*
X-126718Y202078D01*
X-126559Y202136D01*
X-126390Y202181D01*
X-126212Y202213D01*
X-126026Y202233D01*
X-125830Y202239D01*
X-125616Y202233D01*
X-125415Y202213D01*
X-125226Y202181D01*
X-125051Y202135D01*
X-124888Y202077D01*
X-124737Y202005D01*
X-124600Y201921D01*
X-124475Y201824D01*
X-124364Y201714D01*
X-124268Y201594D01*
X-124187Y201463D01*
X-124120Y201321D01*
X-124068Y201168D01*
X-124031Y201004D01*
X-124009Y200829D01*
X-124002Y200643D01*
X-124012Y200474D01*
X-124041Y200305D01*
X-124089Y200137D01*
X-124157Y199969D01*
X-124244Y199802D01*
X-124350Y199634D01*
X-124618Y199299D01*
X-125064Y198872D01*
X-125788Y198261D01*
X-126215Y197892D01*
X-126545Y197560D01*
X-126787Y197254D01*
X-126950Y196959D01*
X-123911Y196959D01*
X-123911Y196326D01*
G37*
G36*
X147209Y215130D02*
X146718Y215142D01*
X146257Y215176D01*
X145825Y215232D01*
X145422Y215311D01*
X145049Y215413D01*
X144705Y215538D01*
X144390Y215685D01*
X144105Y215854D01*
X143851Y216045D01*
X143631Y216254D01*
X143445Y216483D01*
X143293Y216731D01*
X143174Y216998D01*
X143090Y217284D01*
X143039Y217590D01*
X143022Y217914D01*
X143028Y218130D01*
X143047Y218335D01*
X143078Y218529D01*
X143121Y218714D01*
X143177Y218888D01*
X143245Y219053D01*
X143418Y219351D01*
X143641Y219608D01*
X143914Y219824D01*
X144236Y220000D01*
X144607Y220135D01*
X144779Y219185D01*
X144556Y219101D01*
X144363Y218995D01*
X144200Y218867D01*
X144066Y218718D01*
X143962Y218547D01*
X143888Y218354D01*
X143843Y218140D01*
X143829Y217903D01*
X143841Y217697D01*
X143878Y217502D01*
X143940Y217319D01*
X144027Y217149D01*
X144138Y216990D01*
X144274Y216843D01*
X144435Y216709D01*
X144621Y216586D01*
X144831Y216477D01*
X145062Y216382D01*
X145316Y216302D01*
X145591Y216236D01*
X145889Y216185D01*
X146210Y216148D01*
X146552Y216127D01*
X146916Y216119D01*
X146680Y216268D01*
X146474Y216445D01*
X146298Y216650D01*
X146151Y216882D01*
X146037Y217136D01*
X145955Y217409D01*
X145905Y217700D01*
X145889Y218008D01*
X145899Y218271D01*
X145931Y218519D01*
X145984Y218754D01*
X146057Y218974D01*
X146152Y219181D01*
X146268Y219374D01*
X146405Y219553D01*
X146563Y219718D01*
X146739Y219866D01*
X146929Y219995D01*
X147134Y220103D01*
X147353Y220192D01*
X147586Y220261D01*
X147835Y220311D01*
X148097Y220340D01*
X148375Y220350D01*
X148674Y220340D01*
X148958Y220309D01*
X149225Y220256D01*
X149477Y220183D01*
X149712Y220089D01*
X149930Y219974D01*
X150133Y219839D01*
X150319Y219682D01*
X150486Y219507D01*
X150631Y219316D01*
X150753Y219109D01*
X150853Y218887D01*
X150931Y218648D01*
X150987Y218394D01*
X151020Y218123D01*
X151031Y217837D01*
X151016Y217518D01*
X150970Y217218D01*
X150894Y216938D01*
X150787Y216677D01*
X150650Y216435D01*
X150482Y216213D01*
X150283Y216010D01*
X150054Y215826D01*
X149795Y215663D01*
X149509Y215522D01*
X149195Y215402D01*
X148854Y215304D01*
X148484Y215228D01*
X148087Y215174D01*
X147662Y215141D01*
X147209Y215130D01*
G37*
%LPC*%
G36*
X148181Y216219D02*
X148401Y216226D01*
X148611Y216246D01*
X148811Y216281D01*
X149000Y216330D01*
X149179Y216392D01*
X149349Y216469D01*
X149507Y216559D01*
X149656Y216663D01*
X149791Y216778D01*
X149907Y216901D01*
X150006Y217032D01*
X150087Y217171D01*
X150150Y217317D01*
X150195Y217472D01*
X150222Y217634D01*
X150231Y217804D01*
X150223Y217979D01*
X150200Y218144D01*
X150163Y218299D01*
X150110Y218445D01*
X150042Y218581D01*
X149959Y218707D01*
X149861Y218824D01*
X149747Y218931D01*
X149621Y219027D01*
X149483Y219110D01*
X149334Y219180D01*
X149173Y219237D01*
X149002Y219282D01*
X148819Y219314D01*
X148624Y219333D01*
X148419Y219340D01*
X148214Y219333D01*
X148020Y219314D01*
X147839Y219281D01*
X147670Y219236D01*
X147513Y219178D01*
X147369Y219107D01*
X147236Y219022D01*
X147115Y218925D01*
X147008Y218817D01*
X146915Y218698D01*
X146836Y218569D01*
X146771Y218430D01*
X146721Y218280D01*
X146685Y218121D01*
X146664Y217951D01*
X146657Y217771D01*
X146663Y217601D01*
X146682Y217440D01*
X146714Y217286D01*
X146758Y217142D01*
X146885Y216878D01*
X147063Y216647D01*
X147285Y216459D01*
X147410Y216386D01*
X147545Y216326D01*
X147690Y216279D01*
X147844Y216245D01*
X148008Y216225D01*
X148181Y216219D01*
G37*
%LPD*%
G36*
X146994Y206974D02*
X146541Y206990D01*
X146113Y207037D01*
X145711Y207116D01*
X145334Y207226D01*
X144982Y207367D01*
X144655Y207540D01*
X144354Y207744D01*
X144077Y207980D01*
X143830Y208243D01*
X143616Y208531D01*
X143434Y208842D01*
X143286Y209178D01*
X143171Y209538D01*
X143088Y209923D01*
X143039Y210331D01*
X143022Y210763D01*
X143030Y211068D01*
X143053Y211359D01*
X143091Y211638D01*
X143144Y211904D01*
X143212Y212157D01*
X143296Y212398D01*
X143394Y212625D01*
X143508Y212840D01*
X143637Y213042D01*
X143781Y213230D01*
X143939Y213404D01*
X144112Y213564D01*
X144299Y213710D01*
X144501Y213843D01*
X144718Y213962D01*
X144950Y214067D01*
X145281Y213067D01*
X144962Y212911D01*
X144682Y212714D01*
X144442Y212476D01*
X144243Y212197D01*
X144086Y211883D01*
X143974Y211542D01*
X143906Y211172D01*
X143884Y210775D01*
X143897Y210460D01*
X143936Y210164D01*
X144001Y209886D01*
X144092Y209626D01*
X144209Y209383D01*
X144351Y209159D01*
X144520Y208952D01*
X144715Y208764D01*
X144933Y208596D01*
X145169Y208450D01*
X145425Y208326D01*
X145700Y208225D01*
X145995Y208147D01*
X146309Y208091D01*
X146642Y208057D01*
X146994Y208046D01*
X147343Y208058D01*
X147674Y208093D01*
X147988Y208151D01*
X148284Y208233D01*
X148563Y208338D01*
X148824Y208467D01*
X149068Y208619D01*
X149294Y208794D01*
X149498Y208990D01*
X149675Y209201D01*
X149824Y209430D01*
X149947Y209675D01*
X150042Y209936D01*
X150110Y210214D01*
X150151Y210508D01*
X150164Y210819D01*
X150158Y211020D01*
X150139Y211215D01*
X150063Y211585D01*
X149937Y211931D01*
X149760Y212251D01*
X149532Y212545D01*
X149254Y212815D01*
X148925Y213058D01*
X148546Y213277D01*
X148977Y214138D01*
X149221Y214012D01*
X149449Y213874D01*
X149663Y213723D01*
X149862Y213561D01*
X150046Y213386D01*
X150214Y213199D01*
X150368Y212999D01*
X150507Y212788D01*
X150630Y212566D01*
X150736Y212335D01*
X150827Y212096D01*
X150900Y211848D01*
X150958Y211591D01*
X150999Y211326D01*
X151023Y211052D01*
X151031Y210769D01*
X151024Y210480D01*
X151001Y210201D01*
X150963Y209931D01*
X150909Y209672D01*
X150841Y209422D01*
X150757Y209183D01*
X150657Y208953D01*
X150543Y208734D01*
X150414Y208525D01*
X150272Y208330D01*
X150117Y208147D01*
X149949Y207977D01*
X149768Y207820D01*
X149573Y207675D01*
X149366Y207543D01*
X149145Y207424D01*
X148913Y207319D01*
X148670Y207227D01*
X148417Y207150D01*
X148153Y207087D01*
X147879Y207038D01*
X147594Y207002D01*
X147299Y206981D01*
X146994Y206974D01*
G37*
G36*
X136132Y130464D02*
X135679Y130480D01*
X135251Y130527D01*
X134849Y130605D01*
X134472Y130715D01*
X134120Y130857D01*
X133793Y131029D01*
X133492Y131233D01*
X133215Y131469D01*
X132968Y131733D01*
X132754Y132020D01*
X132572Y132332D01*
X132424Y132668D01*
X132309Y133028D01*
X132226Y133412D01*
X132177Y133820D01*
X132160Y134253D01*
X132168Y134557D01*
X132191Y134849D01*
X132229Y135128D01*
X132282Y135394D01*
X132350Y135647D01*
X132434Y135887D01*
X132532Y136115D01*
X132646Y136330D01*
X132775Y136532D01*
X132919Y136719D01*
X133077Y136893D01*
X133250Y137054D01*
X133437Y137200D01*
X133639Y137333D01*
X133856Y137451D01*
X134088Y137556D01*
X134419Y136556D01*
X134100Y136401D01*
X133820Y136204D01*
X133580Y135966D01*
X133381Y135686D01*
X133224Y135373D01*
X133112Y135031D01*
X133044Y134662D01*
X133022Y134264D01*
X133035Y133950D01*
X133074Y133654D01*
X133139Y133375D01*
X133230Y133115D01*
X133347Y132873D01*
X133489Y132648D01*
X133658Y132442D01*
X133853Y132253D01*
X134071Y132085D01*
X134307Y131939D01*
X134563Y131816D01*
X134838Y131715D01*
X135133Y131636D01*
X135447Y131580D01*
X135780Y131547D01*
X136132Y131535D01*
X136481Y131547D01*
X136812Y131582D01*
X137126Y131641D01*
X137422Y131723D01*
X137701Y131828D01*
X137962Y131956D01*
X138206Y132108D01*
X138432Y132284D01*
X138636Y132479D01*
X138813Y132691D01*
X138962Y132919D01*
X139085Y133164D01*
X139180Y133425D01*
X139248Y133703D01*
X139289Y133998D01*
X139302Y134308D01*
X139296Y134509D01*
X139277Y134704D01*
X139201Y135075D01*
X139075Y135420D01*
X138898Y135740D01*
X138670Y136035D01*
X138392Y136304D01*
X138063Y136548D01*
X137684Y136766D01*
X138115Y137628D01*
X138359Y137502D01*
X138587Y137363D01*
X138801Y137213D01*
X139000Y137050D01*
X139184Y136875D01*
X139352Y136688D01*
X139506Y136489D01*
X139645Y136277D01*
X139768Y136056D01*
X139874Y135825D01*
X139965Y135586D01*
X140038Y135338D01*
X140096Y135081D01*
X140137Y134816D01*
X140161Y134541D01*
X140169Y134259D01*
X140162Y133969D01*
X140139Y133690D01*
X140101Y133421D01*
X140047Y133161D01*
X139979Y132912D01*
X139895Y132672D01*
X139795Y132443D01*
X139681Y132223D01*
X139552Y132015D01*
X139410Y131819D01*
X139255Y131636D01*
X139087Y131466D01*
X138906Y131309D01*
X138711Y131165D01*
X138504Y131033D01*
X138283Y130914D01*
X138051Y130808D01*
X137808Y130717D01*
X137555Y130640D01*
X137291Y130576D01*
X137017Y130527D01*
X136732Y130492D01*
X136437Y130471D01*
X136132Y130464D01*
G37*
G36*
X133121Y138626D02*
X132276Y138626D01*
X132276Y143768D01*
X133083Y143768D01*
X133945Y143215D01*
X134708Y142750D01*
X135373Y142373D01*
X135938Y142083D01*
X136453Y141853D01*
X136964Y141653D01*
X137472Y141484D01*
X137977Y141346D01*
X138484Y141238D01*
X139000Y141162D01*
X139525Y141116D01*
X140059Y141100D01*
X140059Y140062D01*
X139684Y140072D01*
X139303Y140101D01*
X138918Y140151D01*
X138528Y140220D01*
X138133Y140309D01*
X137733Y140417D01*
X137329Y140546D01*
X136919Y140694D01*
X136499Y140866D01*
X136063Y141063D01*
X135612Y141288D01*
X135145Y141539D01*
X134164Y142120D01*
X133121Y142807D01*
X133121Y138626D01*
G37*
G36*
X-108202Y115791D02*
X-108429Y115798D01*
X-108644Y115819D01*
X-108845Y115854D01*
X-109035Y115902D01*
X-109211Y115964D01*
X-109375Y116040D01*
X-109525Y116130D01*
X-109664Y116234D01*
X-109787Y116350D01*
X-109894Y116478D01*
X-109985Y116618D01*
X-110059Y116769D01*
X-110117Y116932D01*
X-110158Y117107D01*
X-110183Y117293D01*
X-110191Y117491D01*
X-110170Y117765D01*
X-110109Y118016D01*
X-110007Y118244D01*
X-109864Y118450D01*
X-109689Y118625D01*
X-109492Y118762D01*
X-109272Y118861D01*
X-109029Y118922D01*
X-109029Y118938D01*
X-109254Y119010D01*
X-109454Y119115D01*
X-109629Y119252D01*
X-109779Y119422D01*
X-109900Y119616D01*
X-109986Y119826D01*
X-110037Y120052D01*
X-110054Y120294D01*
X-110047Y120457D01*
X-110023Y120612D01*
X-109984Y120758D01*
X-109930Y120897D01*
X-109860Y121028D01*
X-109774Y121151D01*
X-109673Y121266D01*
X-109556Y121374D01*
X-109426Y121471D01*
X-109286Y121555D01*
X-109134Y121626D01*
X-108973Y121684D01*
X-108800Y121729D01*
X-108617Y121761D01*
X-108423Y121781D01*
X-108218Y121787D01*
X-108009Y121781D01*
X-107811Y121762D01*
X-107624Y121730D01*
X-107449Y121686D01*
X-107285Y121629D01*
X-107132Y121559D01*
X-106990Y121477D01*
X-106860Y121382D01*
X-106743Y121276D01*
X-106642Y121162D01*
X-106556Y121038D01*
X-106486Y120905D01*
X-106432Y120764D01*
X-106393Y120614D01*
X-106370Y120454D01*
X-106362Y120286D01*
X-106379Y120044D01*
X-106431Y119818D01*
X-106518Y119608D01*
X-106639Y119414D01*
X-106790Y119245D01*
X-106799Y119238D01*
X-106966Y119111D01*
X-107168Y119011D01*
X-107395Y118946D01*
X-107395Y118930D01*
X-107132Y118866D01*
X-106899Y118766D01*
X-106698Y118629D01*
X-106542Y118472D01*
X-106527Y118456D01*
X-106391Y118253D01*
X-106295Y118026D01*
X-106236Y117774D01*
X-106217Y117499D01*
X-106225Y117303D01*
X-106249Y117118D01*
X-106289Y116944D01*
X-106345Y116782D01*
X-106417Y116630D01*
X-106505Y116490D01*
X-106610Y116360D01*
X-106730Y116242D01*
X-106865Y116136D01*
X-107014Y116045D01*
X-107177Y115967D01*
X-107354Y115904D01*
X-107545Y115855D01*
X-107750Y115819D01*
X-107969Y115798D01*
X-108202Y115791D01*
G37*
%LPC*%
G36*
X-108194Y116350D02*
X-107909Y116368D01*
X-107663Y116422D01*
X-107456Y116514D01*
X-107288Y116641D01*
X-107158Y116808D01*
X-107065Y117019D01*
X-107009Y117273D01*
X-106990Y117569D01*
X-107010Y117824D01*
X-107071Y118044D01*
X-107172Y118232D01*
X-107313Y118386D01*
X-107490Y118506D01*
X-107700Y118592D01*
X-107943Y118644D01*
X-108218Y118661D01*
X-108486Y118643D01*
X-108723Y118587D01*
X-108929Y118495D01*
X-109103Y118365D01*
X-109243Y118204D01*
X-109342Y118014D01*
X-109402Y117797D01*
X-109422Y117553D01*
X-109403Y117271D01*
X-109345Y117026D01*
X-109249Y116820D01*
X-109115Y116650D01*
X-108942Y116519D01*
X-108731Y116425D01*
X-108481Y116368D01*
X-108194Y116350D01*
G37*
G36*
X-108210Y119219D02*
X-107963Y119234D01*
X-107748Y119280D01*
X-107563Y119355D01*
X-107410Y119461D01*
X-107290Y119601D01*
X-107204Y119778D01*
X-107152Y119993D01*
X-107135Y120245D01*
X-107152Y120476D01*
X-107203Y120677D01*
X-107287Y120847D01*
X-107406Y120986D01*
X-107558Y121094D01*
X-107744Y121171D01*
X-107964Y121218D01*
X-108218Y121233D01*
X-108465Y121218D01*
X-108681Y121171D01*
X-108865Y121094D01*
X-109019Y120985D01*
X-109139Y120846D01*
X-109225Y120676D01*
X-109276Y120476D01*
X-109294Y120245D01*
X-109276Y120010D01*
X-109223Y119804D01*
X-109134Y119628D01*
X-109010Y119482D01*
X-108854Y119367D01*
X-108669Y119285D01*
X-108454Y119236D01*
X-108210Y119219D01*
G37*
%LPD*%
G36*
X-113382Y115791D02*
X-113807Y115814D01*
X-114203Y115883D01*
X-114569Y115997D01*
X-114906Y116157D01*
X-115208Y116360D01*
X-115472Y116602D01*
X-115698Y116883D01*
X-115886Y117203D01*
X-116033Y117559D01*
X-116138Y117946D01*
X-116202Y118365D01*
X-116223Y118814D01*
X-116211Y119153D01*
X-116176Y119473D01*
X-116117Y119774D01*
X-116034Y120057D01*
X-115929Y120320D01*
X-115799Y120565D01*
X-115646Y120791D01*
X-115470Y120997D01*
X-115273Y121183D01*
X-115057Y121343D01*
X-114824Y121479D01*
X-114573Y121590D01*
X-114303Y121676D01*
X-114015Y121738D01*
X-113710Y121775D01*
X-113386Y121787D01*
X-112940Y121764D01*
X-112532Y121696D01*
X-112162Y121583D01*
X-111831Y121423D01*
X-111540Y121219D01*
X-111289Y120972D01*
X-111081Y120680D01*
X-110913Y120344D01*
X-111662Y120096D01*
X-111778Y120335D01*
X-111926Y120545D01*
X-112104Y120724D01*
X-112313Y120873D01*
X-112548Y120991D01*
X-112803Y121075D01*
X-113080Y121125D01*
X-113378Y121142D01*
X-113613Y121132D01*
X-113835Y121103D01*
X-114043Y121055D01*
X-114238Y120987D01*
X-114419Y120899D01*
X-114587Y120792D01*
X-114742Y120666D01*
X-114883Y120520D01*
X-115009Y120357D01*
X-115118Y120180D01*
X-115210Y119988D01*
X-115286Y119782D01*
X-115345Y119562D01*
X-115387Y119327D01*
X-115412Y119078D01*
X-115420Y118814D01*
X-115412Y118553D01*
X-115385Y118305D01*
X-115342Y118070D01*
X-115280Y117848D01*
X-115201Y117639D01*
X-115105Y117444D01*
X-114991Y117261D01*
X-114860Y117092D01*
X-114714Y116939D01*
X-114555Y116807D01*
X-114384Y116695D01*
X-114201Y116603D01*
X-114005Y116532D01*
X-113797Y116481D01*
X-113577Y116451D01*
X-113345Y116441D01*
X-113048Y116459D01*
X-112771Y116516D01*
X-112512Y116611D01*
X-112272Y116743D01*
X-112052Y116914D01*
X-111850Y117122D01*
X-111668Y117368D01*
X-111504Y117652D01*
X-110859Y117330D01*
X-111057Y116976D01*
X-111292Y116667D01*
X-111563Y116403D01*
X-111870Y116184D01*
X-112209Y116012D01*
X-112574Y115890D01*
X-112965Y115816D01*
X-113170Y115797D01*
X-113382Y115791D01*
G37*
G36*
X-92629Y92791D02*
X-92953Y92809D01*
X-93244Y92863D01*
X-93500Y92953D01*
X-93723Y93079D01*
X-93914Y93244D01*
X-94076Y93454D01*
X-94208Y93709D01*
X-94312Y94007D01*
X-93601Y94119D01*
X-93537Y93948D01*
X-93455Y93800D01*
X-93358Y93675D01*
X-93243Y93573D01*
X-93112Y93493D01*
X-92963Y93436D01*
X-92798Y93402D01*
X-92617Y93391D01*
X-92461Y93400D01*
X-92314Y93428D01*
X-92177Y93475D01*
X-92048Y93540D01*
X-91928Y93623D01*
X-91818Y93726D01*
X-91717Y93847D01*
X-91624Y93986D01*
X-91542Y94143D01*
X-91469Y94316D01*
X-91356Y94709D01*
X-91285Y95166D01*
X-91256Y95686D01*
X-91354Y95509D01*
X-91480Y95350D01*
X-91637Y95210D01*
X-91823Y95088D01*
X-92028Y94990D01*
X-92243Y94919D01*
X-92468Y94877D01*
X-92703Y94863D01*
X-92895Y94871D01*
X-93077Y94897D01*
X-93248Y94939D01*
X-93411Y94997D01*
X-93563Y95073D01*
X-93705Y95165D01*
X-93838Y95275D01*
X-93960Y95401D01*
X-94071Y95540D01*
X-94167Y95691D01*
X-94248Y95853D01*
X-94314Y96026D01*
X-94366Y96210D01*
X-94402Y96405D01*
X-94425Y96610D01*
X-94432Y96827D01*
X-94424Y97050D01*
X-94400Y97260D01*
X-94360Y97458D01*
X-94304Y97643D01*
X-94232Y97817D01*
X-94143Y97978D01*
X-94039Y98127D01*
X-93919Y98264D01*
X-93785Y98387D01*
X-93638Y98493D01*
X-93478Y98583D01*
X-93306Y98656D01*
X-93122Y98714D01*
X-92924Y98755D01*
X-92715Y98779D01*
X-92493Y98787D01*
X-92257Y98776D01*
X-92036Y98742D01*
X-91830Y98686D01*
X-91639Y98607D01*
X-91462Y98506D01*
X-91300Y98383D01*
X-91153Y98236D01*
X-91020Y98068D01*
X-90903Y97877D01*
X-90802Y97663D01*
X-90716Y97426D01*
X-90645Y97167D01*
X-90590Y96886D01*
X-90551Y96581D01*
X-90528Y96255D01*
X-90520Y95905D01*
X-90529Y95541D01*
X-90554Y95198D01*
X-90597Y94877D01*
X-90657Y94578D01*
X-90734Y94300D01*
X-90828Y94044D01*
X-90940Y93810D01*
X-91068Y93598D01*
X-91212Y93409D01*
X-91371Y93245D01*
X-91544Y93106D01*
X-91732Y92993D01*
X-91935Y92905D01*
X-92152Y92842D01*
X-92383Y92804D01*
X-92629Y92791D01*
G37*
%LPC*%
G36*
X-92526Y95450D02*
X-92367Y95459D01*
X-92214Y95487D01*
X-92067Y95533D01*
X-91926Y95597D01*
X-91795Y95678D01*
X-91678Y95774D01*
X-91577Y95886D01*
X-91490Y96013D01*
X-91420Y96152D01*
X-91370Y96300D01*
X-91341Y96458D01*
X-91331Y96625D01*
X-91351Y96959D01*
X-91411Y97259D01*
X-91512Y97524D01*
X-91653Y97756D01*
X-91828Y97943D01*
X-92030Y98077D01*
X-92260Y98157D01*
X-92385Y98177D01*
X-92517Y98184D01*
X-92772Y98161D01*
X-92998Y98092D01*
X-93196Y97978D01*
X-93365Y97818D01*
X-93501Y97618D01*
X-93598Y97387D01*
X-93656Y97123D01*
X-93675Y96827D01*
X-93656Y96525D01*
X-93598Y96257D01*
X-93501Y96022D01*
X-93365Y95820D01*
X-93196Y95658D01*
X-93000Y95543D01*
X-92777Y95473D01*
X-92526Y95450D01*
G37*
%LPD*%
G36*
X-97652Y92791D02*
X-98077Y92814D01*
X-98473Y92883D01*
X-98839Y92997D01*
X-99176Y93157D01*
X-99478Y93360D01*
X-99742Y93602D01*
X-99968Y93883D01*
X-100156Y94203D01*
X-100303Y94559D01*
X-100408Y94946D01*
X-100472Y95365D01*
X-100493Y95814D01*
X-100481Y96153D01*
X-100446Y96473D01*
X-100387Y96774D01*
X-100304Y97057D01*
X-100199Y97320D01*
X-100069Y97565D01*
X-99916Y97791D01*
X-99740Y97997D01*
X-99543Y98183D01*
X-99327Y98343D01*
X-99094Y98479D01*
X-98843Y98590D01*
X-98573Y98676D01*
X-98285Y98738D01*
X-97980Y98775D01*
X-97656Y98787D01*
X-97210Y98764D01*
X-96802Y98696D01*
X-96432Y98583D01*
X-96101Y98423D01*
X-95810Y98219D01*
X-95559Y97972D01*
X-95351Y97680D01*
X-95183Y97344D01*
X-95932Y97096D01*
X-96048Y97335D01*
X-96196Y97545D01*
X-96374Y97724D01*
X-96583Y97873D01*
X-96818Y97991D01*
X-97073Y98075D01*
X-97350Y98125D01*
X-97648Y98142D01*
X-97883Y98132D01*
X-98105Y98103D01*
X-98313Y98055D01*
X-98508Y97987D01*
X-98689Y97899D01*
X-98857Y97792D01*
X-99012Y97666D01*
X-99153Y97520D01*
X-99279Y97357D01*
X-99388Y97180D01*
X-99480Y96988D01*
X-99556Y96782D01*
X-99615Y96562D01*
X-99657Y96327D01*
X-99682Y96078D01*
X-99690Y95814D01*
X-99682Y95553D01*
X-99655Y95305D01*
X-99612Y95070D01*
X-99550Y94848D01*
X-99471Y94639D01*
X-99375Y94444D01*
X-99261Y94261D01*
X-99130Y94092D01*
X-98984Y93939D01*
X-98825Y93807D01*
X-98654Y93695D01*
X-98471Y93603D01*
X-98275Y93532D01*
X-98067Y93481D01*
X-97847Y93451D01*
X-97615Y93441D01*
X-97318Y93459D01*
X-97041Y93516D01*
X-96782Y93611D01*
X-96542Y93743D01*
X-96322Y93914D01*
X-96120Y94122D01*
X-95938Y94368D01*
X-95774Y94652D01*
X-95129Y94330D01*
X-95327Y93976D01*
X-95562Y93667D01*
X-95833Y93403D01*
X-96140Y93184D01*
X-96479Y93012D01*
X-96844Y92890D01*
X-97235Y92816D01*
X-97440Y92797D01*
X-97652Y92791D01*
G37*
G36*
X150713Y195004D02*
X150424Y195011D01*
X150144Y195034D01*
X149875Y195072D01*
X149616Y195126D01*
X149366Y195194D01*
X149127Y195279D01*
X148897Y195378D01*
X148677Y195492D01*
X148469Y195621D01*
X148273Y195763D01*
X148091Y195918D01*
X147921Y196086D01*
X147763Y196267D01*
X147619Y196462D01*
X147487Y196669D01*
X147368Y196890D01*
X147263Y197122D01*
X147171Y197365D01*
X147094Y197618D01*
X147031Y197882D01*
X146981Y198156D01*
X146946Y198441D01*
X146925Y198736D01*
X146918Y199041D01*
X146934Y199494D01*
X146981Y199922D01*
X147059Y200324D01*
X147169Y200701D01*
X147311Y201053D01*
X147483Y201380D01*
X147688Y201681D01*
X147923Y201958D01*
X148187Y202205D01*
X148474Y202419D01*
X148786Y202601D01*
X149122Y202749D01*
X149482Y202865D01*
X149866Y202947D01*
X150275Y202996D01*
X150707Y203013D01*
X151012Y203005D01*
X151303Y202982D01*
X151582Y202945D01*
X151848Y202891D01*
X152101Y202823D01*
X152342Y202739D01*
X152569Y202641D01*
X152784Y202527D01*
X152986Y202398D01*
X153174Y202254D01*
X153348Y202096D01*
X153508Y201923D01*
X153654Y201736D01*
X153787Y201534D01*
X153905Y201317D01*
X154010Y201085D01*
X153011Y200754D01*
X152855Y201073D01*
X152658Y201353D01*
X152420Y201593D01*
X152141Y201792D01*
X151827Y201949D01*
X151485Y202061D01*
X151116Y202129D01*
X150718Y202151D01*
X150404Y202138D01*
X150108Y202099D01*
X149830Y202034D01*
X149569Y201943D01*
X149327Y201826D01*
X149103Y201684D01*
X148896Y201515D01*
X148708Y201320D01*
X148539Y201102D01*
X148393Y200866D01*
X148270Y200610D01*
X148169Y200335D01*
X148091Y200040D01*
X148034Y199726D01*
X148001Y199394D01*
X147990Y199041D01*
X148001Y198692D01*
X148036Y198361D01*
X148095Y198047D01*
X148177Y197751D01*
X148282Y197472D01*
X148411Y197211D01*
X148563Y196967D01*
X148738Y196741D01*
X148933Y196537D01*
X149145Y196360D01*
X149374Y196211D01*
X149618Y196088D01*
X149880Y195993D01*
X150157Y195925D01*
X150452Y195884D01*
X150762Y195871D01*
X150964Y195877D01*
X151159Y195896D01*
X151529Y195972D01*
X151875Y196098D01*
X152194Y196275D01*
X152489Y196503D01*
X152758Y196781D01*
X153002Y197110D01*
X153220Y197489D01*
X154082Y197058D01*
X153956Y196815D01*
X153818Y196586D01*
X153667Y196372D01*
X153504Y196173D01*
X153329Y195989D01*
X153142Y195821D01*
X152943Y195667D01*
X152732Y195528D01*
X152510Y195405D01*
X152279Y195299D01*
X152040Y195209D01*
X151792Y195135D01*
X151535Y195077D01*
X151270Y195036D01*
X150996Y195012D01*
X150713Y195004D01*
G37*
G36*
X160239Y195114D02*
X155361Y195114D01*
X155361Y195959D01*
X157344Y195959D01*
X157344Y201947D01*
X155588Y200693D01*
X155588Y201632D01*
X157427Y202897D01*
X158344Y202897D01*
X158344Y195959D01*
X160239Y195959D01*
X160239Y195114D01*
G37*
G36*
X145317Y195114D02*
X144262Y195114D01*
X144262Y202897D01*
X145317Y202897D01*
X145317Y195114D01*
G37*
G36*
X-109026Y127090D02*
X-112677Y127090D01*
X-112677Y127723D01*
X-111192Y127723D01*
X-111192Y132205D01*
X-112507Y131266D01*
X-112507Y131969D01*
X-111130Y132916D01*
X-110444Y132916D01*
X-110444Y127723D01*
X-109026Y127723D01*
X-109026Y127090D01*
G37*
G36*
X-113581Y127090D02*
X-117315Y127090D01*
X-117315Y132916D01*
X-116525Y132916D01*
X-116525Y127735D01*
X-113581Y127735D01*
X-113581Y127090D01*
G37*
G36*
X213820Y167988D02*
X213119Y167988D01*
X212805Y168137D01*
X212510Y168301D01*
X212235Y168481D01*
X211978Y168676D01*
X211507Y169092D01*
X211083Y169529D01*
X210697Y169975D01*
X210340Y170416D01*
X209998Y170834D01*
X209655Y171208D01*
X209304Y171528D01*
X208937Y171780D01*
X208743Y171876D01*
X208537Y171944D01*
X208318Y171985D01*
X208086Y171998D01*
X207784Y171975D01*
X207518Y171904D01*
X207287Y171787D01*
X207092Y171623D01*
X206938Y171417D01*
X206827Y171174D01*
X206761Y170895D01*
X206739Y170579D01*
X206760Y170275D01*
X206825Y169999D01*
X206933Y169752D01*
X207084Y169532D01*
X207274Y169348D01*
X207499Y169205D01*
X207759Y169106D01*
X208053Y169049D01*
X207959Y168032D01*
X207732Y168069D01*
X207516Y168123D01*
X207313Y168196D01*
X207121Y168286D01*
X206941Y168394D01*
X206774Y168520D01*
X206618Y168663D01*
X206474Y168825D01*
X206344Y169002D01*
X206232Y169190D01*
X206137Y169391D01*
X206059Y169605D01*
X205999Y169830D01*
X205956Y170067D01*
X205930Y170317D01*
X205921Y170579D01*
X205930Y170864D01*
X205956Y171133D01*
X205999Y171385D01*
X206060Y171619D01*
X206138Y171837D01*
X206233Y172038D01*
X206346Y172221D01*
X206476Y172388D01*
X206622Y172536D01*
X206783Y172664D01*
X206958Y172773D01*
X207148Y172862D01*
X207353Y172931D01*
X207572Y172981D01*
X207805Y173010D01*
X208053Y173020D01*
X208279Y173007D01*
X208505Y172968D01*
X208730Y172904D01*
X208954Y172813D01*
X209177Y172697D01*
X209401Y172556D01*
X209625Y172389D01*
X209849Y172197D01*
X210103Y171946D01*
X210419Y171602D01*
X211235Y170634D01*
X211729Y170064D01*
X212171Y169623D01*
X212378Y169448D01*
X212581Y169300D01*
X212780Y169178D01*
X212975Y169082D01*
X212975Y173142D01*
X213820Y173142D01*
X213820Y167988D01*
G37*
G36*
X213820Y162066D02*
X206037Y162066D01*
X206037Y163121D01*
X212958Y163121D01*
X212958Y167054D01*
X213820Y167054D01*
X213820Y162066D01*
G37*
G36*
X-60081Y74757D02*
X-60296Y74764D01*
X-60501Y74782D01*
X-60694Y74813D01*
X-60876Y74857D01*
X-61047Y74913D01*
X-61207Y74982D01*
X-61356Y75063D01*
X-61493Y75156D01*
X-61618Y75262D01*
X-61730Y75380D01*
X-61828Y75509D01*
X-61913Y75651D01*
X-61985Y75805D01*
X-62043Y75970D01*
X-62088Y76148D01*
X-62119Y76337D01*
X-61350Y76407D01*
X-61298Y76165D01*
X-61215Y75955D01*
X-61102Y75777D01*
X-60959Y75632D01*
X-60785Y75519D01*
X-60580Y75438D01*
X-60346Y75390D01*
X-60081Y75373D01*
X-59815Y75391D01*
X-59579Y75443D01*
X-59373Y75529D01*
X-59198Y75650D01*
X-59058Y75806D01*
X-58958Y75995D01*
X-58898Y76217D01*
X-58878Y76473D01*
X-58900Y76698D01*
X-58969Y76897D01*
X-59083Y77069D01*
X-59243Y77216D01*
X-59447Y77332D01*
X-59691Y77416D01*
X-59975Y77466D01*
X-60300Y77482D01*
X-60722Y77482D01*
X-60722Y78127D01*
X-60317Y78127D01*
X-60028Y78144D01*
X-59773Y78194D01*
X-59553Y78277D01*
X-59368Y78394D01*
X-59220Y78540D01*
X-59115Y78712D01*
X-59052Y78909D01*
X-59031Y79132D01*
X-59048Y79354D01*
X-59099Y79550D01*
X-59185Y79723D01*
X-59306Y79870D01*
X-59460Y79989D01*
X-59647Y80074D01*
X-59868Y80124D01*
X-60122Y80141D01*
X-60356Y80125D01*
X-60567Y80078D01*
X-60754Y79999D01*
X-60918Y79889D01*
X-61054Y79750D01*
X-61159Y79585D01*
X-61231Y79394D01*
X-61272Y79178D01*
X-62020Y79236D01*
X-61993Y79410D01*
X-61952Y79574D01*
X-61898Y79728D01*
X-61831Y79872D01*
X-61750Y80007D01*
X-61655Y80132D01*
X-61427Y80352D01*
X-61153Y80528D01*
X-60843Y80653D01*
X-60675Y80697D01*
X-60497Y80728D01*
X-60310Y80747D01*
X-60114Y80753D01*
X-59901Y80747D01*
X-59700Y80728D01*
X-59511Y80696D01*
X-59335Y80651D01*
X-59171Y80594D01*
X-59019Y80524D01*
X-58879Y80441D01*
X-58751Y80346D01*
X-58638Y80239D01*
X-58539Y80122D01*
X-58455Y79995D01*
X-58387Y79858D01*
X-58334Y79712D01*
X-58296Y79555D01*
X-58273Y79388D01*
X-58266Y79211D01*
X-58285Y78945D01*
X-58344Y78705D01*
X-58441Y78491D01*
X-58578Y78303D01*
X-58752Y78143D01*
X-58961Y78010D01*
X-59205Y77906D01*
X-59485Y77830D01*
X-59485Y77813D01*
X-59177Y77759D01*
X-58904Y77668D01*
X-58668Y77540D01*
X-58468Y77375D01*
X-58309Y77179D01*
X-58195Y76959D01*
X-58127Y76716D01*
X-58104Y76449D01*
X-58112Y76253D01*
X-58136Y76068D01*
X-58176Y75895D01*
X-58232Y75733D01*
X-58305Y75583D01*
X-58393Y75444D01*
X-58497Y75316D01*
X-58617Y75200D01*
X-58752Y75096D01*
X-58901Y75006D01*
X-59063Y74930D01*
X-59239Y74868D01*
X-59429Y74820D01*
X-59633Y74785D01*
X-59850Y74764D01*
X-60081Y74757D01*
G37*
G36*
X-62701Y74840D02*
X-66435Y74840D01*
X-66435Y80666D01*
X-65645Y80666D01*
X-65645Y75485D01*
X-62701Y75485D01*
X-62701Y74840D01*
G37*
G36*
X-137168Y158220D02*
X-137958Y158220D01*
X-137958Y164046D01*
X-135216Y164046D01*
X-134977Y164040D01*
X-134752Y164019D01*
X-134541Y163984D01*
X-134344Y163936D01*
X-134161Y163874D01*
X-133992Y163799D01*
X-133838Y163709D01*
X-133697Y163606D01*
X-133571Y163491D01*
X-133462Y163364D01*
X-133370Y163227D01*
X-133295Y163079D01*
X-133236Y162921D01*
X-133195Y162751D01*
X-133170Y162571D01*
X-133161Y162380D01*
X-133185Y162068D01*
X-133256Y161782D01*
X-133374Y161522D01*
X-133540Y161288D01*
X-133747Y161087D01*
X-133916Y160976D01*
X-133990Y160927D01*
X-134269Y160808D01*
X-134584Y160730D01*
X-133880Y159662D01*
X-132930Y158220D01*
X-133839Y158220D01*
X-135353Y160639D01*
X-137168Y160639D01*
X-137168Y158220D01*
G37*
%LPC*%
G36*
X-135262Y161263D02*
X-134967Y161282D01*
X-134708Y161336D01*
X-134485Y161427D01*
X-134296Y161555D01*
X-134147Y161715D01*
X-134040Y161905D01*
X-133976Y162124D01*
X-133955Y162372D01*
X-133977Y162611D01*
X-134041Y162820D01*
X-134149Y162999D01*
X-134300Y163147D01*
X-134492Y163264D01*
X-134722Y163347D01*
X-134989Y163397D01*
X-135295Y163414D01*
X-137168Y163414D01*
X-137168Y161263D01*
X-135262Y161263D01*
G37*
%LPD*%
G36*
X-128262Y158220D02*
X-131914Y158220D01*
X-131914Y158853D01*
X-130429Y158853D01*
X-130429Y163335D01*
X-131744Y162396D01*
X-131744Y163099D01*
X-130367Y164046D01*
X-129681Y164046D01*
X-129681Y158853D01*
X-128262Y158853D01*
X-128262Y158220D01*
G37*
G36*
X-100655Y196897D02*
X-101043Y196920D01*
X-101391Y196986D01*
X-101700Y197097D01*
X-101970Y197253D01*
X-102197Y197451D01*
X-102379Y197688D01*
X-102514Y197965D01*
X-102603Y198283D01*
X-101850Y198369D01*
X-101780Y198167D01*
X-101686Y197991D01*
X-101569Y197843D01*
X-101430Y197721D01*
X-101267Y197627D01*
X-101080Y197559D01*
X-100871Y197519D01*
X-100639Y197505D01*
X-100355Y197528D01*
X-100104Y197596D01*
X-99886Y197709D01*
X-99700Y197867D01*
X-99552Y198065D01*
X-99446Y198297D01*
X-99382Y198562D01*
X-99361Y198861D01*
X-99382Y199123D01*
X-99446Y199359D01*
X-99553Y199568D01*
X-99702Y199751D01*
X-99888Y199899D01*
X-100103Y200005D01*
X-100348Y200068D01*
X-100622Y200090D01*
X-100914Y200066D01*
X-101185Y199995D01*
X-101445Y199866D01*
X-101706Y199672D01*
X-102433Y199672D01*
X-102239Y202806D01*
X-98927Y202806D01*
X-98927Y202174D01*
X-101561Y202174D01*
X-101673Y200325D01*
X-101416Y200488D01*
X-101130Y200604D01*
X-100814Y200674D01*
X-100469Y200697D01*
X-100260Y200690D01*
X-100061Y200666D01*
X-99873Y200627D01*
X-99696Y200571D01*
X-99531Y200500D01*
X-99376Y200414D01*
X-99232Y200311D01*
X-99098Y200193D01*
X-98979Y200062D01*
X-98875Y199922D01*
X-98787Y199772D01*
X-98715Y199612D01*
X-98660Y199443D01*
X-98620Y199264D01*
X-98596Y199076D01*
X-98588Y198878D01*
X-98596Y198654D01*
X-98622Y198442D01*
X-98665Y198242D01*
X-98725Y198054D01*
X-98802Y197879D01*
X-98896Y197716D01*
X-99007Y197565D01*
X-99136Y197427D01*
X-99279Y197303D01*
X-99436Y197195D01*
X-99606Y197104D01*
X-99789Y197030D01*
X-99986Y196972D01*
X-100196Y196930D01*
X-100419Y196906D01*
X-100655Y196897D01*
G37*
G36*
X-103201Y196980D02*
X-106935Y196980D01*
X-106935Y202806D01*
X-106145Y202806D01*
X-106145Y197625D01*
X-103201Y197625D01*
X-103201Y196980D01*
G37*
G36*
X-56855Y-99785D02*
X-59766Y-99785D01*
X-59766Y-92002D01*
X-57192Y-92002D01*
X-56712Y-92018D01*
X-56260Y-92064D01*
X-55836Y-92142D01*
X-55440Y-92250D01*
X-55073Y-92389D01*
X-54734Y-92560D01*
X-54423Y-92761D01*
X-54140Y-92994D01*
X-53888Y-93255D01*
X-53670Y-93542D01*
X-53485Y-93855D01*
X-53334Y-94194D01*
X-53217Y-94560D01*
X-53133Y-94952D01*
X-53082Y-95369D01*
X-53066Y-95814D01*
X-53073Y-96110D01*
X-53095Y-96397D01*
X-53132Y-96674D01*
X-53183Y-96942D01*
X-53249Y-97201D01*
X-53330Y-97450D01*
X-53425Y-97690D01*
X-53535Y-97921D01*
X-53659Y-98140D01*
X-53794Y-98346D01*
X-53943Y-98539D01*
X-54103Y-98718D01*
X-54275Y-98885D01*
X-54460Y-99038D01*
X-54657Y-99178D01*
X-54866Y-99304D01*
X-55086Y-99417D01*
X-55314Y-99515D01*
X-55550Y-99597D01*
X-55794Y-99665D01*
X-56047Y-99717D01*
X-56308Y-99755D01*
X-56577Y-99778D01*
X-56855Y-99785D01*
G37*
%LPC*%
G36*
X-56976Y-98940D02*
X-56561Y-98916D01*
X-56172Y-98846D01*
X-55809Y-98729D01*
X-55471Y-98564D01*
X-55166Y-98356D01*
X-54897Y-98106D01*
X-54667Y-97814D01*
X-54474Y-97482D01*
X-54322Y-97112D01*
X-54213Y-96711D01*
X-54148Y-96278D01*
X-54126Y-95814D01*
X-54139Y-95462D01*
X-54176Y-95133D01*
X-54238Y-94825D01*
X-54324Y-94538D01*
X-54436Y-94273D01*
X-54572Y-94030D01*
X-54733Y-93807D01*
X-54919Y-93607D01*
X-55128Y-93429D01*
X-55360Y-93275D01*
X-55613Y-93144D01*
X-55889Y-93037D01*
X-56187Y-92954D01*
X-56507Y-92895D01*
X-56849Y-92859D01*
X-57214Y-92847D01*
X-58711Y-92847D01*
X-58711Y-98940D01*
X-56976Y-98940D01*
G37*
%LPD*%
G36*
X-61166Y-99785D02*
X-67297Y-99785D01*
X-67297Y-92002D01*
X-61392Y-92002D01*
X-61392Y-92864D01*
X-66242Y-92864D01*
X-66242Y-95361D01*
X-61724Y-95361D01*
X-61724Y-96211D01*
X-66242Y-96211D01*
X-66242Y-98923D01*
X-61166Y-98923D01*
X-61166Y-99785D01*
G37*
G36*
X-46767Y-99785D02*
X-51645Y-99785D01*
X-51645Y-98940D01*
X-49662Y-98940D01*
X-49662Y-92952D01*
X-51418Y-94206D01*
X-51418Y-93267D01*
X-49579Y-92002D01*
X-48662Y-92002D01*
X-48662Y-98940D01*
X-46767Y-98940D01*
X-46767Y-99785D01*
G37*
G36*
X-68591Y-99785D02*
X-73578Y-99785D01*
X-73578Y-92002D01*
X-72523Y-92002D01*
X-72523Y-98923D01*
X-68591Y-98923D01*
X-68591Y-99785D01*
G37*
G36*
X-67339Y-62977D02*
X-68394Y-62977D01*
X-68394Y-55194D01*
X-64732Y-55194D01*
X-64413Y-55203D01*
X-64112Y-55231D01*
X-63830Y-55277D01*
X-63567Y-55341D01*
X-63323Y-55424D01*
X-63097Y-55525D01*
X-62890Y-55645D01*
X-62702Y-55783D01*
X-62535Y-55937D01*
X-62389Y-56106D01*
X-62266Y-56289D01*
X-62166Y-56486D01*
X-62088Y-56698D01*
X-62032Y-56924D01*
X-61998Y-57165D01*
X-61987Y-57420D01*
X-61995Y-57633D01*
X-62019Y-57837D01*
X-62058Y-58032D01*
X-62113Y-58219D01*
X-62184Y-58396D01*
X-62271Y-58566D01*
X-62374Y-58727D01*
X-62492Y-58879D01*
X-62625Y-59020D01*
X-62769Y-59147D01*
X-62925Y-59260D01*
X-62995Y-59302D01*
X-63094Y-59361D01*
X-63274Y-59447D01*
X-63466Y-59520D01*
X-63671Y-59579D01*
X-63887Y-59624D01*
X-62947Y-61052D01*
X-61678Y-62977D01*
X-62893Y-62977D01*
X-64914Y-59746D01*
X-67339Y-59746D01*
X-67339Y-62977D01*
G37*
%LPC*%
G36*
X-64793Y-58912D02*
X-64590Y-58906D01*
X-64400Y-58887D01*
X-64221Y-58857D01*
X-64053Y-58814D01*
X-63898Y-58760D01*
X-63755Y-58693D01*
X-63623Y-58614D01*
X-63503Y-58522D01*
X-63396Y-58420D01*
X-63304Y-58308D01*
X-63225Y-58186D01*
X-63161Y-58055D01*
X-63112Y-57914D01*
X-63076Y-57763D01*
X-63055Y-57602D01*
X-63047Y-57431D01*
X-63055Y-57267D01*
X-63076Y-57112D01*
X-63112Y-56967D01*
X-63163Y-56833D01*
X-63228Y-56708D01*
X-63307Y-56594D01*
X-63401Y-56490D01*
X-63509Y-56396D01*
X-63630Y-56312D01*
X-63765Y-56240D01*
X-64071Y-56128D01*
X-64429Y-56062D01*
X-64837Y-56039D01*
X-67339Y-56039D01*
X-67339Y-58912D01*
X-64793Y-58912D01*
G37*
%LPD*%
G36*
X-58012Y-63088D02*
X-58300Y-63079D01*
X-58573Y-63054D01*
X-58831Y-63013D01*
X-59075Y-62954D01*
X-59303Y-62879D01*
X-59516Y-62788D01*
X-59715Y-62680D01*
X-59898Y-62555D01*
X-60066Y-62413D01*
X-60215Y-62256D01*
X-60346Y-62083D01*
X-60460Y-61894D01*
X-60555Y-61689D01*
X-60633Y-61468D01*
X-60693Y-61231D01*
X-60735Y-60978D01*
X-59708Y-60884D01*
X-59638Y-61207D01*
X-59527Y-61488D01*
X-59376Y-61725D01*
X-59185Y-61919D01*
X-58952Y-62070D01*
X-58679Y-62178D01*
X-58366Y-62243D01*
X-58012Y-62265D01*
X-57657Y-62241D01*
X-57342Y-62172D01*
X-57067Y-62056D01*
X-56833Y-61895D01*
X-56732Y-61796D01*
X-56646Y-61687D01*
X-56572Y-61566D01*
X-56512Y-61435D01*
X-56465Y-61292D01*
X-56431Y-61137D01*
X-56411Y-60972D01*
X-56405Y-60795D01*
X-56412Y-60641D01*
X-56435Y-60495D01*
X-56473Y-60358D01*
X-56527Y-60230D01*
X-56596Y-60110D01*
X-56680Y-59999D01*
X-56779Y-59897D01*
X-56894Y-59804D01*
X-57023Y-59720D01*
X-57165Y-59648D01*
X-57321Y-59587D01*
X-57491Y-59537D01*
X-57871Y-59470D01*
X-58305Y-59448D01*
X-58868Y-59448D01*
X-58868Y-58586D01*
X-58327Y-58586D01*
X-57941Y-58564D01*
X-57601Y-58497D01*
X-57307Y-58385D01*
X-57059Y-58230D01*
X-56862Y-58034D01*
X-56785Y-57924D01*
X-56722Y-57805D01*
X-56672Y-57677D01*
X-56637Y-57541D01*
X-56616Y-57397D01*
X-56609Y-57244D01*
X-56632Y-56948D01*
X-56701Y-56685D01*
X-56816Y-56455D01*
X-56976Y-56258D01*
X-57182Y-56099D01*
X-57433Y-55986D01*
X-57728Y-55918D01*
X-58067Y-55896D01*
X-58380Y-55917D01*
X-58662Y-55980D01*
X-58912Y-56085D01*
X-59131Y-56233D01*
X-59312Y-56418D01*
X-59452Y-56639D01*
X-59549Y-56894D01*
X-59603Y-57183D01*
X-60603Y-57105D01*
X-60566Y-56873D01*
X-60512Y-56654D01*
X-60439Y-56448D01*
X-60349Y-56255D01*
X-60241Y-56075D01*
X-60115Y-55908D01*
X-59972Y-55755D01*
X-59810Y-55614D01*
X-59633Y-55489D01*
X-59445Y-55380D01*
X-59244Y-55288D01*
X-59031Y-55212D01*
X-58805Y-55154D01*
X-58568Y-55112D01*
X-58318Y-55087D01*
X-58056Y-55078D01*
X-57772Y-55087D01*
X-57503Y-55112D01*
X-57251Y-55155D01*
X-57016Y-55214D01*
X-56796Y-55291D01*
X-56593Y-55384D01*
X-56407Y-55495D01*
X-56236Y-55622D01*
X-56084Y-55765D01*
X-55952Y-55921D01*
X-55841Y-56091D01*
X-55749Y-56273D01*
X-55678Y-56470D01*
X-55628Y-56679D01*
X-55597Y-56902D01*
X-55587Y-57139D01*
X-55594Y-57321D01*
X-55613Y-57494D01*
X-55646Y-57659D01*
X-55691Y-57815D01*
X-55822Y-58100D01*
X-56004Y-58351D01*
X-56236Y-58566D01*
X-56516Y-58743D01*
X-56843Y-58882D01*
X-57217Y-58984D01*
X-57217Y-59006D01*
X-57005Y-59035D01*
X-56804Y-59077D01*
X-56617Y-59132D01*
X-56441Y-59199D01*
X-56277Y-59278D01*
X-56125Y-59370D01*
X-55985Y-59474D01*
X-55858Y-59591D01*
X-55744Y-59718D01*
X-55645Y-59853D01*
X-55562Y-59996D01*
X-55493Y-60146D01*
X-55440Y-60305D01*
X-55402Y-60471D01*
X-55379Y-60646D01*
X-55372Y-60828D01*
X-55382Y-61090D01*
X-55415Y-61337D01*
X-55468Y-61568D01*
X-55543Y-61784D01*
X-55639Y-61985D01*
X-55757Y-62171D01*
X-55896Y-62341D01*
X-56057Y-62497D01*
X-56237Y-62635D01*
X-56436Y-62755D01*
X-56653Y-62857D01*
X-56888Y-62940D01*
X-57142Y-63004D01*
X-57413Y-63051D01*
X-57704Y-63078D01*
X-58012Y-63088D01*
G37*
G36*
X64539Y194520D02*
X63484Y194520D01*
X63484Y202303D01*
X66760Y202303D01*
X67078Y202293D01*
X67377Y202265D01*
X67658Y202217D01*
X67921Y202150D01*
X68165Y202063D01*
X68391Y201958D01*
X68598Y201833D01*
X68787Y201690D01*
X68955Y201529D01*
X69101Y201352D01*
X69225Y201159D01*
X69326Y200951D01*
X69404Y200727D01*
X69460Y200487D01*
X69494Y200232D01*
X69505Y199961D01*
X69494Y199692D01*
X69460Y199437D01*
X69404Y199196D01*
X69325Y198969D01*
X69223Y198757D01*
X69100Y198559D01*
X68953Y198374D01*
X68784Y198204D01*
X68596Y198052D01*
X68392Y197919D01*
X68171Y197807D01*
X67934Y197715D01*
X67681Y197644D01*
X67412Y197593D01*
X67127Y197563D01*
X66826Y197553D01*
X64539Y197553D01*
X64539Y194520D01*
G37*
%LPC*%
G36*
X66677Y198387D02*
X66891Y198393D01*
X67091Y198411D01*
X67278Y198442D01*
X67450Y198484D01*
X67609Y198539D01*
X67754Y198606D01*
X67885Y198686D01*
X68003Y198777D01*
X68106Y198881D01*
X68196Y198997D01*
X68272Y199125D01*
X68334Y199266D01*
X68382Y199419D01*
X68417Y199583D01*
X68438Y199760D01*
X68444Y199950D01*
X68437Y200132D01*
X68416Y200303D01*
X68381Y200462D01*
X68331Y200610D01*
X68268Y200745D01*
X68190Y200869D01*
X68098Y200981D01*
X67992Y201081D01*
X67871Y201169D01*
X67737Y201246D01*
X67588Y201310D01*
X67425Y201363D01*
X67248Y201405D01*
X67057Y201434D01*
X66852Y201452D01*
X66633Y201458D01*
X64539Y201458D01*
X64539Y198387D01*
X66677Y198387D01*
G37*
%LPD*%
G36*
X59627Y194520D02*
X58578Y194520D01*
X58578Y201441D01*
X55904Y201441D01*
X55904Y202303D01*
X62301Y202303D01*
X62301Y201441D01*
X59627Y201441D01*
X59627Y194520D01*
G37*
G36*
X75827Y194520D02*
X70949Y194520D01*
X70949Y195365D01*
X72932Y195365D01*
X72932Y201353D01*
X71176Y200099D01*
X71176Y201038D01*
X73015Y202303D01*
X73932Y202303D01*
X73932Y195365D01*
X75827Y195365D01*
X75827Y194520D01*
G37*
G36*
X62789Y-158200D02*
X61734Y-158200D01*
X61734Y-150417D01*
X65010Y-150417D01*
X65328Y-150427D01*
X65627Y-150455D01*
X65908Y-150503D01*
X66171Y-150570D01*
X66415Y-150657D01*
X66641Y-150762D01*
X66848Y-150887D01*
X67037Y-151030D01*
X67205Y-151191D01*
X67351Y-151368D01*
X67475Y-151561D01*
X67576Y-151769D01*
X67654Y-151993D01*
X67710Y-152233D01*
X67744Y-152488D01*
X67755Y-152759D01*
X67744Y-153028D01*
X67710Y-153283D01*
X67654Y-153524D01*
X67575Y-153751D01*
X67473Y-153963D01*
X67350Y-154162D01*
X67203Y-154346D01*
X67034Y-154516D01*
X66846Y-154668D01*
X66642Y-154801D01*
X66421Y-154913D01*
X66184Y-155005D01*
X65931Y-155076D01*
X65662Y-155127D01*
X65377Y-155157D01*
X65076Y-155168D01*
X62789Y-155168D01*
X62789Y-158200D01*
G37*
%LPC*%
G36*
X64927Y-154333D02*
X65141Y-154327D01*
X65341Y-154309D01*
X65528Y-154278D01*
X65700Y-154236D01*
X65859Y-154181D01*
X66004Y-154114D01*
X66135Y-154034D01*
X66253Y-153943D01*
X66356Y-153839D01*
X66446Y-153723D01*
X66522Y-153595D01*
X66584Y-153454D01*
X66632Y-153301D01*
X66667Y-153137D01*
X66688Y-152960D01*
X66694Y-152770D01*
X66687Y-152588D01*
X66666Y-152417D01*
X66631Y-152258D01*
X66581Y-152111D01*
X66518Y-151975D01*
X66440Y-151851D01*
X66348Y-151739D01*
X66242Y-151639D01*
X66121Y-151551D01*
X65987Y-151474D01*
X65838Y-151410D01*
X65675Y-151357D01*
X65498Y-151315D01*
X65307Y-151286D01*
X65102Y-151268D01*
X64883Y-151262D01*
X62789Y-151262D01*
X62789Y-154333D01*
X64927Y-154333D01*
G37*
%LPD*%
G36*
X71492Y-158310D02*
X71203Y-158302D01*
X70930Y-158277D01*
X70672Y-158236D01*
X70429Y-158177D01*
X70201Y-158102D01*
X69987Y-158011D01*
X69789Y-157902D01*
X69605Y-157777D01*
X69438Y-157636D01*
X69289Y-157479D01*
X69157Y-157306D01*
X69044Y-157117D01*
X68948Y-156912D01*
X68870Y-156691D01*
X68810Y-156453D01*
X68768Y-156200D01*
X69796Y-156107D01*
X69866Y-156430D01*
X69976Y-156711D01*
X70127Y-156948D01*
X70319Y-157142D01*
X70551Y-157293D01*
X70824Y-157401D01*
X71138Y-157466D01*
X71492Y-157487D01*
X71847Y-157464D01*
X72162Y-157395D01*
X72437Y-157279D01*
X72671Y-157117D01*
X72771Y-157019D01*
X72858Y-156910D01*
X72932Y-156789D01*
X72992Y-156658D01*
X73039Y-156515D01*
X73072Y-156360D01*
X73092Y-156195D01*
X73099Y-156018D01*
X73091Y-155864D01*
X73068Y-155718D01*
X73030Y-155581D01*
X72977Y-155453D01*
X72908Y-155333D01*
X72824Y-155222D01*
X72725Y-155120D01*
X72610Y-155027D01*
X72481Y-154943D01*
X72339Y-154871D01*
X72182Y-154810D01*
X72013Y-154759D01*
X71633Y-154693D01*
X71199Y-154670D01*
X70635Y-154670D01*
X70635Y-153809D01*
X71177Y-153809D01*
X71562Y-153786D01*
X71902Y-153720D01*
X72196Y-153608D01*
X72444Y-153452D01*
X72641Y-153257D01*
X72719Y-153147D01*
X72782Y-153028D01*
X72831Y-152900D01*
X72866Y-152764D01*
X72888Y-152620D01*
X72895Y-152466D01*
X72872Y-152171D01*
X72803Y-151908D01*
X72688Y-151678D01*
X72527Y-151480D01*
X72321Y-151322D01*
X72071Y-151209D01*
X71776Y-151141D01*
X71436Y-151119D01*
X71123Y-151140D01*
X70842Y-151203D01*
X70592Y-151308D01*
X70373Y-151456D01*
X70191Y-151641D01*
X70052Y-151862D01*
X69955Y-152116D01*
X69901Y-152406D01*
X68901Y-152328D01*
X68937Y-152096D01*
X68992Y-151877D01*
X69064Y-151671D01*
X69154Y-151478D01*
X69262Y-151298D01*
X69388Y-151131D01*
X69532Y-150977D01*
X69694Y-150837D01*
X69870Y-150711D01*
X70059Y-150603D01*
X70260Y-150510D01*
X70473Y-150435D01*
X70698Y-150377D01*
X70936Y-150335D01*
X71186Y-150310D01*
X71447Y-150301D01*
X71732Y-150310D01*
X72000Y-150335D01*
X72252Y-150378D01*
X72488Y-150437D01*
X72707Y-150514D01*
X72910Y-150607D01*
X73097Y-150718D01*
X73267Y-150845D01*
X73420Y-150988D01*
X73551Y-151144D01*
X73663Y-151314D01*
X73754Y-151496D01*
X73825Y-151693D01*
X73876Y-151902D01*
X73906Y-152125D01*
X73916Y-152361D01*
X73910Y-152544D01*
X73890Y-152717D01*
X73858Y-152882D01*
X73812Y-153037D01*
X73682Y-153323D01*
X73499Y-153574D01*
X73267Y-153789D01*
X72988Y-153965D01*
X72661Y-154105D01*
X72287Y-154206D01*
X72287Y-154229D01*
X72499Y-154258D01*
X72699Y-154300D01*
X72887Y-154355D01*
X73063Y-154422D01*
X73227Y-154501D01*
X73379Y-154593D01*
X73518Y-154697D01*
X73646Y-154814D01*
X73760Y-154941D01*
X73858Y-155076D01*
X73942Y-155218D01*
X74010Y-155369D01*
X74063Y-155528D01*
X74101Y-155694D01*
X74124Y-155869D01*
X74132Y-156051D01*
X74121Y-156313D01*
X74089Y-156559D01*
X74036Y-156791D01*
X73961Y-157007D01*
X73864Y-157208D01*
X73747Y-157394D01*
X73607Y-157564D01*
X73447Y-157719D01*
X73267Y-157858D01*
X73068Y-157978D01*
X72851Y-158080D01*
X72616Y-158163D01*
X72362Y-158227D01*
X72090Y-158274D01*
X71800Y-158301D01*
X71492Y-158310D01*
G37*
G36*
X57877Y-158200D02*
X56828Y-158200D01*
X56828Y-151279D01*
X54154Y-151279D01*
X54154Y-150417D01*
X60551Y-150417D01*
X60551Y-151279D01*
X57877Y-151279D01*
X57877Y-158200D01*
G37*
G36*
X-249282Y144789D02*
X-249487Y145728D01*
X-249179Y145816D01*
X-248911Y145941D01*
X-248684Y146104D01*
X-248498Y146305D01*
X-248350Y146546D01*
X-248237Y146830D01*
X-248159Y147158D01*
X-248141Y147316D01*
X-248117Y147529D01*
X-250857Y147529D01*
X-251087Y146702D01*
X-251138Y146558D01*
X-251193Y146402D01*
X-251293Y146178D01*
X-251501Y145841D01*
X-251616Y145699D01*
X-251738Y145576D01*
X-251998Y145378D01*
X-252135Y145304D01*
X-252276Y145244D01*
X-252427Y145200D01*
X-252593Y145168D01*
X-252772Y145149D01*
X-252967Y145142D01*
X-253175Y145152D01*
X-253372Y145181D01*
X-253556Y145230D01*
X-253730Y145298D01*
X-253891Y145385D01*
X-254041Y145492D01*
X-254180Y145618D01*
X-254306Y145764D01*
X-254420Y145927D01*
X-254521Y146107D01*
X-254608Y146303D01*
X-254681Y146516D01*
X-254741Y146744D01*
X-254787Y146989D01*
X-254820Y147251D01*
X-254839Y147529D01*
X-255563Y147529D01*
X-255563Y148213D01*
X-254839Y148213D01*
X-254821Y148464D01*
X-254791Y148701D01*
X-254750Y148922D01*
X-254698Y149129D01*
X-254634Y149321D01*
X-254558Y149499D01*
X-254471Y149662D01*
X-254373Y149810D01*
X-254261Y149945D01*
X-254135Y150071D01*
X-253994Y150186D01*
X-253839Y150290D01*
X-253669Y150385D01*
X-253484Y150468D01*
X-253072Y150605D01*
X-252889Y149644D01*
X-253135Y149575D01*
X-253351Y149477D01*
X-253539Y149351D01*
X-253699Y149197D01*
X-253829Y149009D01*
X-253931Y148782D01*
X-254005Y148517D01*
X-254049Y148213D01*
X-251591Y148213D01*
X-251369Y149059D01*
X-251265Y149375D01*
X-251166Y149619D01*
X-251066Y149817D01*
X-250960Y149993D01*
X-250848Y150147D01*
X-250730Y150279D01*
X-250603Y150394D01*
X-250465Y150493D01*
X-250315Y150579D01*
X-250155Y150649D01*
X-249982Y150705D01*
X-249795Y150745D01*
X-249593Y150769D01*
X-249376Y150776D01*
X-249154Y150766D01*
X-248943Y150735D01*
X-248743Y150682D01*
X-248555Y150609D01*
X-248377Y150515D01*
X-248211Y150400D01*
X-248056Y150265D01*
X-247913Y150108D01*
X-247782Y149932D01*
X-247667Y149739D01*
X-247567Y149528D01*
X-247483Y149300D01*
X-247414Y149055D01*
X-247361Y148792D01*
X-247322Y148511D01*
X-247299Y148213D01*
X-246405Y148213D01*
X-246405Y147529D01*
X-247299Y147529D01*
X-247319Y147242D01*
X-247352Y146971D01*
X-247399Y146715D01*
X-247461Y146475D01*
X-247536Y146250D01*
X-247625Y146040D01*
X-247728Y145846D01*
X-247845Y145667D01*
X-247976Y145503D01*
X-248121Y145355D01*
X-248279Y145222D01*
X-248452Y145105D01*
X-248639Y145003D01*
X-248839Y144916D01*
X-249054Y144845D01*
X-249282Y144789D01*
G37*
%LPC*%
G36*
X-248111Y148213D02*
X-248140Y148463D01*
X-248153Y148580D01*
X-248229Y148902D01*
X-248338Y149178D01*
X-248482Y149409D01*
X-248657Y149592D01*
X-248863Y149722D01*
X-249099Y149800D01*
X-249228Y149820D01*
X-249365Y149826D01*
X-249537Y149817D01*
X-249693Y149790D01*
X-249832Y149746D01*
X-249956Y149683D01*
X-250067Y149603D01*
X-250168Y149507D01*
X-250259Y149396D01*
X-250340Y149268D01*
X-250419Y149101D01*
X-250505Y148869D01*
X-250697Y148213D01*
X-248111Y148213D01*
G37*
G36*
X-252978Y146092D02*
X-252821Y146101D01*
X-252677Y146127D01*
X-252545Y146170D01*
X-252425Y146230D01*
X-252422Y146233D01*
X-252317Y146308D01*
X-252217Y146402D01*
X-252126Y146514D01*
X-252044Y146642D01*
X-251967Y146800D01*
X-251890Y147000D01*
X-251735Y147529D01*
X-254060Y147529D01*
X-254027Y147192D01*
X-253964Y146900D01*
X-253872Y146653D01*
X-253751Y146451D01*
X-253601Y146294D01*
X-253422Y146182D01*
X-253215Y146115D01*
X-252978Y146092D01*
G37*
%LPD*%
G36*
X-248951Y151208D02*
X-249724Y151208D01*
X-254972Y154771D01*
X-254972Y155815D01*
X-249735Y155815D01*
X-249735Y156909D01*
X-248951Y156909D01*
X-248951Y155815D01*
X-247189Y155815D01*
X-247189Y154876D01*
X-248951Y154876D01*
X-248951Y151208D01*
G37*
%LPC*%
G36*
X-249735Y152125D02*
X-249735Y154876D01*
X-253851Y154876D01*
X-253558Y154721D01*
X-253193Y154506D01*
X-250255Y152512D01*
X-249846Y152213D01*
X-249735Y152125D01*
G37*
%LPD*%
G36*
X-250017Y137384D02*
X-254972Y137384D01*
X-254972Y138439D01*
X-250106Y138439D01*
X-249847Y138447D01*
X-249605Y138473D01*
X-249378Y138515D01*
X-249168Y138574D01*
X-248974Y138650D01*
X-248795Y138743D01*
X-248633Y138853D01*
X-248487Y138980D01*
X-248358Y139123D01*
X-248245Y139281D01*
X-248150Y139454D01*
X-248073Y139642D01*
X-248012Y139844D01*
X-247969Y140062D01*
X-247943Y140295D01*
X-247935Y140543D01*
X-247944Y140798D01*
X-247970Y141039D01*
X-248015Y141265D01*
X-248078Y141476D01*
X-248158Y141673D01*
X-248256Y141855D01*
X-248372Y142023D01*
X-248506Y142176D01*
X-248658Y142312D01*
X-248825Y142430D01*
X-249009Y142531D01*
X-249210Y142613D01*
X-249427Y142676D01*
X-249661Y142722D01*
X-249911Y142749D01*
X-250177Y142758D01*
X-254972Y142758D01*
X-254972Y143808D01*
X-250117Y143808D01*
X-249884Y143802D01*
X-249661Y143783D01*
X-249445Y143751D01*
X-249237Y143708D01*
X-248846Y143583D01*
X-248487Y143407D01*
X-248165Y143186D01*
X-247883Y142924D01*
X-247641Y142620D01*
X-247440Y142275D01*
X-247282Y141893D01*
X-247169Y141477D01*
X-247101Y141030D01*
X-247079Y140549D01*
X-247100Y140086D01*
X-247166Y139654D01*
X-247274Y139252D01*
X-247427Y138881D01*
X-247620Y138544D01*
X-247853Y138248D01*
X-248126Y137992D01*
X-248437Y137776D01*
X-248785Y137604D01*
X-249164Y137482D01*
X-249575Y137408D01*
X-249792Y137390D01*
X-250017Y137384D01*
G37*
G36*
X-77807Y97973D02*
X-81516Y97973D01*
X-81516Y98763D01*
X-77873Y98763D01*
X-77680Y98769D01*
X-77498Y98788D01*
X-77329Y98820D01*
X-77171Y98864D01*
X-77026Y98921D01*
X-76893Y98991D01*
X-76771Y99073D01*
X-76662Y99168D01*
X-76565Y99275D01*
X-76481Y99394D01*
X-76410Y99523D01*
X-76352Y99664D01*
X-76306Y99815D01*
X-76274Y99979D01*
X-76255Y100153D01*
X-76248Y100339D01*
X-76255Y100530D01*
X-76275Y100710D01*
X-76308Y100879D01*
X-76355Y101037D01*
X-76415Y101184D01*
X-76489Y101321D01*
X-76576Y101446D01*
X-76676Y101561D01*
X-76789Y101663D01*
X-76915Y101751D01*
X-77053Y101826D01*
X-77203Y101888D01*
X-77365Y101935D01*
X-77540Y101970D01*
X-77728Y101990D01*
X-77927Y101997D01*
X-81516Y101997D01*
X-81516Y102783D01*
X-77882Y102783D01*
X-77540Y102764D01*
X-77223Y102708D01*
X-76930Y102614D01*
X-76662Y102483D01*
X-76420Y102317D01*
X-76209Y102121D01*
X-76029Y101893D01*
X-75878Y101635D01*
X-75760Y101349D01*
X-75675Y101038D01*
X-75624Y100703D01*
X-75607Y100343D01*
X-75624Y99996D01*
X-75672Y99673D01*
X-75754Y99372D01*
X-75868Y99094D01*
X-76013Y98842D01*
X-76187Y98620D01*
X-76391Y98429D01*
X-76625Y98267D01*
X-76885Y98138D01*
X-77168Y98047D01*
X-77476Y97992D01*
X-77807Y97973D01*
G37*
G36*
X-75690Y104059D02*
X-76323Y104059D01*
X-76323Y105543D01*
X-80805Y105543D01*
X-79866Y104228D01*
X-80569Y104228D01*
X-81516Y105605D01*
X-81516Y106292D01*
X-76323Y106292D01*
X-76323Y107710D01*
X-75690Y107710D01*
X-75690Y104059D01*
G37*
G36*
X-86656Y201538D02*
X-87529Y201538D01*
X-85312Y204565D01*
X-87359Y207364D01*
X-86487Y207364D01*
X-84866Y205077D01*
X-83290Y207364D01*
X-82418Y207364D01*
X-84411Y204593D01*
X-82248Y201538D01*
X-83121Y201538D01*
X-84870Y204085D01*
X-86656Y201538D01*
G37*
G36*
X-77798Y201538D02*
X-81449Y201538D01*
X-81449Y202170D01*
X-79965Y202170D01*
X-79965Y206653D01*
X-81280Y205714D01*
X-81280Y206417D01*
X-79903Y207364D01*
X-79216Y207364D01*
X-79216Y202170D01*
X-77798Y202170D01*
X-77798Y201538D01*
G37*
G36*
X-77220Y-150142D02*
X-85003Y-150142D01*
X-85003Y-146480D01*
X-84994Y-146161D01*
X-84966Y-145860D01*
X-84920Y-145578D01*
X-84856Y-145315D01*
X-84773Y-145071D01*
X-84672Y-144845D01*
X-84552Y-144638D01*
X-84415Y-144450D01*
X-84260Y-144282D01*
X-84092Y-144137D01*
X-83909Y-144014D01*
X-83711Y-143913D01*
X-83499Y-143835D01*
X-83273Y-143779D01*
X-83032Y-143746D01*
X-82777Y-143735D01*
X-82564Y-143742D01*
X-82360Y-143766D01*
X-82165Y-143806D01*
X-81979Y-143861D01*
X-81801Y-143932D01*
X-81631Y-144019D01*
X-81471Y-144122D01*
X-81319Y-144240D01*
X-81178Y-144372D01*
X-81050Y-144517D01*
X-80937Y-144673D01*
X-80895Y-144743D01*
X-80837Y-144841D01*
X-80750Y-145022D01*
X-80677Y-145214D01*
X-80618Y-145418D01*
X-80573Y-145635D01*
X-79146Y-144694D01*
X-77220Y-143425D01*
X-77220Y-144640D01*
X-80451Y-146662D01*
X-80451Y-149087D01*
X-77220Y-149087D01*
X-77220Y-150142D01*
G37*
%LPC*%
G36*
X-81285Y-149087D02*
X-81285Y-146541D01*
X-81292Y-146338D01*
X-81310Y-146147D01*
X-81340Y-145968D01*
X-81383Y-145801D01*
X-81438Y-145646D01*
X-81504Y-145502D01*
X-81584Y-145371D01*
X-81675Y-145251D01*
X-81777Y-145144D01*
X-81889Y-145051D01*
X-82011Y-144973D01*
X-82142Y-144909D01*
X-82284Y-144859D01*
X-82435Y-144824D01*
X-82595Y-144802D01*
X-82766Y-144795D01*
X-82931Y-144802D01*
X-83085Y-144824D01*
X-83230Y-144860D01*
X-83364Y-144910D01*
X-83489Y-144975D01*
X-83603Y-145055D01*
X-83707Y-145148D01*
X-83801Y-145256D01*
X-83885Y-145378D01*
X-83957Y-145512D01*
X-84069Y-145819D01*
X-84135Y-146177D01*
X-84158Y-146585D01*
X-84158Y-149087D01*
X-81285Y-149087D01*
G37*
%LPD*%
G36*
X-77220Y-141986D02*
X-85003Y-141986D01*
X-85003Y-136081D01*
X-84141Y-136081D01*
X-84141Y-140931D01*
X-81644Y-140931D01*
X-81644Y-136412D01*
X-80794Y-136412D01*
X-80794Y-140931D01*
X-78082Y-140931D01*
X-78082Y-135855D01*
X-77220Y-135855D01*
X-77220Y-141986D01*
G37*
G36*
X-77220Y-126892D02*
X-85003Y-126892D01*
X-85003Y-120987D01*
X-84141Y-120987D01*
X-84141Y-125837D01*
X-81644Y-125837D01*
X-81644Y-121319D01*
X-80794Y-121319D01*
X-80794Y-125837D01*
X-78082Y-125837D01*
X-78082Y-120761D01*
X-77220Y-120761D01*
X-77220Y-126892D01*
G37*
G36*
X-79087Y-134869D02*
X-79291Y-133847D01*
X-79122Y-133797D01*
X-78964Y-133734D01*
X-78818Y-133658D01*
X-78683Y-133571D01*
X-78560Y-133471D01*
X-78449Y-133358D01*
X-78349Y-133233D01*
X-78261Y-133096D01*
X-78117Y-132783D01*
X-78015Y-132418D01*
X-77953Y-132001D01*
X-77933Y-131533D01*
X-77954Y-131051D01*
X-78020Y-130627D01*
X-78070Y-130437D01*
X-78130Y-130262D01*
X-78201Y-130102D01*
X-78283Y-129956D01*
X-78376Y-129825D01*
X-78479Y-129713D01*
X-78593Y-129617D01*
X-78716Y-129539D01*
X-78850Y-129478D01*
X-78994Y-129435D01*
X-79149Y-129409D01*
X-79313Y-129400D01*
X-79495Y-129411D01*
X-79659Y-129444D01*
X-79804Y-129498D01*
X-79932Y-129574D01*
X-80046Y-129670D01*
X-80149Y-129784D01*
X-80242Y-129915D01*
X-80324Y-130063D01*
X-80467Y-130408D01*
X-80584Y-130814D01*
X-80810Y-131781D01*
X-81015Y-132592D01*
X-81117Y-132915D01*
X-81219Y-133181D01*
X-81324Y-133408D01*
X-81435Y-133609D01*
X-81552Y-133785D01*
X-81675Y-133935D01*
X-81806Y-134065D01*
X-81948Y-134179D01*
X-82100Y-134277D01*
X-82263Y-134358D01*
X-82438Y-134422D01*
X-82625Y-134468D01*
X-82824Y-134495D01*
X-83036Y-134504D01*
X-83279Y-134492D01*
X-83508Y-134456D01*
X-83722Y-134397D01*
X-83922Y-134313D01*
X-84107Y-134205D01*
X-84278Y-134074D01*
X-84435Y-133919D01*
X-84578Y-133739D01*
X-84704Y-133538D01*
X-84814Y-133315D01*
X-84907Y-133073D01*
X-84984Y-132809D01*
X-85043Y-132525D01*
X-85085Y-132220D01*
X-85110Y-131895D01*
X-85119Y-131549D01*
X-85113Y-131227D01*
X-85093Y-130925D01*
X-85062Y-130643D01*
X-85017Y-130379D01*
X-84960Y-130136D01*
X-84890Y-129912D01*
X-84808Y-129707D01*
X-84713Y-129522D01*
X-84602Y-129353D01*
X-84474Y-129197D01*
X-84328Y-129055D01*
X-84164Y-128925D01*
X-83982Y-128809D01*
X-83782Y-128706D01*
X-83565Y-128616D01*
X-83329Y-128539D01*
X-83147Y-129577D01*
X-83435Y-129682D01*
X-83681Y-129826D01*
X-83884Y-130008D01*
X-84045Y-130229D01*
X-84167Y-130492D01*
X-84254Y-130802D01*
X-84306Y-131158D01*
X-84323Y-131560D01*
X-84304Y-131999D01*
X-84246Y-132383D01*
X-84149Y-132712D01*
X-84014Y-132985D01*
X-83932Y-133100D01*
X-83840Y-133200D01*
X-83739Y-133285D01*
X-83629Y-133354D01*
X-83509Y-133408D01*
X-83379Y-133446D01*
X-83240Y-133469D01*
X-83092Y-133477D01*
X-82920Y-133465D01*
X-82764Y-133429D01*
X-82623Y-133370D01*
X-82498Y-133286D01*
X-82385Y-133180D01*
X-82281Y-133054D01*
X-82186Y-132906D01*
X-82100Y-132737D01*
X-82014Y-132513D01*
X-81919Y-132200D01*
X-81700Y-131306D01*
X-81531Y-130591D01*
X-81437Y-130242D01*
X-81327Y-129909D01*
X-81198Y-129593D01*
X-81048Y-129298D01*
X-80870Y-129032D01*
X-80656Y-128804D01*
X-80403Y-128617D01*
X-80109Y-128475D01*
X-79945Y-128423D01*
X-79766Y-128386D01*
X-79574Y-128364D01*
X-79369Y-128356D01*
X-79107Y-128370D01*
X-78861Y-128409D01*
X-78629Y-128475D01*
X-78413Y-128567D01*
X-78212Y-128685D01*
X-78026Y-128830D01*
X-77856Y-129001D01*
X-77701Y-129199D01*
X-77562Y-129420D01*
X-77442Y-129663D01*
X-77340Y-129927D01*
X-77257Y-130213D01*
X-77193Y-130520D01*
X-77146Y-130849D01*
X-77119Y-131199D01*
X-77110Y-131571D01*
X-77117Y-131917D01*
X-77140Y-132245D01*
X-77179Y-132554D01*
X-77233Y-132844D01*
X-77303Y-133116D01*
X-77388Y-133368D01*
X-77488Y-133603D01*
X-77604Y-133818D01*
X-77735Y-134015D01*
X-77882Y-134193D01*
X-78044Y-134352D01*
X-78222Y-134493D01*
X-78415Y-134615D01*
X-78624Y-134718D01*
X-78848Y-134803D01*
X-79087Y-134869D01*
G37*
G36*
X-84141Y-120035D02*
X-85003Y-120035D01*
X-85003Y-113638D01*
X-84141Y-113638D01*
X-84141Y-116312D01*
X-77220Y-116312D01*
X-77220Y-117361D01*
X-84141Y-117361D01*
X-84141Y-120035D01*
G37*
G36*
X5811Y197870D02*
X5465Y197877D01*
X5138Y197900D01*
X4829Y197939D01*
X4538Y197993D01*
X4267Y198063D01*
X4014Y198148D01*
X3780Y198248D01*
X3565Y198364D01*
X3368Y198495D01*
X3190Y198642D01*
X3030Y198804D01*
X2890Y198982D01*
X2768Y199175D01*
X2664Y199384D01*
X2580Y199608D01*
X2514Y199847D01*
X3536Y200051D01*
X3586Y199882D01*
X3649Y199724D01*
X3724Y199578D01*
X3812Y199443D01*
X3912Y199320D01*
X4024Y199209D01*
X4149Y199109D01*
X4287Y199021D01*
X4600Y198877D01*
X4965Y198775D01*
X5382Y198713D01*
X5850Y198693D01*
X6332Y198714D01*
X6755Y198780D01*
X6945Y198830D01*
X7120Y198890D01*
X7281Y198961D01*
X7427Y199043D01*
X7557Y199136D01*
X7670Y199239D01*
X7765Y199353D01*
X7843Y199476D01*
X7904Y199610D01*
X7947Y199754D01*
X7973Y199909D01*
X7982Y200073D01*
X7971Y200255D01*
X7939Y200419D01*
X7884Y200564D01*
X7808Y200692D01*
X7712Y200806D01*
X7599Y200909D01*
X7468Y201002D01*
X7319Y201084D01*
X6974Y201227D01*
X6568Y201344D01*
X5601Y201570D01*
X4790Y201775D01*
X4468Y201877D01*
X4201Y201979D01*
X3975Y202084D01*
X3774Y202195D01*
X3598Y202312D01*
X3447Y202435D01*
X3317Y202566D01*
X3203Y202708D01*
X3106Y202860D01*
X3025Y203023D01*
X2961Y203198D01*
X2915Y203385D01*
X2887Y203584D01*
X2878Y203796D01*
X2890Y204039D01*
X2926Y204268D01*
X2986Y204482D01*
X3070Y204682D01*
X3177Y204867D01*
X3309Y205038D01*
X3464Y205195D01*
X3643Y205338D01*
X3845Y205464D01*
X4067Y205574D01*
X4310Y205667D01*
X4573Y205744D01*
X4857Y205803D01*
X5162Y205845D01*
X5487Y205870D01*
X5833Y205879D01*
X6155Y205873D01*
X6457Y205853D01*
X6740Y205822D01*
X7003Y205777D01*
X7247Y205720D01*
X7471Y205650D01*
X7675Y205568D01*
X7861Y205473D01*
X8029Y205362D01*
X8185Y205234D01*
X8328Y205088D01*
X8457Y204924D01*
X8574Y204742D01*
X8677Y204542D01*
X8767Y204325D01*
X8844Y204089D01*
X7805Y203907D01*
X7700Y204195D01*
X7557Y204441D01*
X7375Y204644D01*
X7154Y204805D01*
X6890Y204927D01*
X6581Y205014D01*
X6225Y205066D01*
X5822Y205083D01*
X5383Y205064D01*
X4999Y205006D01*
X4671Y204909D01*
X4397Y204774D01*
X4282Y204692D01*
X4182Y204600D01*
X4098Y204499D01*
X4029Y204389D01*
X3975Y204269D01*
X3936Y204139D01*
X3913Y204000D01*
X3906Y203852D01*
X3918Y203680D01*
X3953Y203524D01*
X4013Y203383D01*
X4096Y203258D01*
X4202Y203145D01*
X4329Y203041D01*
X4477Y202946D01*
X4646Y202860D01*
X4870Y202774D01*
X5183Y202679D01*
X6076Y202460D01*
X6792Y202291D01*
X7140Y202197D01*
X7474Y202087D01*
X7790Y201958D01*
X8084Y201808D01*
X8350Y201630D01*
X8579Y201416D01*
X8766Y201163D01*
X8907Y200869D01*
X8959Y200705D01*
X8996Y200526D01*
X9019Y200334D01*
X9026Y200129D01*
X9013Y199867D01*
X8973Y199621D01*
X8908Y199389D01*
X8816Y199173D01*
X8697Y198972D01*
X8552Y198786D01*
X8381Y198616D01*
X8184Y198461D01*
X7962Y198322D01*
X7720Y198202D01*
X7455Y198100D01*
X7169Y198017D01*
X6862Y197953D01*
X6533Y197906D01*
X6183Y197879D01*
X5811Y197870D01*
G37*
G36*
X15254Y197980D02*
X10100Y197980D01*
X10100Y198682D01*
X10249Y198995D01*
X10413Y199290D01*
X10593Y199565D01*
X10788Y199822D01*
X11204Y200293D01*
X11641Y200717D01*
X12087Y201103D01*
X12528Y201460D01*
X12946Y201802D01*
X13320Y202145D01*
X13640Y202496D01*
X13892Y202863D01*
X13988Y203057D01*
X14056Y203263D01*
X14097Y203482D01*
X14110Y203714D01*
X14087Y204016D01*
X14016Y204283D01*
X13899Y204513D01*
X13735Y204708D01*
X13529Y204863D01*
X13286Y204973D01*
X13007Y205039D01*
X12691Y205061D01*
X12387Y205040D01*
X12111Y204975D01*
X11864Y204867D01*
X11644Y204716D01*
X11460Y204526D01*
X11317Y204301D01*
X11218Y204041D01*
X11161Y203747D01*
X10144Y203841D01*
X10181Y204068D01*
X10235Y204284D01*
X10308Y204487D01*
X10398Y204679D01*
X10506Y204859D01*
X10632Y205026D01*
X10775Y205182D01*
X10937Y205326D01*
X11114Y205456D01*
X11302Y205568D01*
X11503Y205663D01*
X11717Y205741D01*
X11942Y205801D01*
X12179Y205844D01*
X12429Y205870D01*
X12691Y205879D01*
X12976Y205870D01*
X13245Y205844D01*
X13497Y205801D01*
X13731Y205740D01*
X13949Y205662D01*
X14150Y205567D01*
X14333Y205454D01*
X14500Y205324D01*
X14648Y205178D01*
X14777Y205017D01*
X14885Y204842D01*
X14974Y204652D01*
X15043Y204447D01*
X15093Y204228D01*
X15122Y203995D01*
X15132Y203747D01*
X15119Y203521D01*
X15080Y203295D01*
X15016Y203070D01*
X14925Y202846D01*
X14809Y202623D01*
X14668Y202399D01*
X14501Y202175D01*
X14309Y201952D01*
X14058Y201697D01*
X13714Y201381D01*
X12746Y200565D01*
X12176Y200071D01*
X11735Y199629D01*
X11561Y199422D01*
X11412Y199219D01*
X11290Y199020D01*
X11194Y198825D01*
X15254Y198825D01*
X15254Y197980D01*
G37*
G36*
X-14189Y-205110D02*
X-14535Y-205103D01*
X-14862Y-205080D01*
X-15171Y-205041D01*
X-15462Y-204987D01*
X-15733Y-204917D01*
X-15986Y-204832D01*
X-16220Y-204732D01*
X-16435Y-204616D01*
X-16632Y-204485D01*
X-16810Y-204338D01*
X-16970Y-204176D01*
X-17110Y-203998D01*
X-17232Y-203805D01*
X-17336Y-203596D01*
X-17420Y-203372D01*
X-17486Y-203133D01*
X-16464Y-202929D01*
X-16414Y-203098D01*
X-16351Y-203256D01*
X-16276Y-203402D01*
X-16188Y-203537D01*
X-16088Y-203660D01*
X-15976Y-203771D01*
X-15851Y-203871D01*
X-15713Y-203959D01*
X-15400Y-204103D01*
X-15035Y-204205D01*
X-14619Y-204267D01*
X-14150Y-204287D01*
X-13668Y-204266D01*
X-13245Y-204200D01*
X-13055Y-204150D01*
X-12880Y-204090D01*
X-12719Y-204019D01*
X-12573Y-203937D01*
X-12443Y-203844D01*
X-12330Y-203741D01*
X-12235Y-203627D01*
X-12157Y-203504D01*
X-12096Y-203370D01*
X-12053Y-203226D01*
X-12027Y-203071D01*
X-12018Y-202907D01*
X-12029Y-202725D01*
X-12061Y-202561D01*
X-12116Y-202416D01*
X-12192Y-202288D01*
X-12288Y-202174D01*
X-12401Y-202071D01*
X-12532Y-201978D01*
X-12681Y-201896D01*
X-13026Y-201753D01*
X-13432Y-201636D01*
X-14399Y-201410D01*
X-15210Y-201205D01*
X-15532Y-201103D01*
X-15799Y-201001D01*
X-16025Y-200896D01*
X-16226Y-200785D01*
X-16402Y-200668D01*
X-16553Y-200545D01*
X-16683Y-200414D01*
X-16797Y-200272D01*
X-16894Y-200120D01*
X-16975Y-199957D01*
X-17039Y-199782D01*
X-17085Y-199595D01*
X-17113Y-199396D01*
X-17122Y-199184D01*
X-17110Y-198941D01*
X-17074Y-198712D01*
X-17014Y-198498D01*
X-16931Y-198298D01*
X-16823Y-198113D01*
X-16691Y-197942D01*
X-16536Y-197785D01*
X-16357Y-197642D01*
X-16155Y-197516D01*
X-15933Y-197406D01*
X-15690Y-197313D01*
X-15427Y-197236D01*
X-15143Y-197177D01*
X-14838Y-197135D01*
X-14513Y-197110D01*
X-14167Y-197101D01*
X-13845Y-197108D01*
X-13543Y-197127D01*
X-13260Y-197158D01*
X-12997Y-197203D01*
X-12753Y-197260D01*
X-12529Y-197330D01*
X-12325Y-197412D01*
X-12139Y-197507D01*
X-11971Y-197618D01*
X-11815Y-197746D01*
X-11672Y-197892D01*
X-11543Y-198056D01*
X-11427Y-198238D01*
X-11323Y-198438D01*
X-11233Y-198655D01*
X-11156Y-198891D01*
X-12195Y-199073D01*
X-12300Y-198785D01*
X-12443Y-198539D01*
X-12625Y-198336D01*
X-12846Y-198176D01*
X-13110Y-198053D01*
X-13420Y-197966D01*
X-13775Y-197914D01*
X-14178Y-197897D01*
X-14617Y-197916D01*
X-15001Y-197974D01*
X-15329Y-198071D01*
X-15603Y-198206D01*
X-15718Y-198288D01*
X-15818Y-198380D01*
X-15902Y-198481D01*
X-15971Y-198591D01*
X-16025Y-198711D01*
X-16064Y-198841D01*
X-16087Y-198980D01*
X-16094Y-199128D01*
X-16082Y-199300D01*
X-16047Y-199456D01*
X-15987Y-199597D01*
X-15904Y-199722D01*
X-15798Y-199835D01*
X-15671Y-199939D01*
X-15523Y-200034D01*
X-15354Y-200120D01*
X-15130Y-200206D01*
X-14817Y-200301D01*
X-13924Y-200520D01*
X-13208Y-200689D01*
X-12860Y-200783D01*
X-12526Y-200893D01*
X-12211Y-201022D01*
X-11916Y-201172D01*
X-11650Y-201350D01*
X-11421Y-201564D01*
X-11234Y-201817D01*
X-11093Y-202111D01*
X-11041Y-202275D01*
X-11004Y-202454D01*
X-10981Y-202646D01*
X-10974Y-202851D01*
X-10987Y-203113D01*
X-11027Y-203359D01*
X-11092Y-203591D01*
X-11184Y-203807D01*
X-11303Y-204008D01*
X-11448Y-204194D01*
X-11619Y-204364D01*
X-11816Y-204519D01*
X-12038Y-204658D01*
X-12280Y-204778D01*
X-12545Y-204880D01*
X-12831Y-204963D01*
X-13138Y-205027D01*
X-13467Y-205074D01*
X-13817Y-205101D01*
X-14189Y-205110D01*
G37*
G36*
X-4730Y-205000D02*
X-9607Y-205000D01*
X-9607Y-204155D01*
X-7624Y-204155D01*
X-7624Y-198167D01*
X-9381Y-199421D01*
X-9381Y-198482D01*
X-7541Y-197217D01*
X-6624Y-197217D01*
X-6624Y-204155D01*
X-4730Y-204155D01*
X-4730Y-205000D01*
G37*
G36*
X109481Y103269D02*
X104361Y103269D01*
X104361Y118137D01*
X89354Y118137D01*
X89354Y123291D01*
X104361Y123291D01*
X104361Y138159D01*
X109481Y138159D01*
X109481Y123291D01*
X124488Y123291D01*
X124488Y118137D01*
X109481Y118137D01*
X109481Y103269D01*
G37*
G36*
X118730Y-130509D02*
X113120Y-130509D01*
X113120Y-112977D01*
X118730Y-112977D01*
X118730Y-130509D01*
G37*
D10*
X-97640Y164736D02*
X-108640Y164736D01*
X-108640Y152164D02*
X-97640Y152164D01*
X-97257Y178556D02*
X-108257Y178556D01*
X-108257Y165984D02*
X-97257Y165984D01*
X-17550Y118126D02*
X-6550Y118126D01*
X-6550Y105554D02*
X-17550Y105554D01*
X-17550Y128286D02*
X-6550Y128286D01*
X-6550Y115714D02*
X-17550Y115714D01*
X-17550Y139716D02*
X-6550Y139716D01*
X-6550Y127144D02*
X-17550Y127144D01*
X-17820Y164196D02*
X-6820Y164196D01*
X-6820Y151624D02*
X-17820Y151624D01*
X-17550Y151146D02*
X-6550Y151146D01*
X-6550Y138574D02*
X-17550Y138574D01*
X-92044Y138170D02*
X-92044Y149170D01*
X-104616Y149170D02*
X-104616Y138170D01*
X-134556Y142170D02*
X-134556Y153170D01*
X-121984Y153170D02*
X-121984Y142170D01*
X169159Y145870D02*
X169159Y128370D01*
X185141Y128370D02*
X185141Y145870D01*
X-121740Y191976D02*
X-132740Y191976D01*
X-132740Y179404D02*
X-121740Y179404D01*
X169571Y212880D02*
X169571Y230380D01*
X153589Y230380D02*
X153589Y212880D01*
X144409Y145870D02*
X144409Y128370D01*
X160391Y128370D02*
X160391Y145870D01*
X-90500Y112714D02*
X-101500Y112714D01*
X-101500Y125286D02*
X-90500Y125286D01*
X-90500Y100714D02*
X-101500Y100714D01*
X-101500Y113286D02*
X-90500Y113286D01*
D11*
X177560Y159964D03*
D12*
X172520Y161864D02*
X151520Y161864D01*
X151520Y171964D01*
X151520Y193036D02*
X172520Y193036D01*
X151520Y193036D02*
X151520Y182936D01*
D10*
X-107800Y145950D02*
X-118800Y145950D01*
X-118800Y133230D02*
X-107800Y133230D01*
X217820Y195720D02*
X217820Y203720D01*
X197820Y203720D02*
X197820Y195720D01*
X-56920Y84190D02*
X-67920Y84190D01*
X-67920Y96910D02*
X-56920Y96910D01*
X-137740Y153950D02*
X-148740Y153950D01*
X-148740Y141230D02*
X-137740Y141230D01*
X-108420Y179330D02*
X-97420Y179330D01*
X-97420Y192050D02*
X-108420Y192050D01*
D13*
X-62800Y-84800D02*
X-62800Y-89400D01*
X-62800Y-84800D02*
X-62800Y-80200D01*
X-59700Y-82462D02*
X-62800Y-84800D01*
X-62646Y-85054D02*
X-59700Y-86984D01*
D10*
X-56592Y-77627D02*
X-67592Y-77627D01*
X-67592Y-64907D02*
X-56592Y-64907D01*
D14*
X-36128Y161944D02*
X-36126Y162033D01*
X-36120Y162122D01*
X-36110Y162211D01*
X-36096Y162299D01*
X-36079Y162386D01*
X-36057Y162472D01*
X-36031Y162558D01*
X-36002Y162642D01*
X-35969Y162725D01*
X-35933Y162806D01*
X-35892Y162886D01*
X-35849Y162963D01*
X-35802Y163039D01*
X-35751Y163112D01*
X-35698Y163183D01*
X-35641Y163252D01*
X-35581Y163318D01*
X-35518Y163382D01*
X-35453Y163442D01*
X-35385Y163500D01*
X-35314Y163554D01*
X-35241Y163605D01*
X-35166Y163653D01*
X-35089Y163698D01*
X-35010Y163739D01*
X-34929Y163776D01*
X-34847Y163810D01*
X-34763Y163841D01*
X-34678Y163867D01*
X-34592Y163890D01*
X-34505Y163908D01*
X-34417Y163923D01*
X-34328Y163934D01*
X-34239Y163941D01*
X-34150Y163944D01*
X-34061Y163943D01*
X-33972Y163938D01*
X-33884Y163929D01*
X-33795Y163916D01*
X-33708Y163899D01*
X-33621Y163879D01*
X-33535Y163854D01*
X-33451Y163826D01*
X-33368Y163794D01*
X-33286Y163758D01*
X-33206Y163719D01*
X-33128Y163676D01*
X-33052Y163630D01*
X-32978Y163580D01*
X-32906Y163527D01*
X-32837Y163471D01*
X-32770Y163412D01*
X-32706Y163350D01*
X-32645Y163286D01*
X-32586Y163218D01*
X-32531Y163148D01*
X-32479Y163076D01*
X-32430Y163001D01*
X-32385Y162925D01*
X-32343Y162846D01*
X-32305Y162766D01*
X-32270Y162684D01*
X-32239Y162600D01*
X-32211Y162515D01*
X-32188Y162429D01*
X-32168Y162342D01*
X-32152Y162255D01*
X-32140Y162166D01*
X-32132Y162078D01*
X-32128Y161989D01*
X-32128Y161899D01*
X-32132Y161810D01*
X-32140Y161722D01*
X-32152Y161633D01*
X-32168Y161546D01*
X-32188Y161459D01*
X-32211Y161373D01*
X-32239Y161288D01*
X-32270Y161204D01*
X-32305Y161122D01*
X-32343Y161042D01*
X-32385Y160963D01*
X-32430Y160887D01*
X-32479Y160812D01*
X-32531Y160740D01*
X-32586Y160670D01*
X-32645Y160602D01*
X-32706Y160538D01*
X-32770Y160476D01*
X-32837Y160417D01*
X-32906Y160361D01*
X-32978Y160308D01*
X-33052Y160258D01*
X-33128Y160212D01*
X-33206Y160169D01*
X-33286Y160130D01*
X-33368Y160094D01*
X-33451Y160062D01*
X-33535Y160034D01*
X-33621Y160009D01*
X-33708Y159989D01*
X-33795Y159972D01*
X-33884Y159959D01*
X-33972Y159950D01*
X-34061Y159945D01*
X-34150Y159944D01*
X-34239Y159947D01*
X-34328Y159954D01*
X-34417Y159965D01*
X-34505Y159980D01*
X-34592Y159998D01*
X-34678Y160021D01*
X-34763Y160047D01*
X-34847Y160078D01*
X-34929Y160112D01*
X-35010Y160149D01*
X-35089Y160190D01*
X-35166Y160235D01*
X-35241Y160283D01*
X-35314Y160334D01*
X-35385Y160388D01*
X-35453Y160446D01*
X-35518Y160506D01*
X-35581Y160570D01*
X-35641Y160636D01*
X-35698Y160705D01*
X-35751Y160776D01*
X-35802Y160849D01*
X-35849Y160925D01*
X-35892Y161002D01*
X-35933Y161082D01*
X-35969Y161163D01*
X-36002Y161246D01*
X-36031Y161330D01*
X-36057Y161416D01*
X-36079Y161502D01*
X-36096Y161589D01*
X-36110Y161677D01*
X-36120Y161766D01*
X-36126Y161855D01*
X-36128Y161944D01*
D10*
X-78690Y119320D02*
X-78690Y116320D01*
X-75690Y116320D01*
X-78690Y153320D02*
X-78690Y156320D01*
X-75690Y156320D01*
X-41690Y156320D02*
X-38690Y156320D01*
X-38690Y153320D01*
X-38690Y116320D02*
X-41690Y116320D01*
X-38690Y116320D02*
X-38690Y119320D01*
X-56019Y196838D02*
X-85019Y196838D01*
X-56019Y196838D02*
X-56019Y170838D01*
X-85019Y170838D01*
X-85019Y196838D01*
X-90019Y196838D01*
X-90019Y170838D01*
X-85019Y170838D01*
D15*
X-87019Y167838D03*
D10*
X-49720Y-116070D02*
X-49720Y-150070D01*
X-74720Y-150070D02*
X-74720Y-116070D01*
X-17000Y208480D02*
X17000Y208480D01*
X17000Y233480D02*
X-17000Y233480D01*
X-17000Y-232500D02*
X17000Y-232500D01*
X17000Y-207500D02*
X-17000Y-207500D01*
M02*
