G04 EAGLE Gerber RS-274X export*
G75*
%MOMM*%
%FSLAX34Y34*%
%LPD*%
%INSolderpaste Top*%
%IPPOS*%
%AMOC8*
5,1,8,0,0,1.08239X$1,22.5*%
G01*
G04 Define Apertures*
%ADD10R,0.560000X0.629100*%
%ADD11R,0.629100X0.560000*%
%ADD12R,0.970200X0.920900*%
%ADD13R,1.120200X0.589100*%
%ADD14R,0.535100X0.644000*%
%ADD15R,4.000000X1.500000*%
%ADD16R,0.800000X0.800000*%
%ADD17C,1.500000*%
%ADD18R,1.700000X1.300000*%
%ADD19R,0.650000X0.500000*%
%ADD20C,0.140000*%
%ADD21R,1.230000X1.230000*%
%ADD22R,0.875000X0.775000*%
%ADD23R,1.700000X1.000000*%
%ADD24R,1.000000X1.700000*%
%ADD25R,5.080000X8.130000*%
D10*
X-107986Y158450D03*
X-98294Y158450D03*
X-107603Y172270D03*
X-97911Y172270D03*
X-16896Y111840D03*
X-7204Y111840D03*
X-16896Y122000D03*
X-7204Y122000D03*
X-16896Y133430D03*
X-7204Y133430D03*
X-17166Y157910D03*
X-7474Y157910D03*
X-16896Y144860D03*
X-7204Y144860D03*
D11*
X-98330Y148516D03*
X-98330Y138824D03*
X-128270Y142824D03*
X-128270Y152516D03*
D12*
X177150Y129374D03*
X177150Y144866D03*
D10*
X-132086Y185690D03*
X-122394Y185690D03*
D12*
X161580Y229376D03*
X161580Y213884D03*
X152400Y129374D03*
X152400Y144866D03*
D10*
X-91154Y119000D03*
X-100846Y119000D03*
X-91154Y107000D03*
X-100846Y107000D03*
D13*
X175020Y167950D03*
X175020Y186950D03*
X149020Y177450D03*
D14*
X-118375Y139590D03*
X-108225Y139590D03*
D15*
X207820Y212010D03*
X207820Y187430D03*
D14*
X-57345Y90550D03*
X-67495Y90550D03*
X-148315Y147590D03*
X-138165Y147590D03*
X-97845Y185690D03*
X-107995Y185690D03*
D16*
X-53600Y-84800D03*
X-68600Y-84800D03*
D14*
X-57017Y-71267D03*
X-67167Y-71267D03*
D17*
X55650Y181820D03*
X53900Y-170900D03*
D18*
X-153289Y132011D03*
D19*
X-158489Y148011D03*
D20*
X-72390Y119100D02*
X-72390Y112500D01*
X-72990Y112500D01*
X-72990Y119100D01*
X-72390Y119100D01*
X-72390Y113830D02*
X-72990Y113830D01*
X-72990Y115160D02*
X-72390Y115160D01*
X-72390Y116490D02*
X-72990Y116490D01*
X-72990Y117820D02*
X-72390Y117820D01*
X-68390Y119100D02*
X-68390Y112500D01*
X-68990Y112500D01*
X-68990Y119100D01*
X-68390Y119100D01*
X-68390Y113830D02*
X-68990Y113830D01*
X-68990Y115160D02*
X-68390Y115160D01*
X-68390Y116490D02*
X-68990Y116490D01*
X-68990Y117820D02*
X-68390Y117820D01*
X-64390Y119100D02*
X-64390Y112500D01*
X-64990Y112500D01*
X-64990Y119100D01*
X-64390Y119100D01*
X-64390Y113830D02*
X-64990Y113830D01*
X-64990Y115160D02*
X-64390Y115160D01*
X-64390Y116490D02*
X-64990Y116490D01*
X-64990Y117820D02*
X-64390Y117820D01*
X-60390Y119100D02*
X-60390Y112500D01*
X-60990Y112500D01*
X-60990Y119100D01*
X-60390Y119100D01*
X-60390Y113830D02*
X-60990Y113830D01*
X-60990Y115160D02*
X-60390Y115160D01*
X-60390Y116490D02*
X-60990Y116490D01*
X-60990Y117820D02*
X-60390Y117820D01*
X-56390Y119100D02*
X-56390Y112500D01*
X-56990Y112500D01*
X-56990Y119100D01*
X-56390Y119100D01*
X-56390Y113830D02*
X-56990Y113830D01*
X-56990Y115160D02*
X-56390Y115160D01*
X-56390Y116490D02*
X-56990Y116490D01*
X-56990Y117820D02*
X-56390Y117820D01*
X-52390Y119100D02*
X-52390Y112500D01*
X-52990Y112500D01*
X-52990Y119100D01*
X-52390Y119100D01*
X-52390Y113830D02*
X-52990Y113830D01*
X-52990Y115160D02*
X-52390Y115160D01*
X-52390Y116490D02*
X-52990Y116490D01*
X-52990Y117820D02*
X-52390Y117820D01*
X-48390Y119100D02*
X-48390Y112500D01*
X-48990Y112500D01*
X-48990Y119100D01*
X-48390Y119100D01*
X-48390Y113830D02*
X-48990Y113830D01*
X-48990Y115160D02*
X-48390Y115160D01*
X-48390Y116490D02*
X-48990Y116490D01*
X-48990Y117820D02*
X-48390Y117820D01*
X-44390Y119100D02*
X-44390Y112500D01*
X-44990Y112500D01*
X-44990Y119100D01*
X-44390Y119100D01*
X-44390Y113830D02*
X-44990Y113830D01*
X-44990Y115160D02*
X-44390Y115160D01*
X-44390Y116490D02*
X-44990Y116490D01*
X-44990Y117820D02*
X-44390Y117820D01*
X-41470Y122620D02*
X-34870Y122620D01*
X-34870Y122020D01*
X-41470Y122020D01*
X-41470Y122620D01*
X-41470Y126620D02*
X-34870Y126620D01*
X-34870Y126020D01*
X-41470Y126020D01*
X-41470Y126620D01*
X-41470Y130620D02*
X-34870Y130620D01*
X-34870Y130020D01*
X-41470Y130020D01*
X-41470Y130620D01*
X-41470Y134620D02*
X-34870Y134620D01*
X-34870Y134020D01*
X-41470Y134020D01*
X-41470Y134620D01*
X-41470Y138620D02*
X-34870Y138620D01*
X-34870Y138020D01*
X-41470Y138020D01*
X-41470Y138620D01*
X-41470Y142620D02*
X-34870Y142620D01*
X-34870Y142020D01*
X-41470Y142020D01*
X-41470Y142620D01*
X-41470Y146620D02*
X-34870Y146620D01*
X-34870Y146020D01*
X-41470Y146020D01*
X-41470Y146620D01*
X-41470Y150620D02*
X-34870Y150620D01*
X-34870Y150020D01*
X-41470Y150020D01*
X-41470Y150620D01*
X-44390Y153540D02*
X-44390Y160140D01*
X-44390Y153540D02*
X-44990Y153540D01*
X-44990Y160140D01*
X-44390Y160140D01*
X-44390Y154870D02*
X-44990Y154870D01*
X-44990Y156200D02*
X-44390Y156200D01*
X-44390Y157530D02*
X-44990Y157530D01*
X-44990Y158860D02*
X-44390Y158860D01*
X-48390Y160140D02*
X-48390Y153540D01*
X-48990Y153540D01*
X-48990Y160140D01*
X-48390Y160140D01*
X-48390Y154870D02*
X-48990Y154870D01*
X-48990Y156200D02*
X-48390Y156200D01*
X-48390Y157530D02*
X-48990Y157530D01*
X-48990Y158860D02*
X-48390Y158860D01*
X-52390Y160140D02*
X-52390Y153540D01*
X-52990Y153540D01*
X-52990Y160140D01*
X-52390Y160140D01*
X-52390Y154870D02*
X-52990Y154870D01*
X-52990Y156200D02*
X-52390Y156200D01*
X-52390Y157530D02*
X-52990Y157530D01*
X-52990Y158860D02*
X-52390Y158860D01*
X-56390Y160140D02*
X-56390Y153540D01*
X-56990Y153540D01*
X-56990Y160140D01*
X-56390Y160140D01*
X-56390Y154870D02*
X-56990Y154870D01*
X-56990Y156200D02*
X-56390Y156200D01*
X-56390Y157530D02*
X-56990Y157530D01*
X-56990Y158860D02*
X-56390Y158860D01*
X-60390Y160140D02*
X-60390Y153540D01*
X-60990Y153540D01*
X-60990Y160140D01*
X-60390Y160140D01*
X-60390Y154870D02*
X-60990Y154870D01*
X-60990Y156200D02*
X-60390Y156200D01*
X-60390Y157530D02*
X-60990Y157530D01*
X-60990Y158860D02*
X-60390Y158860D01*
X-64390Y160140D02*
X-64390Y153540D01*
X-64990Y153540D01*
X-64990Y160140D01*
X-64390Y160140D01*
X-64390Y154870D02*
X-64990Y154870D01*
X-64990Y156200D02*
X-64390Y156200D01*
X-64390Y157530D02*
X-64990Y157530D01*
X-64990Y158860D02*
X-64390Y158860D01*
X-68390Y160140D02*
X-68390Y153540D01*
X-68990Y153540D01*
X-68990Y160140D01*
X-68390Y160140D01*
X-68390Y154870D02*
X-68990Y154870D01*
X-68990Y156200D02*
X-68390Y156200D01*
X-68390Y157530D02*
X-68990Y157530D01*
X-68990Y158860D02*
X-68390Y158860D01*
X-72390Y160140D02*
X-72390Y153540D01*
X-72990Y153540D01*
X-72990Y160140D01*
X-72390Y160140D01*
X-72390Y154870D02*
X-72990Y154870D01*
X-72990Y156200D02*
X-72390Y156200D01*
X-72390Y157530D02*
X-72990Y157530D01*
X-72990Y158860D02*
X-72390Y158860D01*
X-75910Y150620D02*
X-82510Y150620D01*
X-75910Y150620D02*
X-75910Y150020D01*
X-82510Y150020D01*
X-82510Y150620D01*
X-82510Y146620D02*
X-75910Y146620D01*
X-75910Y146020D01*
X-82510Y146020D01*
X-82510Y146620D01*
X-82510Y142620D02*
X-75910Y142620D01*
X-75910Y142020D01*
X-82510Y142020D01*
X-82510Y142620D01*
X-82510Y138620D02*
X-75910Y138620D01*
X-75910Y138020D01*
X-82510Y138020D01*
X-82510Y138620D01*
X-82510Y134620D02*
X-75910Y134620D01*
X-75910Y134020D01*
X-82510Y134020D01*
X-82510Y134620D01*
X-82510Y130620D02*
X-75910Y130620D01*
X-75910Y130020D01*
X-82510Y130020D01*
X-82510Y130620D01*
X-82510Y126620D02*
X-75910Y126620D01*
X-75910Y126020D01*
X-82510Y126020D01*
X-82510Y126620D01*
X-82510Y122620D02*
X-75910Y122620D01*
X-75910Y122020D01*
X-82510Y122020D01*
X-82510Y122620D01*
D21*
X-51540Y143470D03*
X-65840Y129170D03*
X-65840Y143470D03*
X-51540Y129170D03*
D22*
X-77389Y178968D03*
X-64649Y178968D03*
X-64649Y188708D03*
X-77389Y188708D03*
D23*
X-62220Y-157070D03*
X-62220Y-109070D03*
D24*
X-24000Y220980D03*
X24000Y220980D03*
X-24000Y-220000D03*
X24000Y-220000D03*
D25*
X107000Y193000D03*
X117000Y-187000D03*
M02*
